solid 109
   facet normal 0.000000E+0 -2.272848E-1 9.738283E-1
      outer loop
         vertex 1.592000E+3 5.820441E+1 -1.671548E+2
         vertex 1.592000E+3 5.793858E+1 -1.672169E+2
         vertex 1.597000E+3 5.820441E+1 -1.671548E+2
      endloop
   endfacet
   facet normal 0.000000E+0 -2.272848E-1 9.738283E-1
      outer loop
         vertex 1.592000E+3 5.793858E+1 -1.672169E+2
         vertex 1.597000E+3 5.793858E+1 -1.672169E+2
         vertex 1.597000E+3 5.820441E+1 -1.671548E+2
      endloop
   endfacet
   facet normal 0.000000E+0 -3.577567E-1 9.338148E-1
      outer loop
         vertex 1.592000E+3 5.820441E+1 -1.671548E+2
         vertex 1.597000E+3 5.820441E+1 -1.671548E+2
         vertex 1.597000E+3 5.845931E+1 -1.670572E+2
      endloop
   endfacet
   facet normal 0.000000E+0 -3.577567E-1 9.338148E-1
      outer loop
         vertex 1.592000E+3 5.845931E+1 -1.670572E+2
         vertex 1.592000E+3 5.820441E+1 -1.671548E+2
         vertex 1.597000E+3 5.845931E+1 -1.670572E+2
      endloop
   endfacet
   facet normal 0.000000E+0 -4.815679E-1 8.764088E-1
      outer loop
         vertex 1.592000E+3 5.869855E+1 -1.669257E+2
         vertex 1.592000E+3 5.845931E+1 -1.670572E+2
         vertex 1.597000E+3 5.869855E+1 -1.669257E+2
      endloop
   endfacet
   facet normal 0.000000E+0 -4.815679E-1 8.764088E-1
      outer loop
         vertex 1.592000E+3 5.845931E+1 -1.670572E+2
         vertex 1.597000E+3 5.845931E+1 -1.670572E+2
         vertex 1.597000E+3 5.869855E+1 -1.669257E+2
      endloop
   endfacet
   facet normal 0.000000E+0 -5.964434E-1 8.026552E-1
      outer loop
         vertex 1.592000E+3 5.891765E+1 -1.667629E+2
         vertex 1.592000E+3 5.869855E+1 -1.669257E+2
         vertex 1.597000E+3 5.891765E+1 -1.667629E+2
      endloop
   endfacet
   facet normal 0.000000E+0 -5.964434E-1 8.026552E-1
      outer loop
         vertex 1.592000E+3 5.869855E+1 -1.669257E+2
         vertex 1.597000E+3 5.869855E+1 -1.669257E+2
         vertex 1.597000E+3 5.891765E+1 -1.667629E+2
      endloop
   endfacet
   facet normal 0.000000E+0 -7.001482E-1 7.139975E-1
      outer loop
         vertex 1.592000E+3 5.911255E+1 -1.665718E+2
         vertex 1.592000E+3 5.891765E+1 -1.667629E+2
         vertex 1.597000E+3 5.911255E+1 -1.665718E+2
      endloop
   endfacet
   facet normal 0.000000E+0 -7.001482E-1 7.139975E-1
      outer loop
         vertex 1.592000E+3 5.891765E+1 -1.667629E+2
         vertex 1.597000E+3 5.891765E+1 -1.667629E+2
         vertex 1.597000E+3 5.911255E+1 -1.665718E+2
      endloop
   endfacet
   facet normal 0.000000E+0 -7.908669E-1 6.119883E-1
      outer loop
         vertex 1.592000E+3 5.927960E+1 -1.663559E+2
         vertex 1.592000E+3 5.911255E+1 -1.665718E+2
         vertex 1.597000E+3 5.927960E+1 -1.663559E+2
      endloop
   endfacet
   facet normal 0.000000E+0 -7.908669E-1 6.119883E-1
      outer loop
         vertex 1.592000E+3 5.911255E+1 -1.665718E+2
         vertex 1.597000E+3 5.911255E+1 -1.665718E+2
         vertex 1.597000E+3 5.927960E+1 -1.663559E+2
      endloop
   endfacet
   facet normal 0.000000E+0 -8.668284E-1 4.986066E-1
      outer loop
         vertex 1.592000E+3 5.941570E+1 -1.661193E+2
         vertex 1.592000E+3 5.927960E+1 -1.663559E+2
         vertex 1.597000E+3 5.941570E+1 -1.661193E+2
      endloop
   endfacet
   facet normal 0.000000E+0 -8.668284E-1 4.986066E-1
      outer loop
         vertex 1.592000E+3 5.927960E+1 -1.663559E+2
         vertex 1.597000E+3 5.927960E+1 -1.663559E+2
         vertex 1.597000E+3 5.941570E+1 -1.661193E+2
      endloop
   endfacet
   facet normal 0.000000E+0 -9.266499E-1 3.759257E-1
      outer loop
         vertex 1.592000E+3 5.951832E+1 -1.658664E+2
         vertex 1.592000E+3 5.941570E+1 -1.661193E+2
         vertex 1.597000E+3 5.951832E+1 -1.658664E+2
      endloop
   endfacet
   facet normal 0.000000E+0 -9.266499E-1 3.759257E-1
      outer loop
         vertex 1.592000E+3 5.941570E+1 -1.661193E+2
         vertex 1.597000E+3 5.941570E+1 -1.661193E+2
         vertex 1.597000E+3 5.951832E+1 -1.658664E+2
      endloop
   endfacet
   facet normal 0.000000E+0 -9.692115E-1 2.462297E-1
      outer loop
         vertex 1.592000E+3 5.958553E+1 -1.656018E+2
         vertex 1.592000E+3 5.951832E+1 -1.658664E+2
         vertex 1.597000E+3 5.958553E+1 -1.656018E+2
      endloop
   endfacet
   facet normal 0.000000E+0 -9.692115E-1 2.462297E-1
      outer loop
         vertex 1.592000E+3 5.951832E+1 -1.658664E+2
         vertex 1.597000E+3 5.951832E+1 -1.658664E+2
         vertex 1.597000E+3 5.958553E+1 -1.656018E+2
      endloop
   endfacet
   facet normal 0.000000E+0 -9.937106E-1 1.119790E-1
      outer loop
         vertex 1.592000E+3 5.961610E+1 -1.653305E+2
         vertex 1.592000E+3 5.958553E+1 -1.656018E+2
         vertex 1.597000E+3 5.961610E+1 -1.653305E+2
      endloop
   endfacet
   facet normal 0.000000E+0 -9.937106E-1 1.119790E-1
      outer loop
         vertex 1.592000E+3 5.958553E+1 -1.656018E+2
         vertex 1.597000E+3 5.958553E+1 -1.656018E+2
         vertex 1.597000E+3 5.961610E+1 -1.653305E+2
      endloop
   endfacet
   facet normal 0.000000E+0 -9.997026E-1 -2.438606E-2
      outer loop
         vertex 1.592000E+3 5.960944E+1 -1.650576E+2
         vertex 1.592000E+3 5.961610E+1 -1.653305E+2
         vertex 1.597000E+3 5.960944E+1 -1.650576E+2
      endloop
   endfacet
   facet normal 0.000000E+0 -9.997026E-1 -2.438606E-2
      outer loop
         vertex 1.592000E+3 5.961610E+1 -1.653305E+2
         vertex 1.597000E+3 5.961610E+1 -1.653305E+2
         vertex 1.597000E+3 5.960944E+1 -1.650576E+2
      endloop
   endfacet
   facet normal 0.000000E+0 -9.870719E-1 -1.602776E-1
      outer loop
         vertex 1.592000E+3 5.956569E+1 -1.647882E+2
         vertex 1.592000E+3 5.960944E+1 -1.650576E+2
         vertex 1.597000E+3 5.956569E+1 -1.647882E+2
      endloop
   endfacet
   facet normal 0.000000E+0 -9.870719E-1 -1.602776E-1
      outer loop
         vertex 1.592000E+3 5.960944E+1 -1.650576E+2
         vertex 1.597000E+3 5.960944E+1 -1.650576E+2
         vertex 1.597000E+3 5.956569E+1 -1.647882E+2
      endloop
   endfacet
   facet normal 0.000000E+0 -9.560530E-1 -2.931941E-1
      outer loop
         vertex 1.592000E+3 5.948566E+1 -1.645272E+2
         vertex 1.592000E+3 5.956569E+1 -1.647882E+2
         vertex 1.597000E+3 5.948566E+1 -1.645272E+2
      endloop
   endfacet
   facet normal 0.000000E+0 -9.560530E-1 -2.931941E-1
      outer loop
         vertex 1.592000E+3 5.956569E+1 -1.647882E+2
         vertex 1.597000E+3 5.956569E+1 -1.647882E+2
         vertex 1.597000E+3 5.948566E+1 -1.645272E+2
      endloop
   endfacet
   facet normal 0.000000E+0 -9.072300E-1 -4.206350E-1
      outer loop
         vertex 1.592000E+3 5.937084E+1 -1.642796E+2
         vertex 1.592000E+3 5.948566E+1 -1.645272E+2
         vertex 1.597000E+3 5.937084E+1 -1.642796E+2
      endloop
   endfacet
   facet normal 0.000000E+0 -9.072300E-1 -4.206350E-1
      outer loop
         vertex 1.592000E+3 5.948566E+1 -1.645272E+2
         vertex 1.597000E+3 5.948566E+1 -1.645272E+2
         vertex 1.597000E+3 5.937084E+1 -1.642796E+2
      endloop
   endfacet
   facet normal 0.000000E+0 -8.415043E-1 -5.402504E-1
      outer loop
         vertex 1.592000E+3 5.922337E+1 -1.640499E+2
         vertex 1.592000E+3 5.937084E+1 -1.642796E+2
         vertex 1.597000E+3 5.922337E+1 -1.640499E+2
      endloop
   endfacet
   facet normal 0.000000E+0 -8.415043E-1 -5.402504E-1
      outer loop
         vertex 1.592000E+3 5.937084E+1 -1.642796E+2
         vertex 1.597000E+3 5.937084E+1 -1.642796E+2
         vertex 1.597000E+3 5.922337E+1 -1.640499E+2
      endloop
   endfacet
   facet normal 0.000000E+0 -7.600797E-1 -6.498298E-1
      outer loop
         vertex 1.592000E+3 5.904599E+1 -1.638424E+2
         vertex 1.592000E+3 5.922337E+1 -1.640499E+2
         vertex 1.597000E+3 5.904599E+1 -1.638424E+2
      endloop
   endfacet
   facet normal 0.000000E+0 -7.600797E-1 -6.498298E-1
      outer loop
         vertex 1.592000E+3 5.922337E+1 -1.640499E+2
         vertex 1.597000E+3 5.922337E+1 -1.640499E+2
         vertex 1.597000E+3 5.904599E+1 -1.638424E+2
      endloop
   endfacet
   facet normal 0.000000E+0 -6.645304E-1 -7.472613E-1
      outer loop
         vertex 1.592000E+3 5.884201E+1 -1.636610E+2
         vertex 1.592000E+3 5.904599E+1 -1.638424E+2
         vertex 1.597000E+3 5.884201E+1 -1.636610E+2
      endloop
   endfacet
   facet normal 0.000000E+0 -6.645304E-1 -7.472613E-1
      outer loop
         vertex 1.592000E+3 5.904599E+1 -1.638424E+2
         vertex 1.597000E+3 5.904599E+1 -1.638424E+2
         vertex 1.597000E+3 5.884201E+1 -1.636610E+2
      endloop
   endfacet
   facet normal 0.000000E+0 -5.565886E-1 -8.307883E-1
      outer loop
         vertex 1.592000E+3 5.861523E+1 -1.635091E+2
         vertex 1.592000E+3 5.884201E+1 -1.636610E+2
         vertex 1.597000E+3 5.861523E+1 -1.635091E+2
      endloop
   endfacet
   facet normal 0.000000E+0 -5.565886E-1 -8.307883E-1
      outer loop
         vertex 1.592000E+3 5.884201E+1 -1.636610E+2
         vertex 1.597000E+3 5.884201E+1 -1.636610E+2
         vertex 1.597000E+3 5.861523E+1 -1.635091E+2
      endloop
   endfacet
   facet normal 0.000000E+0 -4.383036E-1 -8.988270E-1
      outer loop
         vertex 1.592000E+3 5.836987E+1 -1.633894E+2
         vertex 1.592000E+3 5.861523E+1 -1.635091E+2
         vertex 1.597000E+3 5.836987E+1 -1.633894E+2
      endloop
   endfacet
   facet normal 0.000000E+0 -4.383036E-1 -8.988270E-1
      outer loop
         vertex 1.592000E+3 5.861523E+1 -1.635091E+2
         vertex 1.597000E+3 5.861523E+1 -1.635091E+2
         vertex 1.597000E+3 5.836987E+1 -1.633894E+2
      endloop
   endfacet
   facet normal 0.000000E+0 -3.118055E-1 -9.501460E-1
      outer loop
         vertex 1.592000E+3 5.811051E+1 -1.633043E+2
         vertex 1.592000E+3 5.836987E+1 -1.633894E+2
         vertex 1.597000E+3 5.811051E+1 -1.633043E+2
      endloop
   endfacet
   facet normal 0.000000E+0 -3.118055E-1 -9.501460E-1
      outer loop
         vertex 1.592000E+3 5.836987E+1 -1.633894E+2
         vertex 1.597000E+3 5.836987E+1 -1.633894E+2
         vertex 1.597000E+3 5.811051E+1 -1.633043E+2
      endloop
   endfacet
   facet normal 0.000000E+0 -1.795470E-1 -9.837494E-1
      outer loop
         vertex 1.592000E+3 5.784198E+1 -1.632553E+2
         vertex 1.592000E+3 5.811051E+1 -1.633043E+2
         vertex 1.597000E+3 5.784198E+1 -1.632553E+2
      endloop
   endfacet
   facet normal 0.000000E+0 -1.795470E-1 -9.837494E-1
      outer loop
         vertex 1.592000E+3 5.811051E+1 -1.633043E+2
         vertex 1.597000E+3 5.811051E+1 -1.633043E+2
         vertex 1.597000E+3 5.784198E+1 -1.632553E+2
      endloop
   endfacet
   facet normal 0.000000E+0 -4.388115E-2 -9.990368E-1
      outer loop
         vertex 1.592000E+3 5.756927E+1 -1.632433E+2
         vertex 1.592000E+3 5.784198E+1 -1.632553E+2
         vertex 1.597000E+3 5.756927E+1 -1.632433E+2
      endloop
   endfacet
   facet normal 0.000000E+0 -4.388115E-2 -9.990368E-1
      outer loop
         vertex 1.592000E+3 5.784198E+1 -1.632553E+2
         vertex 1.597000E+3 5.784198E+1 -1.632553E+2
         vertex 1.597000E+3 5.756927E+1 -1.632433E+2
      endloop
   endfacet
   facet normal 0.000000E+0 9.256924E-2 -9.957063E-1
      outer loop
         vertex 1.592000E+3 5.729747E+1 -1.632686E+2
         vertex 1.592000E+3 5.756927E+1 -1.632433E+2
         vertex 1.597000E+3 5.729747E+1 -1.632686E+2
      endloop
   endfacet
   facet normal 0.000000E+0 9.256924E-2 -9.957063E-1
      outer loop
         vertex 1.592000E+3 5.756927E+1 -1.632433E+2
         vertex 1.597000E+3 5.756927E+1 -1.632433E+2
         vertex 1.597000E+3 5.729747E+1 -1.632686E+2
      endloop
   endfacet
   facet normal 0.000000E+0 2.272318E-1 -9.738407E-1
      outer loop
         vertex 1.592000E+3 5.703165E+1 -1.633306E+2
         vertex 1.592000E+3 5.729747E+1 -1.632686E+2
         vertex 1.597000E+3 5.703165E+1 -1.633306E+2
      endloop
   endfacet
   facet normal 0.000000E+0 2.272318E-1 -9.738407E-1
      outer loop
         vertex 1.592000E+3 5.729747E+1 -1.632686E+2
         vertex 1.597000E+3 5.729747E+1 -1.632686E+2
         vertex 1.597000E+3 5.703165E+1 -1.633306E+2
      endloop
   endfacet
   facet normal 0.000000E+0 3.577520E-1 -9.338167E-1
      outer loop
         vertex 1.592000E+3 5.677674E+1 -1.634283E+2
         vertex 1.592000E+3 5.703165E+1 -1.633306E+2
         vertex 1.597000E+3 5.677674E+1 -1.634283E+2
      endloop
   endfacet
   facet normal 0.000000E+0 3.577520E-1 -9.338167E-1
      outer loop
         vertex 1.592000E+3 5.703165E+1 -1.633306E+2
         vertex 1.597000E+3 5.703165E+1 -1.633306E+2
         vertex 1.597000E+3 5.677674E+1 -1.634283E+2
      endloop
   endfacet
   facet normal 0.000000E+0 4.815738E-1 -8.764055E-1
      outer loop
         vertex 1.592000E+3 5.653751E+1 -1.635597E+2
         vertex 1.592000E+3 5.677674E+1 -1.634283E+2
         vertex 1.597000E+3 5.653751E+1 -1.635597E+2
      endloop
   endfacet
   facet normal 0.000000E+0 4.815738E-1 -8.764055E-1
      outer loop
         vertex 1.592000E+3 5.677674E+1 -1.634283E+2
         vertex 1.597000E+3 5.677674E+1 -1.634283E+2
         vertex 1.597000E+3 5.653751E+1 -1.635597E+2
      endloop
   endfacet
   facet normal 0.000000E+0 5.964367E-1 -8.026602E-1
      outer loop
         vertex 1.592000E+3 5.653751E+1 -1.635597E+2
         vertex 1.597000E+3 5.653751E+1 -1.635597E+2
         vertex 1.597000E+3 5.631841E+1 -1.637225E+2
      endloop
   endfacet
   facet normal 0.000000E+0 5.964367E-1 -8.026602E-1
      outer loop
         vertex 1.592000E+3 5.631841E+1 -1.637225E+2
         vertex 1.592000E+3 5.653751E+1 -1.635597E+2
         vertex 1.597000E+3 5.631841E+1 -1.637225E+2
      endloop
   endfacet
   facet normal 0.000000E+0 7.001552E-1 -7.139906E-1
      outer loop
         vertex 1.592000E+3 5.631841E+1 -1.637225E+2
         vertex 1.597000E+3 5.631841E+1 -1.637225E+2
         vertex 1.597000E+3 5.612351E+1 -1.639137E+2
      endloop
   endfacet
   facet normal 0.000000E+0 7.001552E-1 -7.139906E-1
      outer loop
         vertex 1.592000E+3 5.612351E+1 -1.639137E+2
         vertex 1.592000E+3 5.631841E+1 -1.637225E+2
         vertex 1.597000E+3 5.612351E+1 -1.639137E+2
      endloop
   endfacet
   facet normal 0.000000E+0 7.908601E-1 -6.119970E-1
      outer loop
         vertex 1.592000E+3 5.612351E+1 -1.639137E+2
         vertex 1.597000E+3 5.612351E+1 -1.639137E+2
         vertex 1.597000E+3 5.595646E+1 -1.641295E+2
      endloop
   endfacet
   facet normal 0.000000E+0 7.908601E-1 -6.119970E-1
      outer loop
         vertex 1.592000E+3 5.595646E+1 -1.641295E+2
         vertex 1.592000E+3 5.612351E+1 -1.639137E+2
         vertex 1.597000E+3 5.595646E+1 -1.641295E+2
      endloop
   endfacet
   facet normal 0.000000E+0 8.668483E-1 -4.985719E-1
      outer loop
         vertex 1.592000E+3 5.595646E+1 -1.641295E+2
         vertex 1.597000E+3 5.595646E+1 -1.641295E+2
         vertex 1.597000E+3 5.582035E+1 -1.643662E+2
      endloop
   endfacet
   facet normal 0.000000E+0 8.668483E-1 -4.985719E-1
      outer loop
         vertex 1.592000E+3 5.582035E+1 -1.643662E+2
         vertex 1.592000E+3 5.595646E+1 -1.641295E+2
         vertex 1.597000E+3 5.582035E+1 -1.643662E+2
      endloop
   endfacet
   facet normal 0.000000E+0 9.266499E-1 -3.759257E-1
      outer loop
         vertex 1.592000E+3 5.582035E+1 -1.643662E+2
         vertex 1.597000E+3 5.582035E+1 -1.643662E+2
         vertex 1.597000E+3 5.571774E+1 -1.646191E+2
      endloop
   endfacet
   facet normal 0.000000E+0 9.266499E-1 -3.759257E-1
      outer loop
         vertex 1.592000E+3 5.571774E+1 -1.646191E+2
         vertex 1.592000E+3 5.582035E+1 -1.643662E+2
         vertex 1.597000E+3 5.571774E+1 -1.646191E+2
      endloop
   endfacet
   facet normal 0.000000E+0 9.692048E-1 -2.462562E-1
      outer loop
         vertex 1.592000E+3 5.571774E+1 -1.646191E+2
         vertex 1.597000E+3 5.571774E+1 -1.646191E+2
         vertex 1.597000E+3 5.565052E+1 -1.648837E+2
      endloop
   endfacet
   facet normal 0.000000E+0 9.692048E-1 -2.462562E-1
      outer loop
         vertex 1.592000E+3 5.565052E+1 -1.648837E+2
         vertex 1.592000E+3 5.571774E+1 -1.646191E+2
         vertex 1.597000E+3 5.565052E+1 -1.648837E+2
      endloop
   endfacet
   facet normal 0.000000E+0 9.937122E-1 -1.119652E-1
      outer loop
         vertex 1.592000E+3 5.565052E+1 -1.648837E+2
         vertex 1.597000E+3 5.565052E+1 -1.648837E+2
         vertex 1.597000E+3 5.561996E+1 -1.651549E+2
      endloop
   endfacet
   facet normal 0.000000E+0 9.937122E-1 -1.119652E-1
      outer loop
         vertex 1.592000E+3 5.561996E+1 -1.651549E+2
         vertex 1.592000E+3 5.565052E+1 -1.648837E+2
         vertex 1.597000E+3 5.561996E+1 -1.651549E+2
      endloop
   endfacet
   facet normal -0.000000E+0 9.997029E-1 2.437209E-2
      outer loop
         vertex 1.592000E+3 5.561996E+1 -1.651549E+2
         vertex 1.597000E+3 5.561996E+1 -1.651549E+2
         vertex 1.597000E+3 5.562661E+1 -1.654278E+2
      endloop
   endfacet
   facet normal -0.000000E+0 9.997029E-1 2.437209E-2
      outer loop
         vertex 1.592000E+3 5.562661E+1 -1.654278E+2
         vertex 1.592000E+3 5.561996E+1 -1.651549E+2
         vertex 1.597000E+3 5.562661E+1 -1.654278E+2
      endloop
   endfacet
   facet normal -0.000000E+0 9.870719E-1 1.602776E-1
      outer loop
         vertex 1.592000E+3 5.562661E+1 -1.654278E+2
         vertex 1.597000E+3 5.562661E+1 -1.654278E+2
         vertex 1.597000E+3 5.567036E+1 -1.656973E+2
      endloop
   endfacet
   facet normal -0.000000E+0 9.870719E-1 1.602776E-1
      outer loop
         vertex 1.592000E+3 5.567036E+1 -1.656973E+2
         vertex 1.592000E+3 5.562661E+1 -1.654278E+2
         vertex 1.597000E+3 5.567036E+1 -1.656973E+2
      endloop
   endfacet
   facet normal -0.000000E+0 9.560530E-1 2.931941E-1
      outer loop
         vertex 1.592000E+3 5.575039E+1 -1.659582E+2
         vertex 1.592000E+3 5.567036E+1 -1.656973E+2
         vertex 1.597000E+3 5.575039E+1 -1.659582E+2
      endloop
   endfacet
   facet normal -0.000000E+0 9.560530E-1 2.931941E-1
      outer loop
         vertex 1.592000E+3 5.567036E+1 -1.656973E+2
         vertex 1.597000E+3 5.567036E+1 -1.656973E+2
         vertex 1.597000E+3 5.575039E+1 -1.659582E+2
      endloop
   endfacet
   facet normal -0.000000E+0 9.072300E-1 4.206350E-1
      outer loop
         vertex 1.592000E+3 5.586522E+1 -1.662059E+2
         vertex 1.592000E+3 5.575039E+1 -1.659582E+2
         vertex 1.597000E+3 5.586522E+1 -1.662059E+2
      endloop
   endfacet
   facet normal -0.000000E+0 9.072300E-1 4.206350E-1
      outer loop
         vertex 1.592000E+3 5.575039E+1 -1.659582E+2
         vertex 1.597000E+3 5.575039E+1 -1.659582E+2
         vertex 1.597000E+3 5.586522E+1 -1.662059E+2
      endloop
   endfacet
   facet normal -0.000000E+0 8.414980E-1 5.402603E-1
      outer loop
         vertex 1.592000E+3 5.601269E+1 -1.664356E+2
         vertex 1.592000E+3 5.586522E+1 -1.662059E+2
         vertex 1.597000E+3 5.601269E+1 -1.664356E+2
      endloop
   endfacet
   facet normal -0.000000E+0 8.414980E-1 5.402603E-1
      outer loop
         vertex 1.592000E+3 5.586522E+1 -1.662059E+2
         vertex 1.597000E+3 5.586522E+1 -1.662059E+2
         vertex 1.597000E+3 5.601269E+1 -1.664356E+2
      endloop
   endfacet
   facet normal -0.000000E+0 7.600797E-1 6.498298E-1
      outer loop
         vertex 1.592000E+3 5.619007E+1 -1.666431E+2
         vertex 1.592000E+3 5.601269E+1 -1.664356E+2
         vertex 1.597000E+3 5.619007E+1 -1.666431E+2
      endloop
   endfacet
   facet normal -0.000000E+0 7.600797E-1 6.498298E-1
      outer loop
         vertex 1.592000E+3 5.601269E+1 -1.664356E+2
         vertex 1.597000E+3 5.601269E+1 -1.664356E+2
         vertex 1.597000E+3 5.619007E+1 -1.666431E+2
      endloop
   endfacet
   facet normal -0.000000E+0 6.645685E-1 7.472273E-1
      outer loop
         vertex 1.592000E+3 5.639405E+1 -1.668245E+2
         vertex 1.592000E+3 5.619007E+1 -1.666431E+2
         vertex 1.597000E+3 5.639405E+1 -1.668245E+2
      endloop
   endfacet
   facet normal -0.000000E+0 6.645685E-1 7.472273E-1
      outer loop
         vertex 1.592000E+3 5.619007E+1 -1.666431E+2
         vertex 1.597000E+3 5.619007E+1 -1.666431E+2
         vertex 1.597000E+3 5.639405E+1 -1.668245E+2
      endloop
   endfacet
   facet normal -0.000000E+0 5.565886E-1 8.307883E-1
      outer loop
         vertex 1.592000E+3 5.662083E+1 -1.669764E+2
         vertex 1.592000E+3 5.639405E+1 -1.668245E+2
         vertex 1.597000E+3 5.662083E+1 -1.669764E+2
      endloop
   endfacet
   facet normal -0.000000E+0 5.565886E-1 8.307883E-1
      outer loop
         vertex 1.592000E+3 5.639405E+1 -1.668245E+2
         vertex 1.597000E+3 5.639405E+1 -1.668245E+2
         vertex 1.597000E+3 5.662083E+1 -1.669764E+2
      endloop
   endfacet
   facet normal -0.000000E+0 4.382529E-1 8.988517E-1
      outer loop
         vertex 1.592000E+3 5.686618E+1 -1.670960E+2
         vertex 1.592000E+3 5.662083E+1 -1.669764E+2
         vertex 1.597000E+3 5.686618E+1 -1.670960E+2
      endloop
   endfacet
   facet normal -0.000000E+0 4.382529E-1 8.988517E-1
      outer loop
         vertex 1.592000E+3 5.662083E+1 -1.669764E+2
         vertex 1.597000E+3 5.662083E+1 -1.669764E+2
         vertex 1.597000E+3 5.686618E+1 -1.670960E+2
      endloop
   endfacet
   facet normal -0.000000E+0 3.118097E-1 9.501446E-1
      outer loop
         vertex 1.592000E+3 5.712554E+1 -1.671812E+2
         vertex 1.592000E+3 5.686618E+1 -1.670960E+2
         vertex 1.597000E+3 5.712554E+1 -1.671812E+2
      endloop
   endfacet
   facet normal -0.000000E+0 3.118097E-1 9.501446E-1
      outer loop
         vertex 1.592000E+3 5.686618E+1 -1.670960E+2
         vertex 1.597000E+3 5.686618E+1 -1.670960E+2
         vertex 1.597000E+3 5.712554E+1 -1.671812E+2
      endloop
   endfacet
   facet normal -0.000000E+0 1.795470E-1 9.837494E-1
      outer loop
         vertex 1.592000E+3 5.739408E+1 -1.672302E+2
         vertex 1.592000E+3 5.712554E+1 -1.671812E+2
         vertex 1.597000E+3 5.739408E+1 -1.672302E+2
      endloop
   endfacet
   facet normal -0.000000E+0 1.795470E-1 9.837494E-1
      outer loop
         vertex 1.592000E+3 5.712554E+1 -1.671812E+2
         vertex 1.597000E+3 5.712554E+1 -1.671812E+2
         vertex 1.597000E+3 5.739408E+1 -1.672302E+2
      endloop
   endfacet
   facet normal -0.000000E+0 4.388053E-2 9.990368E-1
      outer loop
         vertex 1.592000E+3 5.766679E+1 -1.672421E+2
         vertex 1.592000E+3 5.739408E+1 -1.672302E+2
         vertex 1.597000E+3 5.766679E+1 -1.672421E+2
      endloop
   endfacet
   facet normal -0.000000E+0 4.388053E-2 9.990368E-1
      outer loop
         vertex 1.592000E+3 5.739408E+1 -1.672302E+2
         vertex 1.597000E+3 5.739408E+1 -1.672302E+2
         vertex 1.597000E+3 5.766679E+1 -1.672421E+2
      endloop
   endfacet
   facet normal 0.000000E+0 -9.251381E-2 9.957114E-1
      outer loop
         vertex 1.592000E+3 5.793858E+1 -1.672169E+2
         vertex 1.592000E+3 5.766679E+1 -1.672421E+2
         vertex 1.597000E+3 5.793858E+1 -1.672169E+2
      endloop
   endfacet
   facet normal 0.000000E+0 -9.251381E-2 9.957114E-1
      outer loop
         vertex 1.592000E+3 5.766679E+1 -1.672421E+2
         vertex 1.597000E+3 5.766679E+1 -1.672421E+2
         vertex 1.597000E+3 5.793858E+1 -1.672169E+2
      endloop
   endfacet
endsolid 109