solid 110
   facet normal 0.000000E+0 -2.272349E-1 9.738399E-1
      outer loop
         vertex 1.592000E+3 1.028970E+2 1.400652E+2
         vertex 1.592000E+3 1.026311E+2 1.400031E+2
         vertex 1.597000E+3 1.028970E+2 1.400652E+2
      endloop
   endfacet
   facet normal 0.000000E+0 -2.272349E-1 9.738399E-1
      outer loop
         vertex 1.592000E+3 1.026311E+2 1.400031E+2
         vertex 1.597000E+3 1.026311E+2 1.400031E+2
         vertex 1.597000E+3 1.028970E+2 1.400652E+2
      endloop
   endfacet
   facet normal 0.000000E+0 -3.577520E-1 9.338167E-1
      outer loop
         vertex 1.592000E+3 1.028970E+2 1.400652E+2
         vertex 1.597000E+3 1.028970E+2 1.400652E+2
         vertex 1.597000E+3 1.031519E+2 1.401628E+2
      endloop
   endfacet
   facet normal 0.000000E+0 -3.577520E-1 9.338167E-1
      outer loop
         vertex 1.592000E+3 1.031519E+2 1.401628E+2
         vertex 1.592000E+3 1.028970E+2 1.400652E+2
         vertex 1.597000E+3 1.031519E+2 1.401628E+2
      endloop
   endfacet
   facet normal 0.000000E+0 -4.815679E-1 8.764088E-1
      outer loop
         vertex 1.592000E+3 1.033911E+2 1.402943E+2
         vertex 1.592000E+3 1.031519E+2 1.401628E+2
         vertex 1.597000E+3 1.033911E+2 1.402943E+2
      endloop
   endfacet
   facet normal 0.000000E+0 -4.815679E-1 8.764088E-1
      outer loop
         vertex 1.592000E+3 1.031519E+2 1.401628E+2
         vertex 1.597000E+3 1.031519E+2 1.401628E+2
         vertex 1.597000E+3 1.033911E+2 1.402943E+2
      endloop
   endfacet
   facet normal 0.000000E+0 -5.964434E-1 8.026552E-1
      outer loop
         vertex 1.592000E+3 1.036102E+2 1.404571E+2
         vertex 1.592000E+3 1.033911E+2 1.402943E+2
         vertex 1.597000E+3 1.036102E+2 1.404571E+2
      endloop
   endfacet
   facet normal 0.000000E+0 -5.964434E-1 8.026552E-1
      outer loop
         vertex 1.592000E+3 1.033911E+2 1.402943E+2
         vertex 1.597000E+3 1.033911E+2 1.402943E+2
         vertex 1.597000E+3 1.036102E+2 1.404571E+2
      endloop
   endfacet
   facet normal 0.000000E+0 -7.001552E-1 7.139906E-1
      outer loop
         vertex 1.592000E+3 1.038051E+2 1.406482E+2
         vertex 1.592000E+3 1.036102E+2 1.404571E+2
         vertex 1.597000E+3 1.038051E+2 1.406482E+2
      endloop
   endfacet
   facet normal 0.000000E+0 -7.001552E-1 7.139906E-1
      outer loop
         vertex 1.592000E+3 1.036102E+2 1.404571E+2
         vertex 1.597000E+3 1.036102E+2 1.404571E+2
         vertex 1.597000E+3 1.038051E+2 1.406482E+2
      endloop
   endfacet
   facet normal 0.000000E+0 -7.908669E-1 6.119883E-1
      outer loop
         vertex 1.592000E+3 1.039722E+2 1.408641E+2
         vertex 1.592000E+3 1.038051E+2 1.406482E+2
         vertex 1.597000E+3 1.039722E+2 1.408641E+2
      endloop
   endfacet
   facet normal 0.000000E+0 -7.908669E-1 6.119883E-1
      outer loop
         vertex 1.592000E+3 1.038051E+2 1.406482E+2
         vertex 1.597000E+3 1.038051E+2 1.406482E+2
         vertex 1.597000E+3 1.039722E+2 1.408641E+2
      endloop
   endfacet
   facet normal 0.000000E+0 -8.668362E-1 4.985929E-1
      outer loop
         vertex 1.592000E+3 1.041083E+2 1.411007E+2
         vertex 1.592000E+3 1.039722E+2 1.408641E+2
         vertex 1.597000E+3 1.041083E+2 1.411007E+2
      endloop
   endfacet
   facet normal 0.000000E+0 -8.668362E-1 4.985929E-1
      outer loop
         vertex 1.592000E+3 1.039722E+2 1.408641E+2
         vertex 1.597000E+3 1.039722E+2 1.408641E+2
         vertex 1.597000E+3 1.041083E+2 1.411007E+2
      endloop
   endfacet
   facet normal 0.000000E+0 -9.266499E-1 3.759257E-1
      outer loop
         vertex 1.592000E+3 1.042109E+2 1.413537E+2
         vertex 1.592000E+3 1.041083E+2 1.411007E+2
         vertex 1.597000E+3 1.042109E+2 1.413537E+2
      endloop
   endfacet
   facet normal 0.000000E+0 -9.266499E-1 3.759257E-1
      outer loop
         vertex 1.592000E+3 1.041083E+2 1.411007E+2
         vertex 1.597000E+3 1.041083E+2 1.411007E+2
         vertex 1.597000E+3 1.042109E+2 1.413537E+2
      endloop
   endfacet
   facet normal 0.000000E+0 -9.692081E-1 2.462430E-1
      outer loop
         vertex 1.592000E+3 1.042781E+2 1.416182E+2
         vertex 1.592000E+3 1.042109E+2 1.413537E+2
         vertex 1.597000E+3 1.042781E+2 1.416182E+2
      endloop
   endfacet
   facet normal 0.000000E+0 -9.692081E-1 2.462430E-1
      outer loop
         vertex 1.592000E+3 1.042109E+2 1.413537E+2
         vertex 1.597000E+3 1.042109E+2 1.413537E+2
         vertex 1.597000E+3 1.042781E+2 1.416182E+2
      endloop
   endfacet
   facet normal 0.000000E+0 -9.937122E-1 1.119652E-1
      outer loop
         vertex 1.592000E+3 1.043087E+2 1.418895E+2
         vertex 1.592000E+3 1.042781E+2 1.416182E+2
         vertex 1.597000E+3 1.043087E+2 1.418895E+2
      endloop
   endfacet
   facet normal 0.000000E+0 -9.937122E-1 1.119652E-1
      outer loop
         vertex 1.592000E+3 1.042781E+2 1.416182E+2
         vertex 1.597000E+3 1.042781E+2 1.416182E+2
         vertex 1.597000E+3 1.043087E+2 1.418895E+2
      endloop
   endfacet
   facet normal 0.000000E+0 -9.997029E-1 -2.437209E-2
      outer loop
         vertex 1.592000E+3 1.043020E+2 1.421624E+2
         vertex 1.592000E+3 1.043087E+2 1.418895E+2
         vertex 1.597000E+3 1.043020E+2 1.421624E+2
      endloop
   endfacet
   facet normal 0.000000E+0 -9.997029E-1 -2.437209E-2
      outer loop
         vertex 1.592000E+3 1.043087E+2 1.418895E+2
         vertex 1.597000E+3 1.043087E+2 1.418895E+2
         vertex 1.597000E+3 1.043020E+2 1.421624E+2
      endloop
   endfacet
   facet normal 0.000000E+0 -9.870698E-1 -1.602912E-1
      outer loop
         vertex 1.592000E+3 1.042582E+2 1.424318E+2
         vertex 1.592000E+3 1.043020E+2 1.421624E+2
         vertex 1.597000E+3 1.042582E+2 1.424318E+2
      endloop
   endfacet
   facet normal 0.000000E+0 -9.870698E-1 -1.602912E-1
      outer loop
         vertex 1.592000E+3 1.043020E+2 1.421624E+2
         vertex 1.597000E+3 1.043020E+2 1.421624E+2
         vertex 1.597000E+3 1.042582E+2 1.424318E+2
      endloop
   endfacet
   facet normal 0.000000E+0 -9.560530E-1 -2.931941E-1
      outer loop
         vertex 1.592000E+3 1.041782E+2 1.426928E+2
         vertex 1.592000E+3 1.042582E+2 1.424318E+2
         vertex 1.597000E+3 1.041782E+2 1.426928E+2
      endloop
   endfacet
   facet normal 0.000000E+0 -9.560530E-1 -2.931941E-1
      outer loop
         vertex 1.592000E+3 1.042582E+2 1.424318E+2
         vertex 1.597000E+3 1.042582E+2 1.424318E+2
         vertex 1.597000E+3 1.041782E+2 1.426928E+2
      endloop
   endfacet
   facet normal 0.000000E+0 -9.072300E-1 -4.206350E-1
      outer loop
         vertex 1.592000E+3 1.040634E+2 1.429404E+2
         vertex 1.592000E+3 1.041782E+2 1.426928E+2
         vertex 1.597000E+3 1.040634E+2 1.429404E+2
      endloop
   endfacet
   facet normal 0.000000E+0 -9.072300E-1 -4.206350E-1
      outer loop
         vertex 1.592000E+3 1.041782E+2 1.426928E+2
         vertex 1.597000E+3 1.041782E+2 1.426928E+2
         vertex 1.597000E+3 1.040634E+2 1.429404E+2
      endloop
   endfacet
   facet normal 0.000000E+0 -8.415107E-1 -5.402405E-1
      outer loop
         vertex 1.592000E+3 1.039159E+2 1.431701E+2
         vertex 1.592000E+3 1.040634E+2 1.429404E+2
         vertex 1.597000E+3 1.039159E+2 1.431701E+2
      endloop
   endfacet
   facet normal 0.000000E+0 -8.415107E-1 -5.402405E-1
      outer loop
         vertex 1.592000E+3 1.040634E+2 1.429404E+2
         vertex 1.597000E+3 1.040634E+2 1.429404E+2
         vertex 1.597000E+3 1.039159E+2 1.431701E+2
      endloop
   endfacet
   facet normal 0.000000E+0 -7.600728E-1 -6.498380E-1
      outer loop
         vertex 1.592000E+3 1.037385E+2 1.433776E+2
         vertex 1.592000E+3 1.039159E+2 1.431701E+2
         vertex 1.597000E+3 1.037385E+2 1.433776E+2
      endloop
   endfacet
   facet normal 0.000000E+0 -7.600728E-1 -6.498380E-1
      outer loop
         vertex 1.592000E+3 1.039159E+2 1.431701E+2
         vertex 1.597000E+3 1.039159E+2 1.431701E+2
         vertex 1.597000E+3 1.037385E+2 1.433776E+2
      endloop
   endfacet
   facet normal 0.000000E+0 -6.645616E-1 -7.472335E-1
      outer loop
         vertex 1.592000E+3 1.035346E+2 1.435590E+2
         vertex 1.592000E+3 1.037385E+2 1.433776E+2
         vertex 1.597000E+3 1.035346E+2 1.435590E+2
      endloop
   endfacet
   facet normal 0.000000E+0 -6.645616E-1 -7.472335E-1
      outer loop
         vertex 1.592000E+3 1.037385E+2 1.433776E+2
         vertex 1.597000E+3 1.037385E+2 1.433776E+2
         vertex 1.597000E+3 1.035346E+2 1.435590E+2
      endloop
   endfacet
   facet normal 0.000000E+0 -5.565950E-1 -8.307839E-1
      outer loop
         vertex 1.592000E+3 1.033078E+2 1.437109E+2
         vertex 1.592000E+3 1.035346E+2 1.435590E+2
         vertex 1.597000E+3 1.033078E+2 1.437109E+2
      endloop
   endfacet
   facet normal 0.000000E+0 -5.565950E-1 -8.307839E-1
      outer loop
         vertex 1.592000E+3 1.035346E+2 1.435590E+2
         vertex 1.597000E+3 1.035346E+2 1.435590E+2
         vertex 1.597000E+3 1.033078E+2 1.437109E+2
      endloop
   endfacet
   facet normal 0.000000E+0 -4.382584E-1 -8.988490E-1
      outer loop
         vertex 1.592000E+3 1.030624E+2 1.438306E+2
         vertex 1.592000E+3 1.033078E+2 1.437109E+2
         vertex 1.597000E+3 1.030624E+2 1.438306E+2
      endloop
   endfacet
   facet normal 0.000000E+0 -4.382584E-1 -8.988490E-1
      outer loop
         vertex 1.592000E+3 1.033078E+2 1.437109E+2
         vertex 1.597000E+3 1.033078E+2 1.437109E+2
         vertex 1.597000E+3 1.030624E+2 1.438306E+2
      endloop
   endfacet
   facet normal 0.000000E+0 -3.118055E-1 -9.501460E-1
      outer loop
         vertex 1.592000E+3 1.028031E+2 1.439157E+2
         vertex 1.592000E+3 1.030624E+2 1.438306E+2
         vertex 1.597000E+3 1.028031E+2 1.439157E+2
      endloop
   endfacet
   facet normal 0.000000E+0 -3.118055E-1 -9.501460E-1
      outer loop
         vertex 1.592000E+3 1.030624E+2 1.438306E+2
         vertex 1.597000E+3 1.030624E+2 1.438306E+2
         vertex 1.597000E+3 1.028031E+2 1.439157E+2
      endloop
   endfacet
   facet normal 0.000000E+0 -1.795445E-1 -9.837498E-1
      outer loop
         vertex 1.592000E+3 1.025345E+2 1.439647E+2
         vertex 1.592000E+3 1.028031E+2 1.439157E+2
         vertex 1.597000E+3 1.025345E+2 1.439647E+2
      endloop
   endfacet
   facet normal 0.000000E+0 -1.795445E-1 -9.837498E-1
      outer loop
         vertex 1.592000E+3 1.028031E+2 1.439157E+2
         vertex 1.597000E+3 1.028031E+2 1.439157E+2
         vertex 1.597000E+3 1.025345E+2 1.439647E+2
      endloop
   endfacet
   facet normal 0.000000E+0 -4.388115E-2 -9.990368E-1
      outer loop
         vertex 1.592000E+3 1.022618E+2 1.439767E+2
         vertex 1.592000E+3 1.025345E+2 1.439647E+2
         vertex 1.597000E+3 1.022618E+2 1.439767E+2
      endloop
   endfacet
   facet normal 0.000000E+0 -4.388115E-2 -9.990368E-1
      outer loop
         vertex 1.592000E+3 1.025345E+2 1.439647E+2
         vertex 1.597000E+3 1.025345E+2 1.439647E+2
         vertex 1.597000E+3 1.022618E+2 1.439767E+2
      endloop
   endfacet
   facet normal 0.000000E+0 9.251381E-2 -9.957114E-1
      outer loop
         vertex 1.592000E+3 1.019900E+2 1.439514E+2
         vertex 1.592000E+3 1.022618E+2 1.439767E+2
         vertex 1.597000E+3 1.019900E+2 1.439514E+2
      endloop
   endfacet
   facet normal 0.000000E+0 9.251381E-2 -9.957114E-1
      outer loop
         vertex 1.592000E+3 1.022618E+2 1.439767E+2
         vertex 1.597000E+3 1.022618E+2 1.439767E+2
         vertex 1.597000E+3 1.019900E+2 1.439514E+2
      endloop
   endfacet
   facet normal 0.000000E+0 2.272879E-1 -9.738276E-1
      outer loop
         vertex 1.592000E+3 1.017242E+2 1.438894E+2
         vertex 1.592000E+3 1.019900E+2 1.439514E+2
         vertex 1.597000E+3 1.017242E+2 1.438894E+2
      endloop
   endfacet
   facet normal 0.000000E+0 2.272879E-1 -9.738276E-1
      outer loop
         vertex 1.592000E+3 1.019900E+2 1.439514E+2
         vertex 1.597000E+3 1.019900E+2 1.439514E+2
         vertex 1.597000E+3 1.017242E+2 1.438894E+2
      endloop
   endfacet
   facet normal 0.000000E+0 3.577520E-1 -9.338167E-1
      outer loop
         vertex 1.592000E+3 1.014693E+2 1.437917E+2
         vertex 1.592000E+3 1.017242E+2 1.438894E+2
         vertex 1.597000E+3 1.014693E+2 1.437917E+2
      endloop
   endfacet
   facet normal 0.000000E+0 3.577520E-1 -9.338167E-1
      outer loop
         vertex 1.592000E+3 1.017242E+2 1.438894E+2
         vertex 1.597000E+3 1.017242E+2 1.438894E+2
         vertex 1.597000E+3 1.014693E+2 1.437917E+2
      endloop
   endfacet
   facet normal 0.000000E+0 4.815679E-1 -8.764088E-1
      outer loop
         vertex 1.592000E+3 1.012301E+2 1.436603E+2
         vertex 1.592000E+3 1.014693E+2 1.437917E+2
         vertex 1.597000E+3 1.012301E+2 1.436603E+2
      endloop
   endfacet
   facet normal 0.000000E+0 4.815679E-1 -8.764088E-1
      outer loop
         vertex 1.592000E+3 1.014693E+2 1.437917E+2
         vertex 1.597000E+3 1.014693E+2 1.437917E+2
         vertex 1.597000E+3 1.012301E+2 1.436603E+2
      endloop
   endfacet
   facet normal 0.000000E+0 5.964434E-1 -8.026552E-1
      outer loop
         vertex 1.592000E+3 1.012301E+2 1.436603E+2
         vertex 1.597000E+3 1.012301E+2 1.436603E+2
         vertex 1.597000E+3 1.010110E+2 1.434975E+2
      endloop
   endfacet
   facet normal 0.000000E+0 5.964434E-1 -8.026552E-1
      outer loop
         vertex 1.592000E+3 1.010110E+2 1.434975E+2
         vertex 1.592000E+3 1.012301E+2 1.436603E+2
         vertex 1.597000E+3 1.010110E+2 1.434975E+2
      endloop
   endfacet
   facet normal 0.000000E+0 7.001552E-1 -7.139906E-1
      outer loop
         vertex 1.592000E+3 1.010110E+2 1.434975E+2
         vertex 1.597000E+3 1.010110E+2 1.434975E+2
         vertex 1.597000E+3 1.008161E+2 1.433063E+2
      endloop
   endfacet
   facet normal 0.000000E+0 7.001552E-1 -7.139906E-1
      outer loop
         vertex 1.592000E+3 1.008161E+2 1.433063E+2
         vertex 1.592000E+3 1.010110E+2 1.434975E+2
         vertex 1.597000E+3 1.008161E+2 1.433063E+2
      endloop
   endfacet
   facet normal 0.000000E+0 7.908533E-1 -6.120058E-1
      outer loop
         vertex 1.592000E+3 1.008161E+2 1.433063E+2
         vertex 1.597000E+3 1.008161E+2 1.433063E+2
         vertex 1.597000E+3 1.006490E+2 1.430905E+2
      endloop
   endfacet
   facet normal 0.000000E+0 7.908533E-1 -6.120058E-1
      outer loop
         vertex 1.592000E+3 1.006490E+2 1.430905E+2
         vertex 1.592000E+3 1.008161E+2 1.433063E+2
         vertex 1.597000E+3 1.006490E+2 1.430905E+2
      endloop
   endfacet
   facet normal 0.000000E+0 8.668344E-1 -4.985961E-1
      outer loop
         vertex 1.592000E+3 1.006490E+2 1.430905E+2
         vertex 1.597000E+3 1.006490E+2 1.430905E+2
         vertex 1.597000E+3 1.005129E+2 1.428538E+2
      endloop
   endfacet
   facet normal 0.000000E+0 8.668344E-1 -4.985961E-1
      outer loop
         vertex 1.592000E+3 1.005129E+2 1.428538E+2
         vertex 1.592000E+3 1.006490E+2 1.430905E+2
         vertex 1.597000E+3 1.005129E+2 1.428538E+2
      endloop
   endfacet
   facet normal 0.000000E+0 9.266499E-1 -3.759257E-1
      outer loop
         vertex 1.592000E+3 1.005129E+2 1.428538E+2
         vertex 1.597000E+3 1.005129E+2 1.428538E+2
         vertex 1.597000E+3 1.004103E+2 1.426009E+2
      endloop
   endfacet
   facet normal 0.000000E+0 9.266499E-1 -3.759257E-1
      outer loop
         vertex 1.592000E+3 1.004103E+2 1.426009E+2
         vertex 1.592000E+3 1.005129E+2 1.428538E+2
         vertex 1.597000E+3 1.004103E+2 1.426009E+2
      endloop
   endfacet
   facet normal 0.000000E+0 9.692115E-1 -2.462297E-1
      outer loop
         vertex 1.592000E+3 1.004103E+2 1.426009E+2
         vertex 1.597000E+3 1.004103E+2 1.426009E+2
         vertex 1.597000E+3 1.003431E+2 1.423363E+2
      endloop
   endfacet
   facet normal 0.000000E+0 9.692115E-1 -2.462297E-1
      outer loop
         vertex 1.592000E+3 1.003431E+2 1.423363E+2
         vertex 1.592000E+3 1.004103E+2 1.426009E+2
         vertex 1.597000E+3 1.003431E+2 1.423363E+2
      endloop
   endfacet
   facet normal 0.000000E+0 9.937122E-1 -1.119652E-1
      outer loop
         vertex 1.592000E+3 1.003431E+2 1.423363E+2
         vertex 1.597000E+3 1.003431E+2 1.423363E+2
         vertex 1.597000E+3 1.003125E+2 1.420651E+2
      endloop
   endfacet
   facet normal 0.000000E+0 9.937122E-1 -1.119652E-1
      outer loop
         vertex 1.592000E+3 1.003125E+2 1.420651E+2
         vertex 1.592000E+3 1.003431E+2 1.423363E+2
         vertex 1.597000E+3 1.003125E+2 1.420651E+2
      endloop
   endfacet
   facet normal -0.000000E+0 9.997029E-1 2.437209E-2
      outer loop
         vertex 1.592000E+3 1.003125E+2 1.420651E+2
         vertex 1.597000E+3 1.003125E+2 1.420651E+2
         vertex 1.597000E+3 1.003192E+2 1.417922E+2
      endloop
   endfacet
   facet normal -0.000000E+0 9.997029E-1 2.437209E-2
      outer loop
         vertex 1.592000E+3 1.003192E+2 1.417922E+2
         vertex 1.592000E+3 1.003125E+2 1.420651E+2
         vertex 1.597000E+3 1.003192E+2 1.417922E+2
      endloop
   endfacet
   facet normal -0.000000E+0 9.870742E-1 1.602640E-1
      outer loop
         vertex 1.592000E+3 1.003192E+2 1.417922E+2
         vertex 1.597000E+3 1.003192E+2 1.417922E+2
         vertex 1.597000E+3 1.003629E+2 1.415227E+2
      endloop
   endfacet
   facet normal -0.000000E+0 9.870742E-1 1.602640E-1
      outer loop
         vertex 1.592000E+3 1.003629E+2 1.415227E+2
         vertex 1.592000E+3 1.003192E+2 1.417922E+2
         vertex 1.597000E+3 1.003629E+2 1.415227E+2
      endloop
   endfacet
   facet normal -0.000000E+0 9.560530E-1 2.931941E-1
      outer loop
         vertex 1.592000E+3 1.004429E+2 1.412618E+2
         vertex 1.592000E+3 1.003629E+2 1.415227E+2
         vertex 1.597000E+3 1.004429E+2 1.412618E+2
      endloop
   endfacet
   facet normal -0.000000E+0 9.560530E-1 2.931941E-1
      outer loop
         vertex 1.592000E+3 1.003629E+2 1.415227E+2
         vertex 1.597000E+3 1.003629E+2 1.415227E+2
         vertex 1.597000E+3 1.004429E+2 1.412618E+2
      endloop
   endfacet
   facet normal -0.000000E+0 9.072300E-1 4.206350E-1
      outer loop
         vertex 1.592000E+3 1.005578E+2 1.410141E+2
         vertex 1.592000E+3 1.004429E+2 1.412618E+2
         vertex 1.597000E+3 1.005578E+2 1.410141E+2
      endloop
   endfacet
   facet normal -0.000000E+0 9.072300E-1 4.206350E-1
      outer loop
         vertex 1.592000E+3 1.004429E+2 1.412618E+2
         vertex 1.597000E+3 1.004429E+2 1.412618E+2
         vertex 1.597000E+3 1.005578E+2 1.410141E+2
      endloop
   endfacet
   facet normal -0.000000E+0 8.414980E-1 5.402603E-1
      outer loop
         vertex 1.592000E+3 1.007052E+2 1.407844E+2
         vertex 1.592000E+3 1.005578E+2 1.410141E+2
         vertex 1.597000E+3 1.007052E+2 1.407844E+2
      endloop
   endfacet
   facet normal -0.000000E+0 8.414980E-1 5.402603E-1
      outer loop
         vertex 1.592000E+3 1.005578E+2 1.410141E+2
         vertex 1.597000E+3 1.005578E+2 1.410141E+2
         vertex 1.597000E+3 1.007052E+2 1.407844E+2
      endloop
   endfacet
   facet normal -0.000000E+0 7.600728E-1 6.498380E-1
      outer loop
         vertex 1.592000E+3 1.008826E+2 1.405769E+2
         vertex 1.592000E+3 1.007052E+2 1.407844E+2
         vertex 1.597000E+3 1.008826E+2 1.405769E+2
      endloop
   endfacet
   facet normal -0.000000E+0 7.600728E-1 6.498380E-1
      outer loop
         vertex 1.592000E+3 1.007052E+2 1.407844E+2
         vertex 1.597000E+3 1.007052E+2 1.407844E+2
         vertex 1.597000E+3 1.008826E+2 1.405769E+2
      endloop
   endfacet
   facet normal -0.000000E+0 6.645304E-1 7.472613E-1
      outer loop
         vertex 1.592000E+3 1.010866E+2 1.403955E+2
         vertex 1.592000E+3 1.008826E+2 1.405769E+2
         vertex 1.597000E+3 1.010866E+2 1.403955E+2
      endloop
   endfacet
   facet normal -0.000000E+0 6.645304E-1 7.472613E-1
      outer loop
         vertex 1.592000E+3 1.008826E+2 1.405769E+2
         vertex 1.597000E+3 1.008826E+2 1.405769E+2
         vertex 1.597000E+3 1.010866E+2 1.403955E+2
      endloop
   endfacet
   facet normal -0.000000E+0 5.565950E-1 8.307839E-1
      outer loop
         vertex 1.592000E+3 1.013134E+2 1.402436E+2
         vertex 1.592000E+3 1.010866E+2 1.403955E+2
         vertex 1.597000E+3 1.013134E+2 1.402436E+2
      endloop
   endfacet
   facet normal -0.000000E+0 5.565950E-1 8.307839E-1
      outer loop
         vertex 1.592000E+3 1.010866E+2 1.403955E+2
         vertex 1.597000E+3 1.010866E+2 1.403955E+2
         vertex 1.597000E+3 1.013134E+2 1.402436E+2
      endloop
   endfacet
   facet normal -0.000000E+0 4.383036E-1 8.988270E-1
      outer loop
         vertex 1.592000E+3 1.015587E+2 1.401240E+2
         vertex 1.592000E+3 1.013134E+2 1.402436E+2
         vertex 1.597000E+3 1.015587E+2 1.401240E+2
      endloop
   endfacet
   facet normal -0.000000E+0 4.383036E-1 8.988270E-1
      outer loop
         vertex 1.592000E+3 1.013134E+2 1.402436E+2
         vertex 1.597000E+3 1.013134E+2 1.402436E+2
         vertex 1.597000E+3 1.015587E+2 1.401240E+2
      endloop
   endfacet
   facet normal -0.000000E+0 3.118055E-1 9.501460E-1
      outer loop
         vertex 1.592000E+3 1.018181E+2 1.400388E+2
         vertex 1.592000E+3 1.015587E+2 1.401240E+2
         vertex 1.597000E+3 1.018181E+2 1.400388E+2
      endloop
   endfacet
   facet normal -0.000000E+0 3.118055E-1 9.501460E-1
      outer loop
         vertex 1.592000E+3 1.015587E+2 1.401240E+2
         vertex 1.597000E+3 1.015587E+2 1.401240E+2
         vertex 1.597000E+3 1.018181E+2 1.400388E+2
      endloop
   endfacet
   facet normal -0.000000E+0 1.795495E-1 9.837489E-1
      outer loop
         vertex 1.592000E+3 1.020866E+2 1.399898E+2
         vertex 1.592000E+3 1.018181E+2 1.400388E+2
         vertex 1.597000E+3 1.020866E+2 1.399898E+2
      endloop
   endfacet
   facet normal -0.000000E+0 1.795495E-1 9.837489E-1
      outer loop
         vertex 1.592000E+3 1.018181E+2 1.400388E+2
         vertex 1.597000E+3 1.018181E+2 1.400388E+2
         vertex 1.597000E+3 1.020866E+2 1.399898E+2
      endloop
   endfacet
   facet normal -0.000000E+0 4.387992E-2 9.990368E-1
      outer loop
         vertex 1.592000E+3 1.023593E+2 1.399779E+2
         vertex 1.592000E+3 1.020866E+2 1.399898E+2
         vertex 1.597000E+3 1.023593E+2 1.399779E+2
      endloop
   endfacet
   facet normal -0.000000E+0 4.387992E-2 9.990368E-1
      outer loop
         vertex 1.592000E+3 1.020866E+2 1.399898E+2
         vertex 1.597000E+3 1.020866E+2 1.399898E+2
         vertex 1.597000E+3 1.023593E+2 1.399779E+2
      endloop
   endfacet
   facet normal 0.000000E+0 -9.256924E-2 9.957063E-1
      outer loop
         vertex 1.592000E+3 1.026311E+2 1.400031E+2
         vertex 1.592000E+3 1.023593E+2 1.399779E+2
         vertex 1.597000E+3 1.026311E+2 1.400031E+2
      endloop
   endfacet
   facet normal 0.000000E+0 -9.256924E-2 9.957063E-1
      outer loop
         vertex 1.592000E+3 1.023593E+2 1.399779E+2
         vertex 1.597000E+3 1.023593E+2 1.399779E+2
         vertex 1.597000E+3 1.026311E+2 1.400031E+2
      endloop
   endfacet
endsolid 110