solid 114
   facet normal 0.000000E+0 -2.272848E-1 9.738283E-1
      outer loop
         vertex 1.592000E+3 2.848819E+1 1.444521E+2
         vertex 1.592000E+3 2.822236E+1 1.443901E+2
         vertex 1.597000E+3 2.848819E+1 1.444521E+2
      endloop
   endfacet
   facet normal 0.000000E+0 -2.272848E-1 9.738283E-1
      outer loop
         vertex 1.592000E+3 2.822236E+1 1.443901E+2
         vertex 1.597000E+3 2.822236E+1 1.443901E+2
         vertex 1.597000E+3 2.848819E+1 1.444521E+2
      endloop
   endfacet
   facet normal 0.000000E+0 -3.577543E-1 9.338157E-1
      outer loop
         vertex 1.592000E+3 2.848819E+1 1.444521E+2
         vertex 1.597000E+3 2.848819E+1 1.444521E+2
         vertex 1.597000E+3 2.874309E+1 1.445498E+2
      endloop
   endfacet
   facet normal 0.000000E+0 -3.577543E-1 9.338157E-1
      outer loop
         vertex 1.592000E+3 2.874309E+1 1.445498E+2
         vertex 1.592000E+3 2.848819E+1 1.444521E+2
         vertex 1.597000E+3 2.874309E+1 1.445498E+2
      endloop
   endfacet
   facet normal 0.000000E+0 -4.815738E-1 8.764055E-1
      outer loop
         vertex 1.592000E+3 2.898232E+1 1.446812E+2
         vertex 1.592000E+3 2.874309E+1 1.445498E+2
         vertex 1.597000E+3 2.898232E+1 1.446812E+2
      endloop
   endfacet
   facet normal 0.000000E+0 -4.815738E-1 8.764055E-1
      outer loop
         vertex 1.592000E+3 2.874309E+1 1.445498E+2
         vertex 1.597000E+3 2.874309E+1 1.445498E+2
         vertex 1.597000E+3 2.898232E+1 1.446812E+2
      endloop
   endfacet
   facet normal 0.000000E+0 -5.964006E-1 8.026869E-1
      outer loop
         vertex 1.592000E+3 2.920143E+1 1.448440E+2
         vertex 1.592000E+3 2.898232E+1 1.446812E+2
         vertex 1.597000E+3 2.920143E+1 1.448440E+2
      endloop
   endfacet
   facet normal 0.000000E+0 -5.964006E-1 8.026869E-1
      outer loop
         vertex 1.592000E+3 2.898232E+1 1.446812E+2
         vertex 1.597000E+3 2.898232E+1 1.446812E+2
         vertex 1.597000E+3 2.920143E+1 1.448440E+2
      endloop
   endfacet
   facet normal 0.000000E+0 -7.001802E-1 7.139661E-1
      outer loop
         vertex 1.592000E+3 2.939632E+1 1.450352E+2
         vertex 1.592000E+3 2.920143E+1 1.448440E+2
         vertex 1.597000E+3 2.939632E+1 1.450352E+2
      endloop
   endfacet
   facet normal 0.000000E+0 -7.001802E-1 7.139661E-1
      outer loop
         vertex 1.592000E+3 2.920143E+1 1.448440E+2
         vertex 1.597000E+3 2.920143E+1 1.448440E+2
         vertex 1.597000E+3 2.939632E+1 1.450352E+2
      endloop
   endfacet
   facet normal 0.000000E+0 -7.908635E-1 6.119927E-1
      outer loop
         vertex 1.592000E+3 2.956338E+1 1.452511E+2
         vertex 1.592000E+3 2.939632E+1 1.450352E+2
         vertex 1.597000E+3 2.956338E+1 1.452511E+2
      endloop
   endfacet
   facet normal 0.000000E+0 -7.908635E-1 6.119927E-1
      outer loop
         vertex 1.592000E+3 2.939632E+1 1.450352E+2
         vertex 1.597000E+3 2.939632E+1 1.450352E+2
         vertex 1.597000E+3 2.956338E+1 1.452511E+2
      endloop
   endfacet
   facet normal 0.000000E+0 -8.668314E-1 4.986013E-1
      outer loop
         vertex 1.592000E+3 2.969948E+1 1.454877E+2
         vertex 1.592000E+3 2.956338E+1 1.452511E+2
         vertex 1.597000E+3 2.969948E+1 1.454877E+2
      endloop
   endfacet
   facet normal 0.000000E+0 -8.668314E-1 4.986013E-1
      outer loop
         vertex 1.592000E+3 2.956338E+1 1.452511E+2
         vertex 1.597000E+3 2.956338E+1 1.452511E+2
         vertex 1.597000E+3 2.969948E+1 1.454877E+2
      endloop
   endfacet
   facet normal 0.000000E+0 -9.266499E-1 3.759257E-1
      outer loop
         vertex 1.592000E+3 2.980210E+1 1.457406E+2
         vertex 1.592000E+3 2.969948E+1 1.454877E+2
         vertex 1.597000E+3 2.980210E+1 1.457406E+2
      endloop
   endfacet
   facet normal 0.000000E+0 -9.266499E-1 3.759257E-1
      outer loop
         vertex 1.592000E+3 2.969948E+1 1.454877E+2
         vertex 1.597000E+3 2.969948E+1 1.454877E+2
         vertex 1.597000E+3 2.980210E+1 1.457406E+2
      endloop
   endfacet
   facet normal 0.000000E+0 -9.692115E-1 2.462297E-1
      outer loop
         vertex 1.592000E+3 2.986931E+1 1.460052E+2
         vertex 1.592000E+3 2.980210E+1 1.457406E+2
         vertex 1.597000E+3 2.986931E+1 1.460052E+2
      endloop
   endfacet
   facet normal 0.000000E+0 -9.692115E-1 2.462297E-1
      outer loop
         vertex 1.592000E+3 2.980210E+1 1.457406E+2
         vertex 1.597000E+3 2.980210E+1 1.457406E+2
         vertex 1.597000E+3 2.986931E+1 1.460052E+2
      endloop
   endfacet
   facet normal 0.000000E+0 -9.937099E-1 1.119852E-1
      outer loop
         vertex 1.592000E+3 2.989988E+1 1.462764E+2
         vertex 1.592000E+3 2.986931E+1 1.460052E+2
         vertex 1.597000E+3 2.989988E+1 1.462764E+2
      endloop
   endfacet
   facet normal 0.000000E+0 -9.937099E-1 1.119852E-1
      outer loop
         vertex 1.592000E+3 2.986931E+1 1.460052E+2
         vertex 1.597000E+3 2.986931E+1 1.460052E+2
         vertex 1.597000E+3 2.989988E+1 1.462764E+2
      endloop
   endfacet
   facet normal 0.000000E+0 -9.997028E-1 -2.437907E-2
      outer loop
         vertex 1.592000E+3 2.989322E+1 1.465493E+2
         vertex 1.592000E+3 2.989988E+1 1.462764E+2
         vertex 1.597000E+3 2.989322E+1 1.465493E+2
      endloop
   endfacet
   facet normal 0.000000E+0 -9.997028E-1 -2.437907E-2
      outer loop
         vertex 1.592000E+3 2.989988E+1 1.462764E+2
         vertex 1.597000E+3 2.989988E+1 1.462764E+2
         vertex 1.597000E+3 2.989322E+1 1.465493E+2
      endloop
   endfacet
   facet normal 0.000000E+0 -9.870719E-1 -1.602776E-1
      outer loop
         vertex 1.592000E+3 2.984947E+1 1.468188E+2
         vertex 1.592000E+3 2.989322E+1 1.465493E+2
         vertex 1.597000E+3 2.984947E+1 1.468188E+2
      endloop
   endfacet
   facet normal 0.000000E+0 -9.870719E-1 -1.602776E-1
      outer loop
         vertex 1.592000E+3 2.989322E+1 1.465493E+2
         vertex 1.597000E+3 2.989322E+1 1.465493E+2
         vertex 1.597000E+3 2.984947E+1 1.468188E+2
      endloop
   endfacet
   facet normal 0.000000E+0 -9.560577E-1 -2.931784E-1
      outer loop
         vertex 1.592000E+3 2.976944E+1 1.470797E+2
         vertex 1.592000E+3 2.984947E+1 1.468188E+2
         vertex 1.597000E+3 2.976944E+1 1.470797E+2
      endloop
   endfacet
   facet normal 0.000000E+0 -9.560577E-1 -2.931784E-1
      outer loop
         vertex 1.592000E+3 2.984947E+1 1.468188E+2
         vertex 1.597000E+3 2.984947E+1 1.468188E+2
         vertex 1.597000E+3 2.976944E+1 1.470797E+2
      endloop
   endfacet
   facet normal 0.000000E+0 -9.072201E-1 -4.206563E-1
      outer loop
         vertex 1.592000E+3 2.965462E+1 1.473274E+2
         vertex 1.592000E+3 2.976944E+1 1.470797E+2
         vertex 1.597000E+3 2.965462E+1 1.473274E+2
      endloop
   endfacet
   facet normal 0.000000E+0 -9.072201E-1 -4.206563E-1
      outer loop
         vertex 1.592000E+3 2.976944E+1 1.470797E+2
         vertex 1.597000E+3 2.976944E+1 1.470797E+2
         vertex 1.597000E+3 2.965462E+1 1.473274E+2
      endloop
   endfacet
   facet normal 0.000000E+0 -8.415012E-1 -5.402553E-1
      outer loop
         vertex 1.592000E+3 2.950714E+1 1.475571E+2
         vertex 1.592000E+3 2.965462E+1 1.473274E+2
         vertex 1.597000E+3 2.950714E+1 1.475571E+2
      endloop
   endfacet
   facet normal 0.000000E+0 -8.415012E-1 -5.402553E-1
      outer loop
         vertex 1.592000E+3 2.965462E+1 1.473274E+2
         vertex 1.597000E+3 2.965462E+1 1.473274E+2
         vertex 1.597000E+3 2.950714E+1 1.475571E+2
      endloop
   endfacet
   facet normal 0.000000E+0 -7.601033E-1 -6.498023E-1
      outer loop
         vertex 1.592000E+3 2.932977E+1 1.477646E+2
         vertex 1.592000E+3 2.950714E+1 1.475571E+2
         vertex 1.597000E+3 2.932977E+1 1.477646E+2
      endloop
   endfacet
   facet normal 0.000000E+0 -7.601033E-1 -6.498023E-1
      outer loop
         vertex 1.592000E+3 2.950714E+1 1.475571E+2
         vertex 1.597000E+3 2.950714E+1 1.475571E+2
         vertex 1.597000E+3 2.932977E+1 1.477646E+2
      endloop
   endfacet
   facet normal 0.000000E+0 -6.645304E-1 -7.472613E-1
      outer loop
         vertex 1.592000E+3 2.912579E+1 1.479460E+2
         vertex 1.592000E+3 2.932977E+1 1.477646E+2
         vertex 1.597000E+3 2.912579E+1 1.479460E+2
      endloop
   endfacet
   facet normal 0.000000E+0 -6.645304E-1 -7.472613E-1
      outer loop
         vertex 1.592000E+3 2.932977E+1 1.477646E+2
         vertex 1.597000E+3 2.932977E+1 1.477646E+2
         vertex 1.597000E+3 2.912579E+1 1.479460E+2
      endloop
   endfacet
   facet normal 0.000000E+0 -5.565918E-1 -8.307861E-1
      outer loop
         vertex 1.592000E+3 2.889901E+1 1.480979E+2
         vertex 1.592000E+3 2.912579E+1 1.479460E+2
         vertex 1.597000E+3 2.889901E+1 1.480979E+2
      endloop
   endfacet
   facet normal 0.000000E+0 -5.565918E-1 -8.307861E-1
      outer loop
         vertex 1.592000E+3 2.912579E+1 1.479460E+2
         vertex 1.597000E+3 2.912579E+1 1.479460E+2
         vertex 1.597000E+3 2.889901E+1 1.480979E+2
      endloop
   endfacet
   facet normal 0.000000E+0 -4.382557E-1 -8.988503E-1
      outer loop
         vertex 1.592000E+3 2.865365E+1 1.482175E+2
         vertex 1.592000E+3 2.889901E+1 1.480979E+2
         vertex 1.597000E+3 2.865365E+1 1.482175E+2
      endloop
   endfacet
   facet normal 0.000000E+0 -4.382557E-1 -8.988503E-1
      outer loop
         vertex 1.592000E+3 2.889901E+1 1.480979E+2
         vertex 1.597000E+3 2.889901E+1 1.480979E+2
         vertex 1.597000E+3 2.865365E+1 1.482175E+2
      endloop
   endfacet
   facet normal 0.000000E+0 -3.118560E-1 -9.501294E-1
      outer loop
         vertex 1.592000E+3 2.839429E+1 1.483027E+2
         vertex 1.592000E+3 2.865365E+1 1.482175E+2
         vertex 1.597000E+3 2.839429E+1 1.483027E+2
      endloop
   endfacet
   facet normal 0.000000E+0 -3.118560E-1 -9.501294E-1
      outer loop
         vertex 1.592000E+3 2.865365E+1 1.482175E+2
         vertex 1.597000E+3 2.865365E+1 1.482175E+2
         vertex 1.597000E+3 2.839429E+1 1.483027E+2
      endloop
   endfacet
   facet normal 0.000000E+0 -1.794941E-1 -9.837590E-1
      outer loop
         vertex 1.592000E+3 2.812576E+1 1.483517E+2
         vertex 1.592000E+3 2.839429E+1 1.483027E+2
         vertex 1.597000E+3 2.812576E+1 1.483517E+2
      endloop
   endfacet
   facet normal 0.000000E+0 -1.794941E-1 -9.837590E-1
      outer loop
         vertex 1.592000E+3 2.839429E+1 1.483027E+2
         vertex 1.597000E+3 2.839429E+1 1.483027E+2
         vertex 1.597000E+3 2.812576E+1 1.483517E+2
      endloop
   endfacet
   facet normal 0.000000E+0 -4.393663E-2 -9.990343E-1
      outer loop
         vertex 1.592000E+3 2.785305E+1 1.483636E+2
         vertex 1.592000E+3 2.812576E+1 1.483517E+2
         vertex 1.597000E+3 2.785305E+1 1.483636E+2
      endloop
   endfacet
   facet normal 0.000000E+0 -4.393663E-2 -9.990343E-1
      outer loop
         vertex 1.592000E+3 2.812576E+1 1.483517E+2
         vertex 1.597000E+3 2.812576E+1 1.483517E+2
         vertex 1.597000E+3 2.785305E+1 1.483636E+2
      endloop
   endfacet
   facet normal 0.000000E+0 9.256859E-2 -9.957063E-1
      outer loop
         vertex 1.592000E+3 2.758125E+1 1.483384E+2
         vertex 1.592000E+3 2.785305E+1 1.483636E+2
         vertex 1.597000E+3 2.758125E+1 1.483384E+2
      endloop
   endfacet
   facet normal 0.000000E+0 9.256859E-2 -9.957063E-1
      outer loop
         vertex 1.592000E+3 2.785305E+1 1.483636E+2
         vertex 1.597000E+3 2.785305E+1 1.483636E+2
         vertex 1.597000E+3 2.758125E+1 1.483384E+2
      endloop
   endfacet
   facet normal 0.000000E+0 2.272864E-1 -9.738280E-1
      outer loop
         vertex 1.592000E+3 2.731543E+1 1.482763E+2
         vertex 1.592000E+3 2.758125E+1 1.483384E+2
         vertex 1.597000E+3 2.731543E+1 1.482763E+2
      endloop
   endfacet
   facet normal 0.000000E+0 2.272864E-1 -9.738280E-1
      outer loop
         vertex 1.592000E+3 2.758125E+1 1.483384E+2
         vertex 1.597000E+3 2.758125E+1 1.483384E+2
         vertex 1.597000E+3 2.731543E+1 1.482763E+2
      endloop
   endfacet
   facet normal 0.000000E+0 3.577543E-1 -9.338157E-1
      outer loop
         vertex 1.592000E+3 2.706052E+1 1.481787E+2
         vertex 1.592000E+3 2.731543E+1 1.482763E+2
         vertex 1.597000E+3 2.706052E+1 1.481787E+2
      endloop
   endfacet
   facet normal 0.000000E+0 3.577543E-1 -9.338157E-1
      outer loop
         vertex 1.592000E+3 2.731543E+1 1.482763E+2
         vertex 1.597000E+3 2.731543E+1 1.482763E+2
         vertex 1.597000E+3 2.706052E+1 1.481787E+2
      endloop
   endfacet
   facet normal 0.000000E+0 4.815708E-1 -8.764071E-1
      outer loop
         vertex 1.592000E+3 2.682129E+1 1.480472E+2
         vertex 1.592000E+3 2.706052E+1 1.481787E+2
         vertex 1.597000E+3 2.682129E+1 1.480472E+2
      endloop
   endfacet
   facet normal 0.000000E+0 4.815708E-1 -8.764071E-1
      outer loop
         vertex 1.592000E+3 2.706052E+1 1.481787E+2
         vertex 1.597000E+3 2.706052E+1 1.481787E+2
         vertex 1.597000E+3 2.682129E+1 1.480472E+2
      endloop
   endfacet
   facet normal 0.000000E+0 5.964006E-1 -8.026869E-1
      outer loop
         vertex 1.592000E+3 2.682129E+1 1.480472E+2
         vertex 1.597000E+3 2.682129E+1 1.480472E+2
         vertex 1.597000E+3 2.660218E+1 1.478844E+2
      endloop
   endfacet
   facet normal 0.000000E+0 5.964006E-1 -8.026869E-1
      outer loop
         vertex 1.592000E+3 2.660218E+1 1.478844E+2
         vertex 1.592000E+3 2.682129E+1 1.480472E+2
         vertex 1.597000E+3 2.660218E+1 1.478844E+2
      endloop
   endfacet
   facet normal 0.000000E+0 7.001802E-1 -7.139661E-1
      outer loop
         vertex 1.592000E+3 2.660218E+1 1.478844E+2
         vertex 1.597000E+3 2.660218E+1 1.478844E+2
         vertex 1.597000E+3 2.640729E+1 1.476933E+2
      endloop
   endfacet
   facet normal 0.000000E+0 7.001802E-1 -7.139661E-1
      outer loop
         vertex 1.592000E+3 2.640729E+1 1.476933E+2
         vertex 1.592000E+3 2.660218E+1 1.478844E+2
         vertex 1.597000E+3 2.640729E+1 1.476933E+2
      endloop
   endfacet
   facet normal 0.000000E+0 7.908669E-1 -6.119883E-1
      outer loop
         vertex 1.592000E+3 2.640729E+1 1.476933E+2
         vertex 1.597000E+3 2.640729E+1 1.476933E+2
         vertex 1.597000E+3 2.624024E+1 1.474774E+2
      endloop
   endfacet
   facet normal 0.000000E+0 7.908669E-1 -6.119883E-1
      outer loop
         vertex 1.592000E+3 2.624024E+1 1.474774E+2
         vertex 1.592000E+3 2.640729E+1 1.476933E+2
         vertex 1.597000E+3 2.624024E+1 1.474774E+2
      endloop
   endfacet
   facet normal 0.000000E+0 8.668314E-1 -4.986013E-1
      outer loop
         vertex 1.592000E+3 2.624024E+1 1.474774E+2
         vertex 1.597000E+3 2.624024E+1 1.474774E+2
         vertex 1.597000E+3 2.610413E+1 1.472408E+2
      endloop
   endfacet
   facet normal 0.000000E+0 8.668314E-1 -4.986013E-1
      outer loop
         vertex 1.592000E+3 2.610413E+1 1.472408E+2
         vertex 1.592000E+3 2.624024E+1 1.474774E+2
         vertex 1.597000E+3 2.610413E+1 1.472408E+2
      endloop
   endfacet
   facet normal 0.000000E+0 9.266499E-1 -3.759257E-1
      outer loop
         vertex 1.592000E+3 2.610413E+1 1.472408E+2
         vertex 1.597000E+3 2.610413E+1 1.472408E+2
         vertex 1.597000E+3 2.600152E+1 1.469879E+2
      endloop
   endfacet
   facet normal 0.000000E+0 9.266499E-1 -3.759257E-1
      outer loop
         vertex 1.592000E+3 2.600152E+1 1.469879E+2
         vertex 1.592000E+3 2.610413E+1 1.472408E+2
         vertex 1.597000E+3 2.600152E+1 1.469879E+2
      endloop
   endfacet
   facet normal 0.000000E+0 9.692098E-1 -2.462362E-1
      outer loop
         vertex 1.592000E+3 2.600152E+1 1.469879E+2
         vertex 1.597000E+3 2.600152E+1 1.469879E+2
         vertex 1.597000E+3 2.593430E+1 1.467233E+2
      endloop
   endfacet
   facet normal 0.000000E+0 9.692098E-1 -2.462362E-1
      outer loop
         vertex 1.592000E+3 2.593430E+1 1.467233E+2
         vertex 1.592000E+3 2.600152E+1 1.469879E+2
         vertex 1.597000E+3 2.593430E+1 1.467233E+2
      endloop
   endfacet
   facet normal 0.000000E+0 9.937106E-1 -1.119783E-1
      outer loop
         vertex 1.592000E+3 2.593430E+1 1.467233E+2
         vertex 1.597000E+3 2.593430E+1 1.467233E+2
         vertex 1.597000E+3 2.590374E+1 1.464520E+2
      endloop
   endfacet
   facet normal 0.000000E+0 9.937106E-1 -1.119783E-1
      outer loop
         vertex 1.592000E+3 2.590374E+1 1.464520E+2
         vertex 1.592000E+3 2.593430E+1 1.467233E+2
         vertex 1.597000E+3 2.590374E+1 1.464520E+2
      endloop
   endfacet
   facet normal -0.000000E+0 9.997029E-1 2.437209E-2
      outer loop
         vertex 1.592000E+3 2.590374E+1 1.464520E+2
         vertex 1.597000E+3 2.590374E+1 1.464520E+2
         vertex 1.597000E+3 2.591039E+1 1.461792E+2
      endloop
   endfacet
   facet normal -0.000000E+0 9.997029E-1 2.437209E-2
      outer loop
         vertex 1.592000E+3 2.591039E+1 1.461792E+2
         vertex 1.592000E+3 2.590374E+1 1.464520E+2
         vertex 1.597000E+3 2.591039E+1 1.461792E+2
      endloop
   endfacet
   facet normal -0.000000E+0 9.870708E-1 1.602844E-1
      outer loop
         vertex 1.592000E+3 2.591039E+1 1.461792E+2
         vertex 1.597000E+3 2.591039E+1 1.461792E+2
         vertex 1.597000E+3 2.595414E+1 1.459097E+2
      endloop
   endfacet
   facet normal -0.000000E+0 9.870708E-1 1.602844E-1
      outer loop
         vertex 1.592000E+3 2.595414E+1 1.459097E+2
         vertex 1.592000E+3 2.591039E+1 1.461792E+2
         vertex 1.597000E+3 2.595414E+1 1.459097E+2
      endloop
   endfacet
   facet normal -0.000000E+0 9.560577E-1 2.931784E-1
      outer loop
         vertex 1.592000E+3 2.603417E+1 1.456487E+2
         vertex 1.592000E+3 2.595414E+1 1.459097E+2
         vertex 1.597000E+3 2.603417E+1 1.456487E+2
      endloop
   endfacet
   facet normal -0.000000E+0 9.560577E-1 2.931784E-1
      outer loop
         vertex 1.592000E+3 2.595414E+1 1.459097E+2
         vertex 1.597000E+3 2.595414E+1 1.459097E+2
         vertex 1.597000E+3 2.603417E+1 1.456487E+2
      endloop
   endfacet
   facet normal -0.000000E+0 9.072201E-1 4.206563E-1
      outer loop
         vertex 1.592000E+3 2.614900E+1 1.454011E+2
         vertex 1.592000E+3 2.603417E+1 1.456487E+2
         vertex 1.597000E+3 2.614900E+1 1.454011E+2
      endloop
   endfacet
   facet normal -0.000000E+0 9.072201E-1 4.206563E-1
      outer loop
         vertex 1.592000E+3 2.603417E+1 1.456487E+2
         vertex 1.597000E+3 2.603417E+1 1.456487E+2
         vertex 1.597000E+3 2.614900E+1 1.454011E+2
      endloop
   endfacet
   facet normal -0.000000E+0 8.415012E-1 5.402553E-1
      outer loop
         vertex 1.592000E+3 2.629647E+1 1.451714E+2
         vertex 1.592000E+3 2.614900E+1 1.454011E+2
         vertex 1.597000E+3 2.629647E+1 1.451714E+2
      endloop
   endfacet
   facet normal -0.000000E+0 8.415012E-1 5.402553E-1
      outer loop
         vertex 1.592000E+3 2.614900E+1 1.454011E+2
         vertex 1.597000E+3 2.614900E+1 1.454011E+2
         vertex 1.597000E+3 2.629647E+1 1.451714E+2
      endloop
   endfacet
   facet normal -0.000000E+0 7.601067E-1 6.497982E-1
      outer loop
         vertex 1.592000E+3 2.647385E+1 1.449639E+2
         vertex 1.592000E+3 2.629647E+1 1.451714E+2
         vertex 1.597000E+3 2.647385E+1 1.449639E+2
      endloop
   endfacet
   facet normal -0.000000E+0 7.601067E-1 6.497982E-1
      outer loop
         vertex 1.592000E+3 2.629647E+1 1.451714E+2
         vertex 1.597000E+3 2.629647E+1 1.451714E+2
         vertex 1.597000E+3 2.647385E+1 1.449639E+2
      endloop
   endfacet
   facet normal -0.000000E+0 6.645304E-1 7.472613E-1
      outer loop
         vertex 1.592000E+3 2.667783E+1 1.447825E+2
         vertex 1.592000E+3 2.647385E+1 1.449639E+2
         vertex 1.597000E+3 2.667783E+1 1.447825E+2
      endloop
   endfacet
   facet normal -0.000000E+0 6.645304E-1 7.472613E-1
      outer loop
         vertex 1.592000E+3 2.647385E+1 1.449639E+2
         vertex 1.597000E+3 2.647385E+1 1.449639E+2
         vertex 1.597000E+3 2.667783E+1 1.447825E+2
      endloop
   endfacet
   facet normal -0.000000E+0 5.565886E-1 8.307883E-1
      outer loop
         vertex 1.592000E+3 2.690461E+1 1.446306E+2
         vertex 1.592000E+3 2.667783E+1 1.447825E+2
         vertex 1.597000E+3 2.690461E+1 1.446306E+2
      endloop
   endfacet
   facet normal -0.000000E+0 5.565886E-1 8.307883E-1
      outer loop
         vertex 1.592000E+3 2.667783E+1 1.447825E+2
         vertex 1.597000E+3 2.667783E+1 1.447825E+2
         vertex 1.597000E+3 2.690461E+1 1.446306E+2
      endloop
   endfacet
   facet normal -0.000000E+0 4.383036E-1 8.988270E-1
      outer loop
         vertex 1.592000E+3 2.714996E+1 1.445109E+2
         vertex 1.592000E+3 2.690461E+1 1.446306E+2
         vertex 1.597000E+3 2.714996E+1 1.445109E+2
      endloop
   endfacet
   facet normal -0.000000E+0 4.383036E-1 8.988270E-1
      outer loop
         vertex 1.592000E+3 2.690461E+1 1.446306E+2
         vertex 1.597000E+3 2.690461E+1 1.446306E+2
         vertex 1.597000E+3 2.714996E+1 1.445109E+2
      endloop
   endfacet
   facet normal -0.000000E+0 3.118055E-1 9.501460E-1
      outer loop
         vertex 1.592000E+3 2.740932E+1 1.444258E+2
         vertex 1.592000E+3 2.714996E+1 1.445109E+2
         vertex 1.597000E+3 2.740932E+1 1.444258E+2
      endloop
   endfacet
   facet normal -0.000000E+0 3.118055E-1 9.501460E-1
      outer loop
         vertex 1.592000E+3 2.714996E+1 1.445109E+2
         vertex 1.597000E+3 2.714996E+1 1.445109E+2
         vertex 1.597000E+3 2.740932E+1 1.444258E+2
      endloop
   endfacet
   facet normal -0.000000E+0 1.794929E-1 9.837593E-1
      outer loop
         vertex 1.592000E+3 2.767786E+1 1.443768E+2
         vertex 1.592000E+3 2.740932E+1 1.444258E+2
         vertex 1.597000E+3 2.767786E+1 1.443768E+2
      endloop
   endfacet
   facet normal -0.000000E+0 1.794929E-1 9.837593E-1
      outer loop
         vertex 1.592000E+3 2.740932E+1 1.444258E+2
         vertex 1.597000E+3 2.740932E+1 1.444258E+2
         vertex 1.597000E+3 2.767786E+1 1.443768E+2
      endloop
   endfacet
   facet normal -0.000000E+0 4.393694E-2 9.990343E-1
      outer loop
         vertex 1.592000E+3 2.795056E+1 1.443648E+2
         vertex 1.592000E+3 2.767786E+1 1.443768E+2
         vertex 1.597000E+3 2.795056E+1 1.443648E+2
      endloop
   endfacet
   facet normal -0.000000E+0 4.393694E-2 9.990343E-1
      outer loop
         vertex 1.592000E+3 2.767786E+1 1.443768E+2
         vertex 1.597000E+3 2.767786E+1 1.443768E+2
         vertex 1.597000E+3 2.795056E+1 1.443648E+2
      endloop
   endfacet
   facet normal 0.000000E+0 -9.256859E-2 9.957063E-1
      outer loop
         vertex 1.592000E+3 2.822236E+1 1.443901E+2
         vertex 1.592000E+3 2.795056E+1 1.443648E+2
         vertex 1.597000E+3 2.822236E+1 1.443901E+2
      endloop
   endfacet
   facet normal 0.000000E+0 -9.256859E-2 9.957063E-1
      outer loop
         vertex 1.592000E+3 2.795056E+1 1.443648E+2
         vertex 1.597000E+3 2.795056E+1 1.443648E+2
         vertex 1.597000E+3 2.822236E+1 1.443901E+2
      endloop
   endfacet
endsolid 114