solid 125
   facet normal -0.000000E+0 -9.592004E-1 -2.827270E-1
      outer loop
         vertex -1.628600E+3 -8.342648E+1 2.284652E+1
         vertex -1.658600E+3 -8.342648E+1 2.284652E+1
         vertex -1.658600E+3 -8.330955E+1 2.244979E+1
      endloop
   endfacet
   facet normal -0.000000E+0 -9.592004E-1 -2.827270E-1
      outer loop
         vertex -1.628600E+3 -8.330955E+1 2.244979E+1
         vertex -1.628600E+3 -8.342648E+1 2.284652E+1
         vertex -1.658600E+3 -8.330955E+1 2.244979E+1
      endloop
   endfacet
   facet normal -0.000000E+0 -8.587562E-1 -5.123844E-1
      outer loop
         vertex -1.628600E+3 -8.309763E+1 2.209461E+1
         vertex -1.658600E+3 -8.330955E+1 2.244979E+1
         vertex -1.658600E+3 -8.309763E+1 2.209461E+1
      endloop
   endfacet
   facet normal -0.000000E+0 -7.043506E-1 -7.098522E-1
      outer loop
         vertex -1.628600E+3 -8.309763E+1 2.209461E+1
         vertex -1.658600E+3 -8.309763E+1 2.209461E+1
         vertex -1.658600E+3 -8.280403E+1 2.180329E+1
      endloop
   endfacet
   facet normal 0.000000E+0 -8.587562E-1 -5.123844E-1
      outer loop
         vertex -1.628600E+3 -8.309763E+1 2.209461E+1
         vertex -1.628600E+3 -8.330955E+1 2.244979E+1
         vertex -1.658600E+3 -8.330955E+1 2.244979E+1
      endloop
   endfacet
   facet normal -0.000000E+0 -5.056878E-1 -8.627166E-1
      outer loop
         vertex -1.628600E+3 -8.280403E+1 2.180329E+1
         vertex -1.658600E+3 -8.280403E+1 2.180329E+1
         vertex -1.658600E+3 -8.244721E+1 2.159414E+1
      endloop
   endfacet
   facet normal -0.000000E+0 -7.043506E-1 -7.098522E-1
      outer loop
         vertex -1.628600E+3 -8.280403E+1 2.180329E+1
         vertex -1.628600E+3 -8.309763E+1 2.209461E+1
         vertex -1.658600E+3 -8.280403E+1 2.180329E+1
      endloop
   endfacet
   facet normal -0.000000E+0 -5.056878E-1 -8.627166E-1
      outer loop
         vertex -1.628600E+3 -8.244721E+1 2.159414E+1
         vertex -1.628600E+3 -8.280403E+1 2.180329E+1
         vertex -1.658600E+3 -8.244721E+1 2.159414E+1
      endloop
   endfacet
   facet normal -0.000000E+0 -2.752528E-1 -9.613719E-1
      outer loop
         vertex -1.628600E+3 -8.204959E+1 2.148030E+1
         vertex -1.658600E+3 -8.244721E+1 2.159414E+1
         vertex -1.658600E+3 -8.204959E+1 2.148030E+1
      endloop
   endfacet
   facet normal -0.000000E+0 -2.751721E-2 -9.996213E-1
      outer loop
         vertex -1.628600E+3 -8.204959E+1 2.148030E+1
         vertex -1.658600E+3 -8.204959E+1 2.148030E+1
         vertex -1.658600E+3 -8.163615E+1 2.146891E+1
      endloop
   endfacet
   facet normal 0.000000E+0 -2.752528E-1 -9.613719E-1
      outer loop
         vertex -1.628600E+3 -8.204959E+1 2.148030E+1
         vertex -1.628600E+3 -8.244721E+1 2.159414E+1
         vertex -1.658600E+3 -8.244721E+1 2.159414E+1
      endloop
   endfacet
   facet normal 0.000000E+0 2.219384E-1 -9.750607E-1
      outer loop
         vertex -1.628600E+3 -8.163615E+1 2.146891E+1
         vertex -1.658600E+3 -8.163615E+1 2.146891E+1
         vertex -1.658600E+3 -8.123286E+1 2.156071E+1
      endloop
   endfacet
   facet normal -0.000000E+0 -2.751721E-2 -9.996213E-1
      outer loop
         vertex -1.628600E+3 -8.163615E+1 2.146891E+1
         vertex -1.628600E+3 -8.204959E+1 2.148030E+1
         vertex -1.658600E+3 -8.163615E+1 2.146891E+1
      endloop
   endfacet
   facet normal 0.000000E+0 2.219384E-1 -9.750607E-1
      outer loop
         vertex -1.628600E+3 -8.123286E+1 2.156071E+1
         vertex -1.628600E+3 -8.163615E+1 2.146891E+1
         vertex -1.658600E+3 -8.123286E+1 2.156071E+1
      endloop
   endfacet
   facet normal 0.000000E+0 4.574513E-1 -8.892347E-1
      outer loop
         vertex -1.628600E+3 -8.086507E+1 2.174991E+1
         vertex -1.658600E+3 -8.123286E+1 2.156071E+1
         vertex -1.658600E+3 -8.086507E+1 2.174991E+1
      endloop
   endfacet
   facet normal 0.000000E+0 6.642250E-1 -7.475327E-1
      outer loop
         vertex -1.628600E+3 -8.086507E+1 2.174991E+1
         vertex -1.658600E+3 -8.086507E+1 2.174991E+1
         vertex -1.658600E+3 -8.055589E+1 2.202464E+1
      endloop
   endfacet
   facet normal 0.000000E+0 4.574513E-1 -8.892347E-1
      outer loop
         vertex -1.628600E+3 -8.086507E+1 2.174991E+1
         vertex -1.628600E+3 -8.123286E+1 2.156071E+1
         vertex -1.658600E+3 -8.123286E+1 2.156071E+1
      endloop
   endfacet
   facet normal 0.000000E+0 8.292658E-1 -5.588543E-1
      outer loop
         vertex -1.628600E+3 -8.055589E+1 2.202464E+1
         vertex -1.658600E+3 -8.055589E+1 2.202464E+1
         vertex -1.658600E+3 -8.032475E+1 2.236762E+1
      endloop
   endfacet
   facet normal 0.000000E+0 6.642250E-1 -7.475327E-1
      outer loop
         vertex -1.628600E+3 -8.055589E+1 2.202464E+1
         vertex -1.628600E+3 -8.086507E+1 2.174991E+1
         vertex -1.658600E+3 -8.055589E+1 2.202464E+1
      endloop
   endfacet
   facet normal 0.000000E+0 9.421908E-1 -3.350770E-1
      outer loop
         vertex -1.628600E+3 -8.032475E+1 2.236762E+1
         vertex -1.658600E+3 -8.032475E+1 2.236762E+1
         vertex -1.658600E+3 -8.018616E+1 2.275731E+1
      endloop
   endfacet
   facet normal 0.000000E+0 8.292658E-1 -5.588543E-1
      outer loop
         vertex -1.628600E+3 -8.032475E+1 2.236762E+1
         vertex -1.628600E+3 -8.055589E+1 2.202464E+1
         vertex -1.658600E+3 -8.032475E+1 2.236762E+1
      endloop
   endfacet
   facet normal 0.000000E+0 9.421908E-1 -3.350770E-1
      outer loop
         vertex -1.628600E+3 -8.018616E+1 2.275731E+1
         vertex -1.628600E+3 -8.032475E+1 2.236762E+1
         vertex -1.658600E+3 -8.018616E+1 2.275731E+1
      endloop
   endfacet
   facet normal 0.000000E+0 9.959201E-1 -9.023928E-2
      outer loop
         vertex -1.628600E+3 -8.018616E+1 2.275731E+1
         vertex -1.658600E+3 -8.018616E+1 2.275731E+1
         vertex -1.658600E+3 -8.014884E+1 2.316922E+1
      endloop
   endfacet
   facet normal 0.000000E+0 9.959201E-1 -9.023928E-2
      outer loop
         vertex -1.628600E+3 -8.014884E+1 2.316922E+1
         vertex -1.628600E+3 -8.018616E+1 2.275731E+1
         vertex -1.658600E+3 -8.014884E+1 2.316922E+1
      endloop
   endfacet
   facet normal 0.000000E+0 9.870716E-1 1.602800E-1
      outer loop
         vertex -1.628600E+3 -8.014884E+1 2.316922E+1
         vertex -1.658600E+3 -8.014884E+1 2.316922E+1
         vertex -1.658600E+3 -8.021513E+1 2.357747E+1
      endloop
   endfacet
   facet normal 0.000000E+0 9.870716E-1 1.602800E-1
      outer loop
         vertex -1.628600E+3 -8.021513E+1 2.357747E+1
         vertex -1.628600E+3 -8.014884E+1 2.316922E+1
         vertex -1.658600E+3 -8.021513E+1 2.357747E+1
      endloop
   endfacet
   facet normal 0.000000E+0 9.161978E-1 4.007264E-1
      outer loop
         vertex -1.628600E+3 -8.021513E+1 2.357747E+1
         vertex -1.658600E+3 -8.021513E+1 2.357747E+1
         vertex -1.658600E+3 -8.038087E+1 2.395641E+1
      endloop
   endfacet
   facet normal 0.000000E+0 9.161978E-1 4.007264E-1
      outer loop
         vertex -1.628600E+3 -8.038087E+1 2.395641E+1
         vertex -1.628600E+3 -8.021513E+1 2.357747E+1
         vertex -1.658600E+3 -8.038087E+1 2.395641E+1
      endloop
   endfacet
   facet normal 0.000000E+0 7.877636E-1 6.159777E-1
      outer loop
         vertex -1.628600E+3 -8.063564E+1 2.428223E+1
         vertex -1.628600E+3 -8.038087E+1 2.395641E+1
         vertex -1.658600E+3 -8.038087E+1 2.395641E+1
      endloop
   endfacet
   facet normal 0.000000E+0 7.877636E-1 6.159777E-1
      outer loop
         vertex -1.628600E+3 -8.063564E+1 2.428223E+1
         vertex -1.658600E+3 -8.038087E+1 2.395641E+1
         vertex -1.658600E+3 -8.063564E+1 2.428223E+1
      endloop
   endfacet
   facet normal 0.000000E+0 6.098298E-1 7.925324E-1
      outer loop
         vertex -1.628600E+3 -8.063564E+1 2.428223E+1
         vertex -1.658600E+3 -8.063564E+1 2.428223E+1
         vertex -1.658600E+3 -8.096343E+1 2.453446E+1
      endloop
   endfacet
   facet normal 0.000000E+0 6.098298E-1 7.925324E-1
      outer loop
         vertex -1.628600E+3 -8.096343E+1 2.453446E+1
         vertex -1.628600E+3 -8.063564E+1 2.428223E+1
         vertex -1.658600E+3 -8.096343E+1 2.453446E+1
      endloop
   endfacet
   facet normal 0.000000E+0 3.935758E-1 9.192921E-1
      outer loop
         vertex -1.628600E+3 -8.096343E+1 2.453446E+1
         vertex -1.658600E+3 -8.096343E+1 2.453446E+1
         vertex -1.658600E+3 -8.134365E+1 2.469724E+1
      endloop
   endfacet
   facet normal 0.000000E+0 3.935758E-1 9.192921E-1
      outer loop
         vertex -1.628600E+3 -8.134365E+1 2.469724E+1
         vertex -1.628600E+3 -8.096343E+1 2.453446E+1
         vertex -1.658600E+3 -8.134365E+1 2.469724E+1
      endloop
   endfacet
   facet normal 0.000000E+0 1.525867E-1 9.882901E-1
      outer loop
         vertex -1.628600E+3 -8.134365E+1 2.469724E+1
         vertex -1.658600E+3 -8.134365E+1 2.469724E+1
         vertex -1.658600E+3 -8.175241E+1 2.476035E+1
      endloop
   endfacet
   facet normal 0.000000E+0 1.525867E-1 9.882901E-1
      outer loop
         vertex -1.628600E+3 -8.175241E+1 2.476035E+1
         vertex -1.628600E+3 -8.134365E+1 2.469724E+1
         vertex -1.658600E+3 -8.175241E+1 2.476035E+1
      endloop
   endfacet
   facet normal 0.000000E+0 -9.798314E-2 9.951881E-1
      outer loop
         vertex -1.628600E+3 -8.175241E+1 2.476035E+1
         vertex -1.658600E+3 -8.175241E+1 2.476035E+1
         vertex -1.658600E+3 -8.216402E+1 2.471982E+1
      endloop
   endfacet
   facet normal 0.000000E+0 -9.798314E-2 9.951881E-1
      outer loop
         vertex -1.628600E+3 -8.216402E+1 2.471982E+1
         vertex -1.628600E+3 -8.175241E+1 2.476035E+1
         vertex -1.658600E+3 -8.216402E+1 2.471982E+1
      endloop
   endfacet
   facet normal 0.000000E+0 -3.423976E-1 9.395552E-1
      outer loop
         vertex -1.628600E+3 -8.255262E+1 2.457821E+1
         vertex -1.628600E+3 -8.216402E+1 2.471982E+1
         vertex -1.658600E+3 -8.216402E+1 2.471982E+1
      endloop
   endfacet
   facet normal 0.000000E+0 -3.423976E-1 9.395552E-1
      outer loop
         vertex -1.628600E+3 -8.255262E+1 2.457821E+1
         vertex -1.658600E+3 -8.216402E+1 2.471982E+1
         vertex -1.658600E+3 -8.255262E+1 2.457821E+1
      endloop
   endfacet
   facet normal 0.000000E+0 -5.652991E-1 8.248860E-1
      outer loop
         vertex -1.628600E+3 -8.289379E+1 2.434440E+1
         vertex -1.628600E+3 -8.255262E+1 2.457821E+1
         vertex -1.658600E+3 -8.255262E+1 2.457821E+1
      endloop
   endfacet
   facet normal 0.000000E+0 -5.652991E-1 8.248860E-1
      outer loop
         vertex -1.628600E+3 -8.289379E+1 2.434440E+1
         vertex -1.658600E+3 -8.255262E+1 2.457821E+1
         vertex -1.658600E+3 -8.289379E+1 2.434440E+1
      endloop
   endfacet
   facet normal 0.000000E+0 -7.526798E-1 6.583867E-1
      outer loop
         vertex -1.628600E+3 -8.289379E+1 2.434440E+1
         vertex -1.658600E+3 -8.289379E+1 2.434440E+1
         vertex -1.658600E+3 -8.316610E+1 2.403309E+1
      endloop
   endfacet
   facet normal 0.000000E+0 -7.526798E-1 6.583867E-1
      outer loop
         vertex -1.628600E+3 -8.316610E+1 2.403309E+1
         vertex -1.628600E+3 -8.289379E+1 2.434440E+1
         vertex -1.658600E+3 -8.316610E+1 2.403309E+1
      endloop
   endfacet
   facet normal 0.000000E+0 -8.927683E-1 4.505161E-1
      outer loop
         vertex -1.628600E+3 -8.335243E+1 2.366385E+1
         vertex -1.658600E+3 -8.316610E+1 2.403309E+1
         vertex -1.658600E+3 -8.335243E+1 2.366385E+1
      endloop
   endfacet
   facet normal 0.000000E+0 -8.927683E-1 4.505161E-1
      outer loop
         vertex -1.628600E+3 -8.335243E+1 2.366385E+1
         vertex -1.628600E+3 -8.316610E+1 2.403309E+1
         vertex -1.658600E+3 -8.316610E+1 2.403309E+1
      endloop
   endfacet
   facet normal 0.000000E+0 -9.767578E-1 2.143457E-1
      outer loop
         vertex -1.628600E+3 -8.335243E+1 2.366385E+1
         vertex -1.658600E+3 -8.335243E+1 2.366385E+1
         vertex -1.658600E+3 -8.344109E+1 2.325986E+1
      endloop
   endfacet
   facet normal 0.000000E+0 -9.767578E-1 2.143457E-1
      outer loop
         vertex -1.628600E+3 -8.344109E+1 2.325986E+1
         vertex -1.628600E+3 -8.335243E+1 2.366385E+1
         vertex -1.658600E+3 -8.344109E+1 2.325986E+1
      endloop
   endfacet
   facet normal -0.000000E+0 -9.993765E-1 -3.530629E-2
      outer loop
         vertex -1.628600E+3 -8.342648E+1 2.284652E+1
         vertex -1.658600E+3 -8.344109E+1 2.325986E+1
         vertex -1.658600E+3 -8.342648E+1 2.284652E+1
      endloop
   endfacet
   facet normal 0.000000E+0 -9.993765E-1 -3.530629E-2
      outer loop
         vertex -1.628600E+3 -8.342648E+1 2.284652E+1
         vertex -1.628600E+3 -8.344109E+1 2.325986E+1
         vertex -1.658600E+3 -8.344109E+1 2.325986E+1
      endloop
   endfacet
   facet normal 1.000000E+0 -0.000000E+0 -0.000000E+0
      outer loop
         vertex -1.658600E+3 -8.096343E+1 2.453446E+1
         vertex -1.658600E+3 -8.069991E+1 2.440888E+1
         vertex -1.658600E+3 -8.101152E+1 2.461820E+1
      endloop
   endfacet
   facet normal 1.000000E+0 0.000000E+0 0.000000E+0
      outer loop
         vertex -1.658600E+3 -8.063564E+1 2.428223E+1
         vertex -1.658600E+3 -8.069991E+1 2.440888E+1
         vertex -1.658600E+3 -8.096343E+1 2.453446E+1
      endloop
   endfacet
   facet normal 1.000000E+0 0.000000E+0 0.000000E+0
      outer loop
         vertex -1.658600E+3 -8.044186E+1 2.413636E+1
         vertex -1.658600E+3 -8.069991E+1 2.440888E+1
         vertex -1.658600E+3 -8.063564E+1 2.428223E+1
      endloop
   endfacet
   facet normal 1.000000E+0 -0.000000E+0 -0.000000E+0
      outer loop
         vertex -1.658600E+3 -8.134365E+1 2.469724E+1
         vertex -1.658600E+3 -8.101152E+1 2.461820E+1
         vertex -1.658600E+3 -8.136147E+1 2.475402E+1
      endloop
   endfacet
   facet normal 1.000000E+0 0.000000E+0 0.000000E+0
      outer loop
         vertex -1.658600E+3 -8.134365E+1 2.469724E+1
         vertex -1.658600E+3 -8.096343E+1 2.453446E+1
         vertex -1.658600E+3 -8.101152E+1 2.461820E+1
      endloop
   endfacet
   facet normal 1.000000E+0 0.000000E+0 0.000000E+0
      outer loop
         vertex -1.658600E+3 -8.038087E+1 2.395641E+1
         vertex -1.658600E+3 -8.044186E+1 2.413636E+1
         vertex -1.658600E+3 -8.063564E+1 2.428223E+1
      endloop
   endfacet
   facet normal 1.000000E+0 0.000000E+0 0.000000E+0
      outer loop
         vertex -1.658600E+3 -8.024980E+1 2.381352E+1
         vertex -1.658600E+3 -8.044186E+1 2.413636E+1
         vertex -1.658600E+3 -8.038087E+1 2.395641E+1
      endloop
   endfacet
   facet normal 1.000000E+0 -0.000000E+0 0.000000E+0
      outer loop
         vertex -1.658600E+3 -8.175241E+1 2.476035E+1
         vertex -1.658600E+3 -8.136147E+1 2.475402E+1
         vertex -1.658600E+3 -8.173269E+1 2.480972E+1
      endloop
   endfacet
   facet normal 1.000000E+0 0.000000E+0 0.000000E+0
      outer loop
         vertex -1.658600E+3 -8.175241E+1 2.476035E+1
         vertex -1.658600E+3 -8.134365E+1 2.469724E+1
         vertex -1.658600E+3 -8.136147E+1 2.475402E+1
      endloop
   endfacet
   facet normal 1.000000E+0 0.000000E+0 -0.000000E+0
      outer loop
         vertex -1.658600E+3 -8.021513E+1 2.357747E+1
         vertex -1.658600E+3 -8.017085E+1 2.360373E+1
         vertex -1.658600E+3 -8.024980E+1 2.381352E+1
      endloop
   endfacet
   facet normal 1.000000E+0 0.000000E+0 0.000000E+0
      outer loop
         vertex -1.658600E+3 -8.021513E+1 2.357747E+1
         vertex -1.658600E+3 -8.024980E+1 2.381352E+1
         vertex -1.658600E+3 -8.038087E+1 2.395641E+1
      endloop
   endfacet
   facet normal 1.000000E+0 0.000000E+0 0.000000E+0
      outer loop
         vertex -1.658600E+3 -8.011980E+1 2.338345E+1
         vertex -1.658600E+3 -8.017085E+1 2.360373E+1
         vertex -1.658600E+3 -8.021513E+1 2.357747E+1
      endloop
   endfacet
   facet normal 1.000000E+0 -0.000000E+0 0.000000E+0
      outer loop
         vertex -1.658600E+3 -8.210709E+1 2.478260E+1
         vertex -1.658600E+3 -8.175241E+1 2.476035E+1
         vertex -1.658600E+3 -8.173269E+1 2.480972E+1
      endloop
   endfacet
   facet normal 1.000000E+0 0.000000E+0 0.000000E+0
      outer loop
         vertex -1.658600E+3 -8.216402E+1 2.471982E+1
         vertex -1.658600E+3 -8.175241E+1 2.476035E+1
         vertex -1.658600E+3 -8.210709E+1 2.478260E+1
      endloop
   endfacet
   facet normal 1.000000E+0 0.000000E+0 -0.000000E+0
      outer loop
         vertex -1.658600E+3 -8.014884E+1 2.316922E+1
         vertex -1.658600E+3 -8.011980E+1 2.338345E+1
         vertex -1.658600E+3 -8.021513E+1 2.357747E+1
      endloop
   endfacet
   facet normal 1.000000E+0 0.000000E+0 0.000000E+0
      outer loop
         vertex -1.658600E+3 -8.010091E+1 2.300852E+1
         vertex -1.658600E+3 -8.011980E+1 2.338345E+1
         vertex -1.658600E+3 -8.014884E+1 2.316922E+1
      endloop
   endfacet
   facet normal 1.000000E+0 0.000000E+0 0.000000E+0
      outer loop
         vertex -1.658600E+3 -8.246640E+1 2.467398E+1
         vertex -1.658600E+3 -8.216402E+1 2.471982E+1
         vertex -1.658600E+3 -8.210709E+1 2.478260E+1
      endloop
   endfacet
   facet normal 1.000000E+0 0.000000E+0 0.000000E+0
      outer loop
         vertex -1.658600E+3 -8.255262E+1 2.457821E+1
         vertex -1.658600E+3 -8.216402E+1 2.471982E+1
         vertex -1.658600E+3 -8.246640E+1 2.467398E+1
      endloop
   endfacet
   facet normal 1.000000E+0 0.000000E+0 0.000000E+0
      outer loop
         vertex -1.658600E+3 -8.018616E+1 2.275731E+1
         vertex -1.658600E+3 -8.010091E+1 2.300852E+1
         vertex -1.658600E+3 -8.014884E+1 2.316922E+1
      endloop
   endfacet
   facet normal 1.000000E+0 0.000000E+0 -0.000000E+0
      outer loop
         vertex -1.658600E+3 -8.016476E+1 2.263865E+1
         vertex -1.658600E+3 -8.010091E+1 2.300852E+1
         vertex -1.658600E+3 -8.018616E+1 2.275731E+1
      endloop
   endfacet
   facet normal 1.000000E+0 0.000000E+0 0.000000E+0
      outer loop
         vertex -1.658600E+3 -8.279312E+1 2.448915E+1
         vertex -1.658600E+3 -8.255262E+1 2.457821E+1
         vertex -1.658600E+3 -8.246640E+1 2.467398E+1
      endloop
   endfacet
   facet normal 1.000000E+0 0.000000E+0 0.000000E+0
      outer loop
         vertex -1.658600E+3 -8.289379E+1 2.434440E+1
         vertex -1.658600E+3 -8.255262E+1 2.457821E+1
         vertex -1.658600E+3 -8.279312E+1 2.448915E+1
      endloop
   endfacet
   facet normal 1.000000E+0 0.000000E+0 0.000000E+0
      outer loop
         vertex -1.658600E+3 -8.032475E+1 2.236762E+1
         vertex -1.658600E+3 -8.016476E+1 2.263865E+1
         vertex -1.658600E+3 -8.018616E+1 2.275731E+1
      endloop
   endfacet
   facet normal 1.000000E+0 0.000000E+0 -0.000000E+0
      outer loop
         vertex -1.658600E+3 -8.030823E+1 2.229175E+1
         vertex -1.658600E+3 -8.016476E+1 2.263865E+1
         vertex -1.658600E+3 -8.032475E+1 2.236762E+1
      endloop
   endfacet
   facet normal 1.000000E+0 0.000000E+0 0.000000E+0
      outer loop
         vertex -1.658600E+3 -8.307131E+1 2.423712E+1
         vertex -1.658600E+3 -8.289379E+1 2.434440E+1
         vertex -1.658600E+3 -8.279312E+1 2.448915E+1
      endloop
   endfacet
   facet normal 1.000000E+0 0.000000E+0 0.000000E+0
      outer loop
         vertex -1.658600E+3 -8.316610E+1 2.403309E+1
         vertex -1.658600E+3 -8.289379E+1 2.434440E+1
         vertex -1.658600E+3 -8.307131E+1 2.423712E+1
      endloop
   endfacet
   facet normal 1.000000E+0 0.000000E+0 0.000000E+0
      outer loop
         vertex -1.658600E+3 -8.055589E+1 2.202464E+1
         vertex -1.658600E+3 -8.030823E+1 2.229175E+1
         vertex -1.658600E+3 -8.032475E+1 2.236762E+1
      endloop
   endfacet
   facet normal 1.000000E+0 0.000000E+0 -0.000000E+0
      outer loop
         vertex -1.658600E+3 -8.052432E+1 2.198483E+1
         vertex -1.658600E+3 -8.030823E+1 2.229175E+1
         vertex -1.658600E+3 -8.055589E+1 2.202464E+1
      endloop
   endfacet
   facet normal 1.000000E+0 0.000000E+0 0.000000E+0
      outer loop
         vertex -1.658600E+3 -8.328741E+1 2.393019E+1
         vertex -1.658600E+3 -8.316610E+1 2.403309E+1
         vertex -1.658600E+3 -8.307131E+1 2.423712E+1
      endloop
   endfacet
   facet normal 1.000000E+0 0.000000E+0 0.000000E+0
      outer loop
         vertex -1.658600E+3 -8.335243E+1 2.366385E+1
         vertex -1.658600E+3 -8.316610E+1 2.403309E+1
         vertex -1.658600E+3 -8.328741E+1 2.393019E+1
      endloop
   endfacet
   facet normal 1.000000E+0 0.000000E+0 0.000000E+0
      outer loop
         vertex -1.658600E+3 -8.080251E+1 2.173280E+1
         vertex -1.658600E+3 -8.052432E+1 2.198483E+1
         vertex -1.658600E+3 -8.055589E+1 2.202464E+1
      endloop
   endfacet
   facet normal 1.000000E+0 -0.000000E+0 0.000000E+0
      outer loop
         vertex -1.658600E+3 -8.086507E+1 2.174991E+1
         vertex -1.658600E+3 -8.080251E+1 2.173280E+1
         vertex -1.658600E+3 -8.055589E+1 2.202464E+1
      endloop
   endfacet
   facet normal 1.000000E+0 0.000000E+0 0.000000E+0
      outer loop
         vertex -1.658600E+3 -8.343088E+1 2.358330E+1
         vertex -1.658600E+3 -8.335243E+1 2.366385E+1
         vertex -1.658600E+3 -8.328741E+1 2.393019E+1
      endloop
   endfacet
   facet normal 1.000000E+0 0.000000E+0 0.000000E+0
      outer loop
         vertex -1.658600E+3 -8.344109E+1 2.325986E+1
         vertex -1.658600E+3 -8.335243E+1 2.366385E+1
         vertex -1.658600E+3 -8.343088E+1 2.358330E+1
      endloop
   endfacet
   facet normal 1.000000E+0 0.000000E+0 0.000000E+0
      outer loop
         vertex -1.658600E+3 -8.112923E+1 2.154797E+1
         vertex -1.658600E+3 -8.080251E+1 2.173280E+1
         vertex -1.658600E+3 -8.086507E+1 2.174991E+1
      endloop
   endfacet
   facet normal 1.000000E+0 0.000000E+0 0.000000E+0
      outer loop
         vertex -1.658600E+3 -8.349473E+1 2.321343E+1
         vertex -1.658600E+3 -8.344109E+1 2.325986E+1
         vertex -1.658600E+3 -8.343088E+1 2.358330E+1
      endloop
   endfacet
   facet normal 1.000000E+0 -0.000000E+0 0.000000E+0
      outer loop
         vertex -1.658600E+3 -8.123286E+1 2.156071E+1
         vertex -1.658600E+3 -8.112923E+1 2.154797E+1
         vertex -1.658600E+3 -8.086507E+1 2.174991E+1
      endloop
   endfacet
   facet normal 1.000000E+0 0.000000E+0 0.000000E+0
      outer loop
         vertex -1.658600E+3 -8.342648E+1 2.284652E+1
         vertex -1.658600E+3 -8.344109E+1 2.325986E+1
         vertex -1.658600E+3 -8.349473E+1 2.321343E+1
      endloop
   endfacet
   facet normal 1.000000E+0 0.000000E+0 0.000000E+0
      outer loop
         vertex -1.658600E+3 -8.148855E+1 2.143934E+1
         vertex -1.658600E+3 -8.112923E+1 2.154797E+1
         vertex -1.658600E+3 -8.123286E+1 2.156071E+1
      endloop
   endfacet
   facet normal 1.000000E+0 0.000000E+0 -0.000000E+0
      outer loop
         vertex -1.658600E+3 -8.347584E+1 2.283850E+1
         vertex -1.658600E+3 -8.342648E+1 2.284652E+1
         vertex -1.658600E+3 -8.349473E+1 2.321343E+1
      endloop
   endfacet
   facet normal 1.000000E+0 -0.000000E+0 0.000000E+0
      outer loop
         vertex -1.658600E+3 -8.163615E+1 2.146891E+1
         vertex -1.658600E+3 -8.148855E+1 2.143934E+1
         vertex -1.658600E+3 -8.123286E+1 2.156071E+1
      endloop
   endfacet
   facet normal 1.000000E+0 0.000000E+0 0.000000E+0
      outer loop
         vertex -1.658600E+3 -8.342479E+1 2.261822E+1
         vertex -1.658600E+3 -8.342648E+1 2.284652E+1
         vertex -1.658600E+3 -8.347584E+1 2.283850E+1
      endloop
   endfacet
   facet normal 1.000000E+0 0.000000E+0 0.000000E+0
      outer loop
         vertex -1.658600E+3 -8.186295E+1 2.141222E+1
         vertex -1.658600E+3 -8.148855E+1 2.143934E+1
         vertex -1.658600E+3 -8.163615E+1 2.146891E+1
      endloop
   endfacet
   facet normal 1.000000E+0 0.000000E+0 0.000000E+0
      outer loop
         vertex -1.658600E+3 -8.330955E+1 2.244979E+1
         vertex -1.658600E+3 -8.342648E+1 2.284652E+1
         vertex -1.658600E+3 -8.342479E+1 2.261822E+1
      endloop
   endfacet
   facet normal 1.000000E+0 0.000000E+0 0.000000E+0
      outer loop
         vertex -1.658600E+3 -8.204959E+1 2.148030E+1
         vertex -1.658600E+3 -8.186295E+1 2.141222E+1
         vertex -1.658600E+3 -8.163615E+1 2.146891E+1
      endloop
   endfacet
   facet normal 1.000000E+0 0.000000E+0 -0.000000E+0
      outer loop
         vertex -1.658600E+3 -8.334583E+1 2.240843E+1
         vertex -1.658600E+3 -8.330955E+1 2.244979E+1
         vertex -1.658600E+3 -8.342479E+1 2.261822E+1
      endloop
   endfacet
   facet normal 1.000000E+0 -0.000000E+0 0.000000E+0
      outer loop
         vertex -1.658600E+3 -8.223417E+1 2.146793E+1
         vertex -1.658600E+3 -8.186295E+1 2.141222E+1
         vertex -1.658600E+3 -8.204959E+1 2.148030E+1
      endloop
   endfacet
   facet normal 1.000000E+0 0.000000E+0 0.000000E+0
      outer loop
         vertex -1.658600E+3 -8.244721E+1 2.159414E+1
         vertex -1.658600E+3 -8.223417E+1 2.146793E+1
         vertex -1.658600E+3 -8.204959E+1 2.148030E+1
      endloop
   endfacet
   facet normal 1.000000E+0 0.000000E+0 -0.000000E+0
      outer loop
         vertex -1.658600E+3 -8.315378E+1 2.208559E+1
         vertex -1.658600E+3 -8.309763E+1 2.209461E+1
         vertex -1.658600E+3 -8.330955E+1 2.244979E+1
      endloop
   endfacet
   facet normal 1.000000E+0 0.000000E+0 0.000000E+0
      outer loop
         vertex -1.658600E+3 -8.315378E+1 2.208559E+1
         vertex -1.658600E+3 -8.330955E+1 2.244979E+1
         vertex -1.658600E+3 -8.334583E+1 2.240843E+1
      endloop
   endfacet
   facet normal 1.000000E+0 -0.000000E+0 -0.000000E+0
      outer loop
         vertex -1.658600E+3 -8.258411E+1 2.160374E+1
         vertex -1.658600E+3 -8.244721E+1 2.159414E+1
         vertex -1.658600E+3 -8.280403E+1 2.180329E+1
      endloop
   endfacet
   facet normal 1.000000E+0 0.000000E+0 0.000000E+0
      outer loop
         vertex -1.658600E+3 -8.258411E+1 2.160374E+1
         vertex -1.658600E+3 -8.223417E+1 2.146793E+1
         vertex -1.658600E+3 -8.244721E+1 2.159414E+1
      endloop
   endfacet
   facet normal 1.000000E+0 -0.000000E+0 -0.000000E+0
      outer loop
         vertex -1.658600E+3 -8.289572E+1 2.181307E+1
         vertex -1.658600E+3 -8.280403E+1 2.180329E+1
         vertex -1.658600E+3 -8.309763E+1 2.209461E+1
      endloop
   endfacet
   facet normal 1.000000E+0 0.000000E+0 0.000000E+0
      outer loop
         vertex -1.658600E+3 -8.289572E+1 2.181307E+1
         vertex -1.658600E+3 -8.309763E+1 2.209461E+1
         vertex -1.658600E+3 -8.315378E+1 2.208559E+1
      endloop
   endfacet
   facet normal 1.000000E+0 0.000000E+0 0.000000E+0
      outer loop
         vertex -1.658600E+3 -8.289572E+1 2.181307E+1
         vertex -1.658600E+3 -8.258411E+1 2.160374E+1
         vertex -1.658600E+3 -8.280403E+1 2.180329E+1
      endloop
   endfacet
endsolid 125