solid 45
   facet normal -0.000000E+0 9.723357E-1 2.335877E-1
      outer loop
         vertex 1.544000E+3 -2.013627E+2 -3.269663E+1
         vertex 1.560000E+3 -2.013627E+2 -3.269663E+1
         vertex 1.560000E+3 -2.012230E+2 -3.327793E+1
      endloop
   endfacet
   facet normal -0.000000E+0 9.723357E-1 2.335877E-1
      outer loop
         vertex 1.544000E+3 -2.012230E+2 -3.327793E+1
         vertex 1.544000E+3 -2.013627E+2 -3.269663E+1
         vertex 1.560000E+3 -2.012230E+2 -3.327793E+1
      endloop
   endfacet
   facet normal -0.000000E+0 9.266579E-1 3.759056E-1
      outer loop
         vertex 1.544000E+3 -2.009983E+2 -3.383192E+1
         vertex 1.544000E+3 -2.012230E+2 -3.327793E+1
         vertex 1.560000E+3 -2.009983E+2 -3.383192E+1
      endloop
   endfacet
   facet normal -0.000000E+0 9.266579E-1 3.759056E-1
      outer loop
         vertex 1.544000E+3 -2.012230E+2 -3.327793E+1
         vertex 1.560000E+3 -2.012230E+2 -3.327793E+1
         vertex 1.560000E+3 -2.009983E+2 -3.383192E+1
      endloop
   endfacet
   facet normal -0.000000E+0 8.602795E-1 5.098227E-1
      outer loop
         vertex 1.544000E+3 -2.009983E+2 -3.383192E+1
         vertex 1.560000E+3 -2.009983E+2 -3.383192E+1
         vertex 1.560000E+3 -2.006935E+2 -3.434624E+1
      endloop
   endfacet
   facet normal -0.000000E+0 8.602795E-1 5.098227E-1
      outer loop
         vertex 1.544000E+3 -2.006935E+2 -3.434624E+1
         vertex 1.544000E+3 -2.009983E+2 -3.383192E+1
         vertex 1.560000E+3 -2.006935E+2 -3.434624E+1
      endloop
   endfacet
   facet normal -0.000000E+0 7.746931E-1 6.323375E-1
      outer loop
         vertex 1.544000E+3 -2.006935E+2 -3.434624E+1
         vertex 1.560000E+3 -2.006935E+2 -3.434624E+1
         vertex 1.560000E+3 -2.003155E+2 -3.480938E+1
      endloop
   endfacet
   facet normal -0.000000E+0 7.746931E-1 6.323375E-1
      outer loop
         vertex 1.544000E+3 -2.003155E+2 -3.480938E+1
         vertex 1.544000E+3 -2.006935E+2 -3.434624E+1
         vertex 1.560000E+3 -2.003155E+2 -3.480938E+1
      endloop
   endfacet
   facet normal -0.000000E+0 6.717970E-1 7.407353E-1
      outer loop
         vertex 1.544000E+3 -2.003155E+2 -3.480938E+1
         vertex 1.560000E+3 -2.003155E+2 -3.480938E+1
         vertex 1.560000E+3 -1.998726E+2 -3.521101E+1
      endloop
   endfacet
   facet normal -0.000000E+0 6.717970E-1 7.407353E-1
      outer loop
         vertex 1.544000E+3 -1.998726E+2 -3.521101E+1
         vertex 1.544000E+3 -2.003155E+2 -3.480938E+1
         vertex 1.560000E+3 -1.998726E+2 -3.521101E+1
      endloop
   endfacet
   facet normal -0.000000E+0 5.538856E-1 8.325927E-1
      outer loop
         vertex 1.544000E+3 -1.998726E+2 -3.521101E+1
         vertex 1.560000E+3 -1.998726E+2 -3.521101E+1
         vertex 1.560000E+3 -1.993749E+2 -3.554214E+1
      endloop
   endfacet
   facet normal -0.000000E+0 5.538856E-1 8.325927E-1
      outer loop
         vertex 1.544000E+3 -1.993749E+2 -3.554214E+1
         vertex 1.544000E+3 -1.998726E+2 -3.521101E+1
         vertex 1.560000E+3 -1.993749E+2 -3.554214E+1
      endloop
   endfacet
   facet normal -0.000000E+0 4.236091E-1 9.058451E-1
      outer loop
         vertex 1.544000E+3 -1.993749E+2 -3.554214E+1
         vertex 1.560000E+3 -1.993749E+2 -3.554214E+1
         vertex 1.560000E+3 -1.988333E+2 -3.579539E+1
      endloop
   endfacet
   facet normal -0.000000E+0 4.236091E-1 9.058451E-1
      outer loop
         vertex 1.544000E+3 -1.988333E+2 -3.579539E+1
         vertex 1.544000E+3 -1.993749E+2 -3.554214E+1
         vertex 1.560000E+3 -1.988333E+2 -3.579539E+1
      endloop
   endfacet
   facet normal -0.000000E+0 2.838700E-1 9.588628E-1
      outer loop
         vertex 1.544000E+3 -1.988333E+2 -3.579539E+1
         vertex 1.560000E+3 -1.988333E+2 -3.579539E+1
         vertex 1.560000E+3 -1.982601E+2 -3.596510E+1
      endloop
   endfacet
   facet normal -0.000000E+0 2.838700E-1 9.588628E-1
      outer loop
         vertex 1.544000E+3 -1.982601E+2 -3.596510E+1
         vertex 1.544000E+3 -1.988333E+2 -3.579539E+1
         vertex 1.560000E+3 -1.982601E+2 -3.596510E+1
      endloop
   endfacet
   facet normal -0.000000E+0 1.377882E-1 9.904617E-1
      outer loop
         vertex 1.544000E+3 -1.982601E+2 -3.596510E+1
         vertex 1.560000E+3 -1.982601E+2 -3.596510E+1
         vertex 1.560000E+3 -1.976679E+2 -3.604748E+1
      endloop
   endfacet
   facet normal -0.000000E+0 1.377882E-1 9.904617E-1
      outer loop
         vertex 1.544000E+3 -1.976679E+2 -3.604748E+1
         vertex 1.544000E+3 -1.982601E+2 -3.596510E+1
         vertex 1.560000E+3 -1.976679E+2 -3.604748E+1
      endloop
   endfacet
   facet normal 0.000000E+0 -1.137682E-2 9.999353E-1
      outer loop
         vertex 1.544000E+3 -1.976679E+2 -3.604748E+1
         vertex 1.560000E+3 -1.976679E+2 -3.604748E+1
         vertex 1.560000E+3 -1.970701E+2 -3.604068E+1
      endloop
   endfacet
   facet normal 0.000000E+0 -1.137682E-2 9.999353E-1
      outer loop
         vertex 1.544000E+3 -1.970701E+2 -3.604068E+1
         vertex 1.544000E+3 -1.976679E+2 -3.604748E+1
         vertex 1.560000E+3 -1.970701E+2 -3.604068E+1
      endloop
   endfacet
   facet normal 0.000000E+0 -1.602751E-1 9.870723E-1
      outer loop
         vertex 1.544000E+3 -1.970701E+2 -3.604068E+1
         vertex 1.560000E+3 -1.970701E+2 -3.604068E+1
         vertex 1.560000E+3 -1.964800E+2 -3.594486E+1
      endloop
   endfacet
   facet normal 0.000000E+0 -1.602751E-1 9.870723E-1
      outer loop
         vertex 1.544000E+3 -1.964800E+2 -3.594486E+1
         vertex 1.544000E+3 -1.970701E+2 -3.604068E+1
         vertex 1.560000E+3 -1.964800E+2 -3.594486E+1
      endloop
   endfacet
   facet normal 0.000000E+0 -3.056052E-1 9.521584E-1
      outer loop
         vertex 1.544000E+3 -1.964800E+2 -3.594486E+1
         vertex 1.560000E+3 -1.964800E+2 -3.594486E+1
         vertex 1.560000E+3 -1.959108E+2 -3.576215E+1
      endloop
   endfacet
   facet normal 0.000000E+0 -3.056052E-1 9.521584E-1
      outer loop
         vertex 1.544000E+3 -1.959108E+2 -3.576215E+1
         vertex 1.544000E+3 -1.964800E+2 -3.594486E+1
         vertex 1.560000E+3 -1.959108E+2 -3.576215E+1
      endloop
   endfacet
   facet normal 0.000000E+0 -4.441021E-1 8.959762E-1
      outer loop
         vertex 1.544000E+3 -1.959108E+2 -3.576215E+1
         vertex 1.560000E+3 -1.959108E+2 -3.576215E+1
         vertex 1.560000E+3 -1.953751E+2 -3.549665E+1
      endloop
   endfacet
   facet normal 0.000000E+0 -4.441021E-1 8.959762E-1
      outer loop
         vertex 1.544000E+3 -1.953751E+2 -3.549665E+1
         vertex 1.544000E+3 -1.959108E+2 -3.576215E+1
         vertex 1.560000E+3 -1.953751E+2 -3.549665E+1
      endloop
   endfacet
   facet normal 0.000000E+0 -5.726818E-1 8.197777E-1
      outer loop
         vertex 1.544000E+3 -1.953751E+2 -3.549665E+1
         vertex 1.560000E+3 -1.953751E+2 -3.549665E+1
         vertex 1.560000E+3 -1.948850E+2 -3.515428E+1
      endloop
   endfacet
   facet normal 0.000000E+0 -5.726818E-1 8.197777E-1
      outer loop
         vertex 1.544000E+3 -1.948850E+2 -3.515428E+1
         vertex 1.544000E+3 -1.953751E+2 -3.549665E+1
         vertex 1.560000E+3 -1.948850E+2 -3.515428E+1
      endloop
   endfacet
   facet normal 0.000000E+0 -6.884522E-1 7.252817E-1
      outer loop
         vertex 1.544000E+3 -1.948850E+2 -3.515428E+1
         vertex 1.560000E+3 -1.948850E+2 -3.515428E+1
         vertex 1.560000E+3 -1.944514E+2 -3.474269E+1
      endloop
   endfacet
   facet normal 0.000000E+0 -6.884522E-1 7.252817E-1
      outer loop
         vertex 1.544000E+3 -1.944514E+2 -3.474269E+1
         vertex 1.544000E+3 -1.948850E+2 -3.515428E+1
         vertex 1.560000E+3 -1.944514E+2 -3.474269E+1
      endloop
   endfacet
   facet normal 0.000000E+0 -7.888789E-1 6.145487E-1
      outer loop
         vertex 1.544000E+3 -1.944514E+2 -3.474269E+1
         vertex 1.560000E+3 -1.944514E+2 -3.474269E+1
         vertex 1.560000E+3 -1.940840E+2 -3.427107E+1
      endloop
   endfacet
   facet normal 0.000000E+0 -7.888789E-1 6.145487E-1
      outer loop
         vertex 1.544000E+3 -1.940840E+2 -3.427107E+1
         vertex 1.544000E+3 -1.944514E+2 -3.474269E+1
         vertex 1.560000E+3 -1.940840E+2 -3.427107E+1
      endloop
   endfacet
   facet normal 0.000000E+0 -8.716543E-1 4.901213E-1
      outer loop
         vertex 1.544000E+3 -1.940840E+2 -3.427107E+1
         vertex 1.560000E+3 -1.940840E+2 -3.427107E+1
         vertex 1.560000E+3 -1.937910E+2 -3.374996E+1
      endloop
   endfacet
   facet normal 0.000000E+0 -8.716543E-1 4.901213E-1
      outer loop
         vertex 1.544000E+3 -1.937910E+2 -3.374996E+1
         vertex 1.544000E+3 -1.940840E+2 -3.427107E+1
         vertex 1.560000E+3 -1.937910E+2 -3.374996E+1
      endloop
   endfacet
   facet normal 0.000000E+0 -9.349713E-1 3.547235E-1
      outer loop
         vertex 1.544000E+3 -1.935789E+2 -3.319100E+1
         vertex 1.544000E+3 -1.937910E+2 -3.374996E+1
         vertex 1.560000E+3 -1.935789E+2 -3.319100E+1
      endloop
   endfacet
   facet normal 0.000000E+0 -9.349713E-1 3.547235E-1
      outer loop
         vertex 1.544000E+3 -1.937910E+2 -3.374996E+1
         vertex 1.560000E+3 -1.937910E+2 -3.374996E+1
         vertex 1.560000E+3 -1.935789E+2 -3.319100E+1
      endloop
   endfacet
   facet normal 0.000000E+0 -9.773924E-1 2.114329E-1
      outer loop
         vertex 1.544000E+3 -1.934525E+2 -3.260667E+1
         vertex 1.544000E+3 -1.935789E+2 -3.319100E+1
         vertex 1.560000E+3 -1.934525E+2 -3.260667E+1
      endloop
   endfacet
   facet normal 0.000000E+0 -9.773924E-1 2.114329E-1
      outer loop
         vertex 1.544000E+3 -1.935789E+2 -3.319100E+1
         vertex 1.560000E+3 -1.935789E+2 -3.319100E+1
         vertex 1.560000E+3 -1.934525E+2 -3.260667E+1
      endloop
   endfacet
   facet normal 0.000000E+0 -9.979898E-1 6.337415E-2
      outer loop
         vertex 1.544000E+3 -1.934147E+2 -3.201003E+1
         vertex 1.544000E+3 -1.934525E+2 -3.260667E+1
         vertex 1.560000E+3 -1.934147E+2 -3.201003E+1
      endloop
   endfacet
   facet normal 0.000000E+0 -9.979898E-1 6.337415E-2
      outer loop
         vertex 1.544000E+3 -1.934525E+2 -3.260667E+1
         vertex 1.560000E+3 -1.934525E+2 -3.260667E+1
         vertex 1.560000E+3 -1.934147E+2 -3.201003E+1
      endloop
   endfacet
   facet normal 0.000000E+0 -9.962896E-1 -8.606404E-2
      outer loop
         vertex 1.544000E+3 -1.934661E+2 -3.141441E+1
         vertex 1.544000E+3 -1.934147E+2 -3.201003E+1
         vertex 1.560000E+3 -1.934661E+2 -3.141441E+1
      endloop
   endfacet
   facet normal 0.000000E+0 -9.962896E-1 -8.606404E-2
      outer loop
         vertex 1.544000E+3 -1.934147E+2 -3.201003E+1
         vertex 1.560000E+3 -1.934147E+2 -3.201003E+1
         vertex 1.560000E+3 -1.934661E+2 -3.141441E+1
      endloop
   endfacet
   facet normal 0.000000E+0 -9.723355E-1 -2.335884E-1
      outer loop
         vertex 1.544000E+3 -1.936058E+2 -3.083311E+1
         vertex 1.544000E+3 -1.934661E+2 -3.141441E+1
         vertex 1.560000E+3 -1.936058E+2 -3.083311E+1
      endloop
   endfacet
   facet normal 0.000000E+0 -9.723355E-1 -2.335884E-1
      outer loop
         vertex 1.544000E+3 -1.934661E+2 -3.141441E+1
         vertex 1.560000E+3 -1.934661E+2 -3.141441E+1
         vertex 1.560000E+3 -1.936058E+2 -3.083311E+1
      endloop
   endfacet
   facet normal 0.000000E+0 -9.266584E-1 -3.759045E-1
      outer loop
         vertex 1.544000E+3 -1.938305E+2 -3.027911E+1
         vertex 1.544000E+3 -1.936058E+2 -3.083311E+1
         vertex 1.560000E+3 -1.938305E+2 -3.027911E+1
      endloop
   endfacet
   facet normal 0.000000E+0 -9.266584E-1 -3.759045E-1
      outer loop
         vertex 1.544000E+3 -1.936058E+2 -3.083311E+1
         vertex 1.560000E+3 -1.936058E+2 -3.083311E+1
         vertex 1.560000E+3 -1.938305E+2 -3.027911E+1
      endloop
   endfacet
   facet normal 0.000000E+0 -8.602795E-1 -5.098227E-1
      outer loop
         vertex 1.544000E+3 -1.941353E+2 -2.976480E+1
         vertex 1.544000E+3 -1.938305E+2 -3.027911E+1
         vertex 1.560000E+3 -1.941353E+2 -2.976480E+1
      endloop
   endfacet
   facet normal 0.000000E+0 -8.602795E-1 -5.098227E-1
      outer loop
         vertex 1.544000E+3 -1.938305E+2 -3.027911E+1
         vertex 1.560000E+3 -1.938305E+2 -3.027911E+1
         vertex 1.560000E+3 -1.941353E+2 -2.976480E+1
      endloop
   endfacet
   facet normal 0.000000E+0 -7.746918E-1 -6.323390E-1
      outer loop
         vertex 1.544000E+3 -1.945133E+2 -2.930166E+1
         vertex 1.544000E+3 -1.941353E+2 -2.976480E+1
         vertex 1.560000E+3 -1.945133E+2 -2.930166E+1
      endloop
   endfacet
   facet normal 0.000000E+0 -7.746918E-1 -6.323390E-1
      outer loop
         vertex 1.544000E+3 -1.941353E+2 -2.976480E+1
         vertex 1.560000E+3 -1.941353E+2 -2.976480E+1
         vertex 1.560000E+3 -1.945133E+2 -2.930166E+1
      endloop
   endfacet
   facet normal 0.000000E+0 -6.717970E-1 -7.407353E-1
      outer loop
         vertex 1.544000E+3 -1.949562E+2 -2.890003E+1
         vertex 1.544000E+3 -1.945133E+2 -2.930166E+1
         vertex 1.560000E+3 -1.949562E+2 -2.890003E+1
      endloop
   endfacet
   facet normal 0.000000E+0 -6.717970E-1 -7.407353E-1
      outer loop
         vertex 1.544000E+3 -1.945133E+2 -2.930166E+1
         vertex 1.560000E+3 -1.945133E+2 -2.930166E+1
         vertex 1.560000E+3 -1.949562E+2 -2.890003E+1
      endloop
   endfacet
   facet normal 0.000000E+0 -5.538878E-1 -8.325912E-1
      outer loop
         vertex 1.544000E+3 -1.954539E+2 -2.856890E+1
         vertex 1.544000E+3 -1.949562E+2 -2.890003E+1
         vertex 1.560000E+3 -1.954539E+2 -2.856890E+1
      endloop
   endfacet
   facet normal 0.000000E+0 -5.538878E-1 -8.325912E-1
      outer loop
         vertex 1.544000E+3 -1.949562E+2 -2.890003E+1
         vertex 1.560000E+3 -1.949562E+2 -2.890003E+1
         vertex 1.560000E+3 -1.954539E+2 -2.856890E+1
      endloop
   endfacet
   facet normal 0.000000E+0 -4.236091E-1 -9.058451E-1
      outer loop
         vertex 1.544000E+3 -1.959955E+2 -2.831565E+1
         vertex 1.544000E+3 -1.954539E+2 -2.856890E+1
         vertex 1.560000E+3 -1.959955E+2 -2.831565E+1
      endloop
   endfacet
   facet normal 0.000000E+0 -4.236091E-1 -9.058451E-1
      outer loop
         vertex 1.544000E+3 -1.954539E+2 -2.856890E+1
         vertex 1.560000E+3 -1.954539E+2 -2.856890E+1
         vertex 1.560000E+3 -1.959955E+2 -2.831565E+1
      endloop
   endfacet
   facet normal 0.000000E+0 -2.838711E-1 -9.588625E-1
      outer loop
         vertex 1.544000E+3 -1.959955E+2 -2.831565E+1
         vertex 1.560000E+3 -1.959955E+2 -2.831565E+1
         vertex 1.560000E+3 -1.965687E+2 -2.814594E+1
      endloop
   endfacet
   facet normal 0.000000E+0 -2.838711E-1 -9.588625E-1
      outer loop
         vertex 1.544000E+3 -1.965687E+2 -2.814594E+1
         vertex 1.544000E+3 -1.959955E+2 -2.831565E+1
         vertex 1.560000E+3 -1.965687E+2 -2.814594E+1
      endloop
   endfacet
   facet normal 0.000000E+0 -1.377878E-1 -9.904618E-1
      outer loop
         vertex 1.544000E+3 -1.965687E+2 -2.814594E+1
         vertex 1.560000E+3 -1.965687E+2 -2.814594E+1
         vertex 1.560000E+3 -1.971609E+2 -2.806356E+1
      endloop
   endfacet
   facet normal 0.000000E+0 -1.377878E-1 -9.904618E-1
      outer loop
         vertex 1.544000E+3 -1.971609E+2 -2.806356E+1
         vertex 1.544000E+3 -1.965687E+2 -2.814594E+1
         vertex 1.560000E+3 -1.971609E+2 -2.806356E+1
      endloop
   endfacet
   facet normal 0.000000E+0 1.137392E-2 -9.999353E-1
      outer loop
         vertex 1.544000E+3 -1.971609E+2 -2.806356E+1
         vertex 1.560000E+3 -1.971609E+2 -2.806356E+1
         vertex 1.560000E+3 -1.977587E+2 -2.807036E+1
      endloop
   endfacet
   facet normal 0.000000E+0 1.137392E-2 -9.999353E-1
      outer loop
         vertex 1.544000E+3 -1.977587E+2 -2.807036E+1
         vertex 1.544000E+3 -1.971609E+2 -2.806356E+1
         vertex 1.560000E+3 -1.977587E+2 -2.807036E+1
      endloop
   endfacet
   facet normal 0.000000E+0 1.602742E-1 -9.870725E-1
      outer loop
         vertex 1.544000E+3 -1.977587E+2 -2.807036E+1
         vertex 1.560000E+3 -1.977587E+2 -2.807036E+1
         vertex 1.560000E+3 -1.983488E+2 -2.816618E+1
      endloop
   endfacet
   facet normal 0.000000E+0 1.602742E-1 -9.870725E-1
      outer loop
         vertex 1.544000E+3 -1.983488E+2 -2.816618E+1
         vertex 1.544000E+3 -1.977587E+2 -2.807036E+1
         vertex 1.560000E+3 -1.983488E+2 -2.816618E+1
      endloop
   endfacet
   facet normal 0.000000E+0 3.056023E-1 -9.521593E-1
      outer loop
         vertex 1.544000E+3 -1.983488E+2 -2.816618E+1
         vertex 1.560000E+3 -1.983488E+2 -2.816618E+1
         vertex 1.560000E+3 -1.989180E+2 -2.834888E+1
      endloop
   endfacet
   facet normal 0.000000E+0 3.056023E-1 -9.521593E-1
      outer loop
         vertex 1.544000E+3 -1.989180E+2 -2.834888E+1
         vertex 1.544000E+3 -1.983488E+2 -2.816618E+1
         vertex 1.560000E+3 -1.989180E+2 -2.834888E+1
      endloop
   endfacet
   facet normal 0.000000E+0 4.441047E-1 -8.959749E-1
      outer loop
         vertex 1.544000E+3 -1.989180E+2 -2.834888E+1
         vertex 1.560000E+3 -1.989180E+2 -2.834888E+1
         vertex 1.560000E+3 -1.994537E+2 -2.861439E+1
      endloop
   endfacet
   facet normal 0.000000E+0 4.441047E-1 -8.959749E-1
      outer loop
         vertex 1.544000E+3 -1.994537E+2 -2.861439E+1
         vertex 1.544000E+3 -1.989180E+2 -2.834888E+1
         vertex 1.560000E+3 -1.994537E+2 -2.861439E+1
      endloop
   endfacet
   facet normal 0.000000E+0 5.726797E-1 -8.197793E-1
      outer loop
         vertex 1.544000E+3 -1.994537E+2 -2.861439E+1
         vertex 1.560000E+3 -1.994537E+2 -2.861439E+1
         vertex 1.560000E+3 -1.999438E+2 -2.895676E+1
      endloop
   endfacet
   facet normal 0.000000E+0 5.726797E-1 -8.197793E-1
      outer loop
         vertex 1.544000E+3 -1.999438E+2 -2.895676E+1
         vertex 1.544000E+3 -1.994537E+2 -2.861439E+1
         vertex 1.560000E+3 -1.999438E+2 -2.895676E+1
      endloop
   endfacet
   facet normal 0.000000E+0 6.884667E-1 -7.252680E-1
      outer loop
         vertex 1.544000E+3 -1.999438E+2 -2.895676E+1
         vertex 1.560000E+3 -1.999438E+2 -2.895676E+1
         vertex 1.560000E+3 -2.003773E+2 -2.936835E+1
      endloop
   endfacet
   facet normal 0.000000E+0 6.884667E-1 -7.252680E-1
      outer loop
         vertex 1.544000E+3 -2.003773E+2 -2.936835E+1
         vertex 1.544000E+3 -1.999438E+2 -2.895676E+1
         vertex 1.560000E+3 -2.003773E+2 -2.936835E+1
      endloop
   endfacet
   facet normal 0.000000E+0 7.888653E-1 -6.145661E-1
      outer loop
         vertex 1.544000E+3 -2.003773E+2 -2.936835E+1
         vertex 1.560000E+3 -2.003773E+2 -2.936835E+1
         vertex 1.560000E+3 -2.007448E+2 -2.983997E+1
      endloop
   endfacet
   facet normal 0.000000E+0 7.888653E-1 -6.145661E-1
      outer loop
         vertex 1.544000E+3 -2.007448E+2 -2.983997E+1
         vertex 1.544000E+3 -2.003773E+2 -2.936835E+1
         vertex 1.560000E+3 -2.007448E+2 -2.983997E+1
      endloop
   endfacet
   facet normal 0.000000E+0 8.716543E-1 -4.901213E-1
      outer loop
         vertex 1.544000E+3 -2.007448E+2 -2.983997E+1
         vertex 1.560000E+3 -2.007448E+2 -2.983997E+1
         vertex 1.560000E+3 -2.010378E+2 -3.036108E+1
      endloop
   endfacet
   facet normal 0.000000E+0 8.716543E-1 -4.901213E-1
      outer loop
         vertex 1.544000E+3 -2.010378E+2 -3.036108E+1
         vertex 1.544000E+3 -2.007448E+2 -2.983997E+1
         vertex 1.560000E+3 -2.010378E+2 -3.036108E+1
      endloop
   endfacet
   facet normal 0.000000E+0 9.349717E-1 -3.547224E-1
      outer loop
         vertex 1.544000E+3 -2.010378E+2 -3.036108E+1
         vertex 1.560000E+3 -2.010378E+2 -3.036108E+1
         vertex 1.560000E+3 -2.012498E+2 -3.092004E+1
      endloop
   endfacet
   facet normal 0.000000E+0 9.349717E-1 -3.547224E-1
      outer loop
         vertex 1.544000E+3 -2.012498E+2 -3.092004E+1
         vertex 1.544000E+3 -2.010378E+2 -3.036108E+1
         vertex 1.560000E+3 -2.012498E+2 -3.092004E+1
      endloop
   endfacet
   facet normal 0.000000E+0 9.773977E-1 -2.114086E-1
      outer loop
         vertex 1.544000E+3 -2.012498E+2 -3.092004E+1
         vertex 1.560000E+3 -2.012498E+2 -3.092004E+1
         vertex 1.560000E+3 -2.013762E+2 -3.150437E+1
      endloop
   endfacet
   facet normal 0.000000E+0 9.773977E-1 -2.114086E-1
      outer loop
         vertex 1.544000E+3 -2.013762E+2 -3.150437E+1
         vertex 1.544000E+3 -2.012498E+2 -3.092004E+1
         vertex 1.560000E+3 -2.013762E+2 -3.150437E+1
      endloop
   endfacet
   facet normal 0.000000E+0 9.979883E-1 -6.339937E-2
      outer loop
         vertex 1.544000E+3 -2.013762E+2 -3.150437E+1
         vertex 1.560000E+3 -2.013762E+2 -3.150437E+1
         vertex 1.560000E+3 -2.014141E+2 -3.210101E+1
      endloop
   endfacet
   facet normal 0.000000E+0 9.979883E-1 -6.339937E-2
      outer loop
         vertex 1.544000E+3 -2.014141E+2 -3.210101E+1
         vertex 1.544000E+3 -2.013762E+2 -3.150437E+1
         vertex 1.560000E+3 -2.014141E+2 -3.210101E+1
      endloop
   endfacet
   facet normal -0.000000E+0 9.962896E-1 8.606459E-2
      outer loop
         vertex 1.544000E+3 -2.014141E+2 -3.210101E+1
         vertex 1.560000E+3 -2.014141E+2 -3.210101E+1
         vertex 1.560000E+3 -2.013627E+2 -3.269663E+1
      endloop
   endfacet
   facet normal -0.000000E+0 9.962896E-1 8.606459E-2
      outer loop
         vertex 1.544000E+3 -2.013627E+2 -3.269663E+1
         vertex 1.544000E+3 -2.014141E+2 -3.210101E+1
         vertex 1.560000E+3 -2.013627E+2 -3.269663E+1
      endloop
   endfacet
   facet normal 1.000000E+0 0.000000E+0 0.000000E+0
      outer loop
         vertex 1.544000E+3 -1.955423E+2 -2.921732E+1
         vertex 1.544000E+3 -1.949562E+2 -2.890003E+1
         vertex 1.544000E+3 -1.954539E+2 -2.856890E+1
      endloop
   endfacet
   facet normal 1.000000E+0 0.000000E+0 0.000000E+0
      outer loop
         vertex 1.544000E+3 -1.951007E+2 -2.956416E+1
         vertex 1.544000E+3 -1.945133E+2 -2.930166E+1
         vertex 1.544000E+3 -1.949562E+2 -2.890003E+1
      endloop
   endfacet
   facet normal 1.000000E+0 0.000000E+0 -0.000000E+0
      outer loop
         vertex 1.544000E+3 -1.951007E+2 -2.956416E+1
         vertex 1.544000E+3 -1.949562E+2 -2.890003E+1
         vertex 1.544000E+3 -1.955423E+2 -2.921732E+1
      endloop
   endfacet
   facet normal 1.000000E+0 0.000000E+0 0.000000E+0
      outer loop
         vertex 1.544000E+3 -1.960350E+2 -2.894790E+1
         vertex 1.544000E+3 -1.954539E+2 -2.856890E+1
         vertex 1.544000E+3 -1.959955E+2 -2.831565E+1
      endloop
   endfacet
   facet normal 1.000000E+0 -0.000000E+0 0.000000E+0
      outer loop
         vertex 1.544000E+3 -1.960350E+2 -2.894790E+1
         vertex 1.544000E+3 -1.955423E+2 -2.921732E+1
         vertex 1.544000E+3 -1.954539E+2 -2.856890E+1
      endloop
   endfacet
   facet normal 1.000000E+0 0.000000E+0 -0.000000E+0
      outer loop
         vertex 1.544000E+3 -1.947222E+2 -2.997895E+1
         vertex 1.544000E+3 -1.945133E+2 -2.930166E+1
         vertex 1.544000E+3 -1.951007E+2 -2.956416E+1
      endloop
   endfacet
   facet normal 1.000000E+0 0.000000E+0 0.000000E+0
      outer loop
         vertex 1.544000E+3 -1.947222E+2 -2.997895E+1
         vertex 1.544000E+3 -1.941353E+2 -2.976480E+1
         vertex 1.544000E+3 -1.945133E+2 -2.930166E+1
      endloop
   endfacet
   facet normal 1.000000E+0 0.000000E+0 -0.000000E+0
      outer loop
         vertex 1.544000E+3 -1.965653E+2 -2.876324E+1
         vertex 1.544000E+3 -1.959955E+2 -2.831565E+1
         vertex 1.544000E+3 -1.965687E+2 -2.814594E+1
      endloop
   endfacet
   facet normal 1.000000E+0 -0.000000E+0 0.000000E+0
      outer loop
         vertex 1.544000E+3 -1.965653E+2 -2.876324E+1
         vertex 1.544000E+3 -1.960350E+2 -2.894790E+1
         vertex 1.544000E+3 -1.959955E+2 -2.831565E+1
      endloop
   endfacet
   facet normal 1.000000E+0 0.000000E+0 -0.000000E+0
      outer loop
         vertex 1.544000E+3 -1.944171E+2 -3.045040E+1
         vertex 1.544000E+3 -1.941353E+2 -2.976480E+1
         vertex 1.544000E+3 -1.947222E+2 -2.997895E+1
      endloop
   endfacet
   facet normal 1.000000E+0 0.000000E+0 0.000000E+0
      outer loop
         vertex 1.544000E+3 -1.944171E+2 -3.045040E+1
         vertex 1.544000E+3 -1.938305E+2 -3.027911E+1
         vertex 1.544000E+3 -1.941353E+2 -2.976480E+1
      endloop
   endfacet
   facet normal 1.000000E+0 0.000000E+0 -0.000000E+0
      outer loop
         vertex 1.544000E+3 -1.971188E+2 -2.866839E+1
         vertex 1.544000E+3 -1.965687E+2 -2.814594E+1
         vertex 1.544000E+3 -1.971609E+2 -2.806356E+1
      endloop
   endfacet
   facet normal 1.000000E+0 -0.000000E+0 0.000000E+0
      outer loop
         vertex 1.544000E+3 -1.971188E+2 -2.866839E+1
         vertex 1.544000E+3 -1.965653E+2 -2.876324E+1
         vertex 1.544000E+3 -1.965687E+2 -2.814594E+1
      endloop
   endfacet
   facet normal 1.000000E+0 0.000000E+0 -0.000000E+0
      outer loop
         vertex 1.544000E+3 -1.941938E+2 -3.096562E+1
         vertex 1.544000E+3 -1.938305E+2 -3.027911E+1
         vertex 1.544000E+3 -1.944171E+2 -3.045040E+1
      endloop
   endfacet
   facet normal 1.000000E+0 0.000000E+0 0.000000E+0
      outer loop
         vertex 1.544000E+3 -1.941938E+2 -3.096562E+1
         vertex 1.544000E+3 -1.936058E+2 -3.083311E+1
         vertex 1.544000E+3 -1.938305E+2 -3.027911E+1
      endloop
   endfacet
   facet normal 1.000000E+0 -0.000000E+0 0.000000E+0
      outer loop
         vertex 1.544000E+3 -1.976803E+2 -2.866594E+1
         vertex 1.544000E+3 -1.971188E+2 -2.866839E+1
         vertex 1.544000E+3 -1.971609E+2 -2.806356E+1
      endloop
   endfacet
   facet normal 1.000000E+0 0.000000E+0 -0.000000E+0
      outer loop
         vertex 1.544000E+3 -1.976803E+2 -2.866594E+1
         vertex 1.544000E+3 -1.971609E+2 -2.806356E+1
         vertex 1.544000E+3 -1.977587E+2 -2.807036E+1
      endloop
   endfacet
   facet normal 1.000000E+0 0.000000E+0 0.000000E+0
      outer loop
         vertex 1.544000E+3 -1.976803E+2 -2.866594E+1
         vertex 1.544000E+3 -1.977587E+2 -2.807036E+1
         vertex 1.544000E+3 -1.983488E+2 -2.816618E+1
      endloop
   endfacet
   facet normal 1.000000E+0 0.000000E+0 -0.000000E+0
      outer loop
         vertex 1.544000E+3 -1.940583E+2 -3.151058E+1
         vertex 1.544000E+3 -1.936058E+2 -3.083311E+1
         vertex 1.544000E+3 -1.941938E+2 -3.096562E+1
      endloop
   endfacet
   facet normal 1.000000E+0 0.000000E+0 0.000000E+0
      outer loop
         vertex 1.544000E+3 -1.940583E+2 -3.151058E+1
         vertex 1.544000E+3 -1.934661E+2 -3.141441E+1
         vertex 1.544000E+3 -1.936058E+2 -3.083311E+1
      endloop
   endfacet
   facet normal 1.000000E+0 0.000000E+0 0.000000E+0
      outer loop
         vertex 1.544000E+3 -1.934147E+2 -3.201003E+1
         vertex 1.544000E+3 -1.934661E+2 -3.141441E+1
         vertex 1.544000E+3 -1.940583E+2 -3.151058E+1
      endloop
   endfacet
   facet normal 1.000000E+0 0.000000E+0 -0.000000E+0
      outer loop
         vertex 1.544000E+3 -1.982346E+2 -2.875594E+1
         vertex 1.544000E+3 -1.976803E+2 -2.866594E+1
         vertex 1.544000E+3 -1.983488E+2 -2.816618E+1
      endloop
   endfacet
   facet normal 1.000000E+0 -0.000000E+0 0.000000E+0
      outer loop
         vertex 1.544000E+3 -1.989180E+2 -2.834888E+1
         vertex 1.544000E+3 -1.982346E+2 -2.875594E+1
         vertex 1.544000E+3 -1.983488E+2 -2.816618E+1
      endloop
   endfacet
   facet normal 1.000000E+0 0.000000E+0 -0.000000E+0
      outer loop
         vertex 1.544000E+3 -1.940144E+2 -3.207040E+1
         vertex 1.544000E+3 -1.934147E+2 -3.201003E+1
         vertex 1.544000E+3 -1.940583E+2 -3.151058E+1
      endloop
   endfacet
   facet normal 1.000000E+0 0.000000E+0 -0.000000E+0
      outer loop
         vertex 1.544000E+3 -1.934525E+2 -3.260667E+1
         vertex 1.544000E+3 -1.934147E+2 -3.201003E+1
         vertex 1.544000E+3 -1.940144E+2 -3.207040E+1
      endloop
   endfacet
   facet normal 1.000000E+0 0.000000E+0 -0.000000E+0
      outer loop
         vertex 1.544000E+3 -1.987665E+2 -2.893595E+1
         vertex 1.544000E+3 -1.982346E+2 -2.875594E+1
         vertex 1.544000E+3 -1.989180E+2 -2.834888E+1
      endloop
   endfacet
   facet normal 1.000000E+0 -0.000000E+0 0.000000E+0
      outer loop
         vertex 1.544000E+3 -1.994537E+2 -2.861439E+1
         vertex 1.544000E+3 -1.987665E+2 -2.893595E+1
         vertex 1.544000E+3 -1.989180E+2 -2.834888E+1
      endloop
   endfacet
   facet normal 1.000000E+0 0.000000E+0 0.000000E+0
      outer loop
         vertex 1.544000E+3 -1.940632E+2 -3.262981E+1
         vertex 1.544000E+3 -1.934525E+2 -3.260667E+1
         vertex 1.544000E+3 -1.940144E+2 -3.207040E+1
      endloop
   endfacet
   facet normal 1.000000E+0 0.000000E+0 -0.000000E+0
      outer loop
         vertex 1.544000E+3 -1.935789E+2 -3.319100E+1
         vertex 1.544000E+3 -1.934525E+2 -3.260667E+1
         vertex 1.544000E+3 -1.940632E+2 -3.262981E+1
      endloop
   endfacet
   facet normal 1.000000E+0 0.000000E+0 -0.000000E+0
      outer loop
         vertex 1.544000E+3 -1.992616E+2 -2.920104E+1
         vertex 1.544000E+3 -1.987665E+2 -2.893595E+1
         vertex 1.544000E+3 -1.994537E+2 -2.861439E+1
      endloop
   endfacet
   facet normal 1.000000E+0 -0.000000E+0 0.000000E+0
      outer loop
         vertex 1.544000E+3 -1.999438E+2 -2.895676E+1
         vertex 1.544000E+3 -1.992616E+2 -2.920104E+1
         vertex 1.544000E+3 -1.994537E+2 -2.861439E+1
      endloop
   endfacet
   facet normal 1.000000E+0 -0.000000E+0 0.000000E+0
      outer loop
         vertex 1.544000E+3 -1.942035E+2 -3.317356E+1
         vertex 1.544000E+3 -1.935789E+2 -3.319100E+1
         vertex 1.544000E+3 -1.940632E+2 -3.262981E+1
      endloop
   endfacet
   facet normal 1.000000E+0 0.000000E+0 -0.000000E+0
      outer loop
         vertex 1.544000E+3 -1.937910E+2 -3.374996E+1
         vertex 1.544000E+3 -1.935789E+2 -3.319100E+1
         vertex 1.544000E+3 -1.942035E+2 -3.317356E+1
      endloop
   endfacet
   facet normal 1.000000E+0 0.000000E+0 -0.000000E+0
      outer loop
         vertex 1.544000E+3 -1.997062E+2 -2.954401E+1
         vertex 1.544000E+3 -1.992616E+2 -2.920104E+1
         vertex 1.544000E+3 -1.999438E+2 -2.895676E+1
      endloop
   endfacet
   facet normal 1.000000E+0 -0.000000E+0 0.000000E+0
      outer loop
         vertex 1.544000E+3 -2.003773E+2 -2.936835E+1
         vertex 1.544000E+3 -1.997062E+2 -2.954401E+1
         vertex 1.544000E+3 -1.999438E+2 -2.895676E+1
      endloop
   endfacet
   facet normal 1.000000E+0 -0.000000E+0 0.000000E+0
      outer loop
         vertex 1.544000E+3 -1.944313E+2 -3.368681E+1
         vertex 1.544000E+3 -1.937910E+2 -3.374996E+1
         vertex 1.544000E+3 -1.942035E+2 -3.317356E+1
      endloop
   endfacet
   facet normal 1.000000E+0 0.000000E+0 -0.000000E+0
      outer loop
         vertex 1.544000E+3 -1.940840E+2 -3.427107E+1
         vertex 1.544000E+3 -1.937910E+2 -3.374996E+1
         vertex 1.544000E+3 -1.944313E+2 -3.368681E+1
      endloop
   endfacet
   facet normal 1.000000E+0 0.000000E+0 -0.000000E+0
      outer loop
         vertex 1.544000E+3 -2.000883E+2 -2.995548E+1
         vertex 1.544000E+3 -1.997062E+2 -2.954401E+1
         vertex 1.544000E+3 -2.003773E+2 -2.936835E+1
      endloop
   endfacet
   facet normal 1.000000E+0 -0.000000E+0 0.000000E+0
      outer loop
         vertex 1.544000E+3 -1.947405E+2 -3.415556E+1
         vertex 1.544000E+3 -1.940840E+2 -3.427107E+1
         vertex 1.544000E+3 -1.944313E+2 -3.368681E+1
      endloop
   endfacet
   facet normal 1.000000E+0 -0.000000E+0 0.000000E+0
      outer loop
         vertex 1.544000E+3 -2.007448E+2 -2.983997E+1
         vertex 1.544000E+3 -2.000883E+2 -2.995548E+1
         vertex 1.544000E+3 -2.003773E+2 -2.936835E+1
      endloop
   endfacet
   facet normal 1.000000E+0 0.000000E+0 -0.000000E+0
      outer loop
         vertex 1.544000E+3 -2.003975E+2 -3.042423E+1
         vertex 1.544000E+3 -2.000883E+2 -2.995548E+1
         vertex 1.544000E+3 -2.007448E+2 -2.983997E+1
      endloop
   endfacet
   facet normal 1.000000E+0 0.000000E+0 -0.000000E+0
      outer loop
         vertex 1.544000E+3 -1.944514E+2 -3.474269E+1
         vertex 1.544000E+3 -1.940840E+2 -3.427107E+1
         vertex 1.544000E+3 -1.947405E+2 -3.415556E+1
      endloop
   endfacet
   facet normal 1.000000E+0 -0.000000E+0 0.000000E+0
      outer loop
         vertex 1.544000E+3 -1.951226E+2 -3.456703E+1
         vertex 1.544000E+3 -1.944514E+2 -3.474269E+1
         vertex 1.544000E+3 -1.947405E+2 -3.415556E+1
      endloop
   endfacet
   facet normal 1.000000E+0 -0.000000E+0 0.000000E+0
      outer loop
         vertex 1.544000E+3 -2.010378E+2 -3.036108E+1
         vertex 1.544000E+3 -2.003975E+2 -3.042423E+1
         vertex 1.544000E+3 -2.007448E+2 -2.983997E+1
      endloop
   endfacet
   facet normal 1.000000E+0 0.000000E+0 -0.000000E+0
      outer loop
         vertex 1.544000E+3 -2.006253E+2 -3.093748E+1
         vertex 1.544000E+3 -2.003975E+2 -3.042423E+1
         vertex 1.544000E+3 -2.010378E+2 -3.036108E+1
      endloop
   endfacet
   facet normal 1.000000E+0 0.000000E+0 -0.000000E+0
      outer loop
         vertex 1.544000E+3 -1.948850E+2 -3.515428E+1
         vertex 1.544000E+3 -1.944514E+2 -3.474269E+1
         vertex 1.544000E+3 -1.951226E+2 -3.456703E+1
      endloop
   endfacet
   facet normal 1.000000E+0 -0.000000E+0 0.000000E+0
      outer loop
         vertex 1.544000E+3 -1.955672E+2 -3.491000E+1
         vertex 1.544000E+3 -1.948850E+2 -3.515428E+1
         vertex 1.544000E+3 -1.951226E+2 -3.456703E+1
      endloop
   endfacet
   facet normal 1.000000E+0 -0.000000E+0 0.000000E+0
      outer loop
         vertex 1.544000E+3 -2.012498E+2 -3.092004E+1
         vertex 1.544000E+3 -2.006253E+2 -3.093748E+1
         vertex 1.544000E+3 -2.010378E+2 -3.036108E+1
      endloop
   endfacet
   facet normal 1.000000E+0 0.000000E+0 -0.000000E+0
      outer loop
         vertex 1.544000E+3 -2.007655E+2 -3.148123E+1
         vertex 1.544000E+3 -2.006253E+2 -3.093748E+1
         vertex 1.544000E+3 -2.012498E+2 -3.092004E+1
      endloop
   endfacet
   facet normal 1.000000E+0 0.000000E+0 -0.000000E+0
      outer loop
         vertex 1.544000E+3 -1.953751E+2 -3.549665E+1
         vertex 1.544000E+3 -1.948850E+2 -3.515428E+1
         vertex 1.544000E+3 -1.955672E+2 -3.491000E+1
      endloop
   endfacet
   facet normal 1.000000E+0 -0.000000E+0 0.000000E+0
      outer loop
         vertex 1.544000E+3 -1.960623E+2 -3.517509E+1
         vertex 1.544000E+3 -1.953751E+2 -3.549665E+1
         vertex 1.544000E+3 -1.955672E+2 -3.491000E+1
      endloop
   endfacet
   facet normal 1.000000E+0 0.000000E+0 0.000000E+0
      outer loop
         vertex 1.544000E+3 -2.013762E+2 -3.150437E+1
         vertex 1.544000E+3 -2.007655E+2 -3.148123E+1
         vertex 1.544000E+3 -2.012498E+2 -3.092004E+1
      endloop
   endfacet
   facet normal 1.000000E+0 0.000000E+0 -0.000000E+0
      outer loop
         vertex 1.544000E+3 -2.008144E+2 -3.204065E+1
         vertex 1.544000E+3 -2.007655E+2 -3.148123E+1
         vertex 1.544000E+3 -2.013762E+2 -3.150437E+1
      endloop
   endfacet
   facet normal 1.000000E+0 0.000000E+0 -0.000000E+0
      outer loop
         vertex 1.544000E+3 -1.959108E+2 -3.576215E+1
         vertex 1.544000E+3 -1.953751E+2 -3.549665E+1
         vertex 1.544000E+3 -1.960623E+2 -3.517509E+1
      endloop
   endfacet
   facet normal 1.000000E+0 -0.000000E+0 0.000000E+0
      outer loop
         vertex 1.544000E+3 -1.965942E+2 -3.535510E+1
         vertex 1.544000E+3 -1.959108E+2 -3.576215E+1
         vertex 1.544000E+3 -1.960623E+2 -3.517509E+1
      endloop
   endfacet
   facet normal 1.000000E+0 0.000000E+0 0.000000E+0
      outer loop
         vertex 1.544000E+3 -2.014141E+2 -3.210101E+1
         vertex 1.544000E+3 -2.008144E+2 -3.204065E+1
         vertex 1.544000E+3 -2.013762E+2 -3.150437E+1
      endloop
   endfacet
   facet normal 1.000000E+0 0.000000E+0 0.000000E+0
      outer loop
         vertex 1.544000E+3 -2.007704E+2 -3.260046E+1
         vertex 1.544000E+3 -2.008144E+2 -3.204065E+1
         vertex 1.544000E+3 -2.014141E+2 -3.210101E+1
      endloop
   endfacet
   facet normal 1.000000E+0 0.000000E+0 0.000000E+0
      outer loop
         vertex 1.544000E+3 -1.964800E+2 -3.594486E+1
         vertex 1.544000E+3 -1.965942E+2 -3.535510E+1
         vertex 1.544000E+3 -1.971485E+2 -3.544510E+1
      endloop
   endfacet
   facet normal 1.000000E+0 0.000000E+0 -0.000000E+0
      outer loop
         vertex 1.544000E+3 -1.964800E+2 -3.594486E+1
         vertex 1.544000E+3 -1.959108E+2 -3.576215E+1
         vertex 1.544000E+3 -1.965942E+2 -3.535510E+1
      endloop
   endfacet
   facet normal 1.000000E+0 0.000000E+0 -0.000000E+0
      outer loop
         vertex 1.544000E+3 -2.013627E+2 -3.269663E+1
         vertex 1.544000E+3 -2.007704E+2 -3.260046E+1
         vertex 1.544000E+3 -2.014141E+2 -3.210101E+1
      endloop
   endfacet
   facet normal 1.000000E+0 0.000000E+0 -0.000000E+0
      outer loop
         vertex 1.544000E+3 -1.970701E+2 -3.604068E+1
         vertex 1.544000E+3 -1.964800E+2 -3.594486E+1
         vertex 1.544000E+3 -1.971485E+2 -3.544510E+1
      endloop
   endfacet
   facet normal 1.000000E+0 0.000000E+0 -0.000000E+0
      outer loop
         vertex 1.544000E+3 -2.012230E+2 -3.327793E+1
         vertex 1.544000E+3 -2.007704E+2 -3.260046E+1
         vertex 1.544000E+3 -2.013627E+2 -3.269663E+1
      endloop
   endfacet
   facet normal 1.000000E+0 0.000000E+0 0.000000E+0
      outer loop
         vertex 1.544000E+3 -2.012230E+2 -3.327793E+1
         vertex 1.544000E+3 -2.006350E+2 -3.314542E+1
         vertex 1.544000E+3 -2.007704E+2 -3.260046E+1
      endloop
   endfacet
   facet normal 1.000000E+0 0.000000E+0 0.000000E+0
      outer loop
         vertex 1.544000E+3 -1.976679E+2 -3.604748E+1
         vertex 1.544000E+3 -1.970701E+2 -3.604068E+1
         vertex 1.544000E+3 -1.971485E+2 -3.544510E+1
      endloop
   endfacet
   facet normal 1.000000E+0 0.000000E+0 -0.000000E+0
      outer loop
         vertex 1.544000E+3 -1.976679E+2 -3.604748E+1
         vertex 1.544000E+3 -1.971485E+2 -3.544510E+1
         vertex 1.544000E+3 -1.977100E+2 -3.544265E+1
      endloop
   endfacet
   facet normal 1.000000E+0 0.000000E+0 -0.000000E+0
      outer loop
         vertex 1.544000E+3 -2.009983E+2 -3.383192E+1
         vertex 1.544000E+3 -2.006350E+2 -3.314542E+1
         vertex 1.544000E+3 -2.012230E+2 -3.327793E+1
      endloop
   endfacet
   facet normal 1.000000E+0 0.000000E+0 0.000000E+0
      outer loop
         vertex 1.544000E+3 -2.009983E+2 -3.383192E+1
         vertex 1.544000E+3 -2.004117E+2 -3.366064E+1
         vertex 1.544000E+3 -2.006350E+2 -3.314542E+1
      endloop
   endfacet
   facet normal 1.000000E+0 -0.000000E+0 0.000000E+0
      outer loop
         vertex 1.544000E+3 -1.982601E+2 -3.596510E+1
         vertex 1.544000E+3 -1.976679E+2 -3.604748E+1
         vertex 1.544000E+3 -1.977100E+2 -3.544265E+1
      endloop
   endfacet
   facet normal 1.000000E+0 0.000000E+0 -0.000000E+0
      outer loop
         vertex 1.544000E+3 -1.982601E+2 -3.596510E+1
         vertex 1.544000E+3 -1.977100E+2 -3.544265E+1
         vertex 1.544000E+3 -1.982635E+2 -3.534780E+1
      endloop
   endfacet
   facet normal 1.000000E+0 0.000000E+0 -0.000000E+0
      outer loop
         vertex 1.544000E+3 -2.006935E+2 -3.434624E+1
         vertex 1.544000E+3 -2.004117E+2 -3.366064E+1
         vertex 1.544000E+3 -2.009983E+2 -3.383192E+1
      endloop
   endfacet
   facet normal 1.000000E+0 0.000000E+0 0.000000E+0
      outer loop
         vertex 1.544000E+3 -2.006935E+2 -3.434624E+1
         vertex 1.544000E+3 -2.001066E+2 -3.413208E+1
         vertex 1.544000E+3 -2.004117E+2 -3.366064E+1
      endloop
   endfacet
   facet normal 1.000000E+0 -0.000000E+0 0.000000E+0
      outer loop
         vertex 1.544000E+3 -1.988333E+2 -3.579539E+1
         vertex 1.544000E+3 -1.982601E+2 -3.596510E+1
         vertex 1.544000E+3 -1.982635E+2 -3.534780E+1
      endloop
   endfacet
   facet normal 1.000000E+0 0.000000E+0 0.000000E+0
      outer loop
         vertex 1.544000E+3 -1.988333E+2 -3.579539E+1
         vertex 1.544000E+3 -1.982635E+2 -3.534780E+1
         vertex 1.544000E+3 -1.987938E+2 -3.516314E+1
      endloop
   endfacet
   facet normal 1.000000E+0 0.000000E+0 -0.000000E+0
      outer loop
         vertex 1.544000E+3 -2.003155E+2 -3.480938E+1
         vertex 1.544000E+3 -2.001066E+2 -3.413208E+1
         vertex 1.544000E+3 -2.006935E+2 -3.434624E+1
      endloop
   endfacet
   facet normal 1.000000E+0 0.000000E+0 0.000000E+0
      outer loop
         vertex 1.544000E+3 -2.003155E+2 -3.480938E+1
         vertex 1.544000E+3 -1.997281E+2 -3.454688E+1
         vertex 1.544000E+3 -2.001066E+2 -3.413208E+1
      endloop
   endfacet
   facet normal 1.000000E+0 -0.000000E+0 0.000000E+0
      outer loop
         vertex 1.544000E+3 -1.993749E+2 -3.554214E+1
         vertex 1.544000E+3 -1.988333E+2 -3.579539E+1
         vertex 1.544000E+3 -1.987938E+2 -3.516314E+1
      endloop
   endfacet
   facet normal 1.000000E+0 0.000000E+0 0.000000E+0
      outer loop
         vertex 1.544000E+3 -1.993749E+2 -3.554214E+1
         vertex 1.544000E+3 -1.987938E+2 -3.516314E+1
         vertex 1.544000E+3 -1.992865E+2 -3.489372E+1
      endloop
   endfacet
   facet normal 1.000000E+0 0.000000E+0 -0.000000E+0
      outer loop
         vertex 1.544000E+3 -1.998726E+2 -3.521101E+1
         vertex 1.544000E+3 -1.997281E+2 -3.454688E+1
         vertex 1.544000E+3 -2.003155E+2 -3.480938E+1
      endloop
   endfacet
   facet normal 1.000000E+0 -0.000000E+0 0.000000E+0
      outer loop
         vertex 1.544000E+3 -1.998726E+2 -3.521101E+1
         vertex 1.544000E+3 -1.993749E+2 -3.554214E+1
         vertex 1.544000E+3 -1.992865E+2 -3.489372E+1
      endloop
   endfacet
   facet normal 1.000000E+0 0.000000E+0 0.000000E+0
      outer loop
         vertex 1.544000E+3 -1.998726E+2 -3.521101E+1
         vertex 1.544000E+3 -1.992865E+2 -3.489372E+1
         vertex 1.544000E+3 -1.997281E+2 -3.454688E+1
      endloop
   endfacet
endsolid 45