solid 85
   facet normal 0.000000E+0 -5.834488E-1 8.121499E-1
      outer loop
         vertex -1.666600E+3 4.755644E+1 -3.554583E+1
         vertex -1.671600E+3 4.755644E+1 -3.554583E+1
         vertex -1.666600E+3 4.715646E+1 -3.583318E+1
      endloop
   endfacet
   facet normal 0.000000E+0 -5.834488E-1 8.121499E-1
      outer loop
         vertex -1.666600E+3 4.715646E+1 -3.583318E+1
         vertex -1.671600E+3 4.755644E+1 -3.554583E+1
         vertex -1.671600E+3 4.715646E+1 -3.583318E+1
      endloop
   endfacet
   facet normal 0.000000E+0 -4.792249E-1 8.776921E-1
      outer loop
         vertex -1.666600E+3 4.715646E+1 -3.583318E+1
         vertex -1.671600E+3 4.715646E+1 -3.583318E+1
         vertex -1.666600E+3 4.672421E+1 -3.606919E+1
      endloop
   endfacet
   facet normal 0.000000E+0 -4.792249E-1 8.776921E-1
      outer loop
         vertex -1.666600E+3 4.672421E+1 -3.606919E+1
         vertex -1.671600E+3 4.715646E+1 -3.583318E+1
         vertex -1.671600E+3 4.672421E+1 -3.606919E+1
      endloop
   endfacet
   facet normal 0.000000E+0 -3.677393E-1 9.299290E-1
      outer loop
         vertex -1.666600E+3 4.672421E+1 -3.606919E+1
         vertex -1.671600E+3 4.672421E+1 -3.606919E+1
         vertex -1.666600E+3 4.626624E+1 -3.625029E+1
      endloop
   endfacet
   facet normal 0.000000E+0 -3.677393E-1 9.299290E-1
      outer loop
         vertex -1.666600E+3 4.626624E+1 -3.625029E+1
         vertex -1.671600E+3 4.672421E+1 -3.606919E+1
         vertex -1.671600E+3 4.626624E+1 -3.625029E+1
      endloop
   endfacet
   facet normal 0.000000E+0 -2.506683E-1 9.680730E-1
      outer loop
         vertex -1.666600E+3 4.626624E+1 -3.625029E+1
         vertex -1.671600E+3 4.626624E+1 -3.625029E+1
         vertex -1.666600E+3 4.578947E+1 -3.637374E+1
      endloop
   endfacet
   facet normal 0.000000E+0 -2.506683E-1 9.680730E-1
      outer loop
         vertex -1.666600E+3 4.578947E+1 -3.637374E+1
         vertex -1.671600E+3 4.626624E+1 -3.625029E+1
         vertex -1.671600E+3 4.578947E+1 -3.637374E+1
      endloop
   endfacet
   facet normal 0.000000E+0 -1.298041E-1 9.915397E-1
      outer loop
         vertex -1.666600E+3 4.578947E+1 -3.637374E+1
         vertex -1.671600E+3 4.578947E+1 -3.637374E+1
         vertex -1.666600E+3 4.530115E+1 -3.643767E+1
      endloop
   endfacet
   facet normal 0.000000E+0 -1.298041E-1 9.915397E-1
      outer loop
         vertex -1.666600E+3 4.530115E+1 -3.643767E+1
         vertex -1.671600E+3 4.578947E+1 -3.637374E+1
         vertex -1.671600E+3 4.530115E+1 -3.643767E+1
      endloop
   endfacet
   facet normal 0.000000E+0 -6.971171E-3 9.999757E-1
      outer loop
         vertex -1.666600E+3 4.530115E+1 -3.643767E+1
         vertex -1.671600E+3 4.530115E+1 -3.643767E+1
         vertex -1.666600E+3 4.480867E+1 -3.644110E+1
      endloop
   endfacet
   facet normal 0.000000E+0 -6.971171E-3 9.999757E-1
      outer loop
         vertex -1.666600E+3 4.480867E+1 -3.644110E+1
         vertex -1.671600E+3 4.530115E+1 -3.643767E+1
         vertex -1.671600E+3 4.480867E+1 -3.644110E+1
      endloop
   endfacet
   facet normal 0.000000E+0 1.159702E-1 9.932527E-1
      outer loop
         vertex -1.666600E+3 4.480867E+1 -3.644110E+1
         vertex -1.671600E+3 4.480867E+1 -3.644110E+1
         vertex -1.666600E+3 4.431951E+1 -3.638399E+1
      endloop
   endfacet
   facet normal 0.000000E+0 1.159702E-1 9.932527E-1
      outer loop
         vertex -1.666600E+3 4.431951E+1 -3.638399E+1
         vertex -1.671600E+3 4.480867E+1 -3.644110E+1
         vertex -1.671600E+3 4.431951E+1 -3.638399E+1
      endloop
   endfacet
   facet normal 0.000000E+0 2.371445E-1 9.714743E-1
      outer loop
         vertex -1.666600E+3 4.431951E+1 -3.638399E+1
         vertex -1.671600E+3 4.431951E+1 -3.638399E+1
         vertex -1.666600E+3 4.384107E+1 -3.626720E+1
      endloop
   endfacet
   facet normal 0.000000E+0 2.371445E-1 9.714743E-1
      outer loop
         vertex -1.666600E+3 4.384107E+1 -3.626720E+1
         vertex -1.671600E+3 4.431951E+1 -3.638399E+1
         vertex -1.671600E+3 4.384107E+1 -3.626720E+1
      endloop
   endfacet
   facet normal 0.000000E+0 3.547327E-1 9.349678E-1
      outer loop
         vertex -1.666600E+3 4.384107E+1 -3.626720E+1
         vertex -1.671600E+3 4.384107E+1 -3.626720E+1
         vertex -1.666600E+3 4.338061E+1 -3.609250E+1
      endloop
   endfacet
   facet normal 0.000000E+0 3.547327E-1 9.349678E-1
      outer loop
         vertex -1.666600E+3 4.338061E+1 -3.609250E+1
         vertex -1.671600E+3 4.384107E+1 -3.626720E+1
         vertex -1.671600E+3 4.338061E+1 -3.609250E+1
      endloop
   endfacet
   facet normal 0.000000E+0 4.669390E-1 8.842895E-1
      outer loop
         vertex -1.666600E+3 4.338061E+1 -3.609250E+1
         vertex -1.671600E+3 4.338061E+1 -3.609250E+1
         vertex -1.666600E+3 4.294511E+1 -3.586254E+1
      endloop
   endfacet
   facet normal 0.000000E+0 4.669390E-1 8.842895E-1
      outer loop
         vertex -1.666600E+3 4.294511E+1 -3.586254E+1
         vertex -1.671600E+3 4.338061E+1 -3.609250E+1
         vertex -1.671600E+3 4.294511E+1 -3.586254E+1
      endloop
   endfacet
   facet normal 0.000000E+0 5.720646E-1 8.202085E-1
      outer loop
         vertex -1.666600E+3 4.294511E+1 -3.586254E+1
         vertex -1.671600E+3 4.294511E+1 -3.586254E+1
         vertex -1.666600E+3 4.254117E+1 -3.558080E+1
      endloop
   endfacet
   facet normal 0.000000E+0 5.720646E-1 8.202085E-1
      outer loop
         vertex -1.666600E+3 4.254117E+1 -3.558080E+1
         vertex -1.671600E+3 4.294511E+1 -3.586254E+1
         vertex -1.671600E+3 4.254117E+1 -3.558080E+1
      endloop
   endfacet
   facet normal 0.000000E+0 6.685289E-1 7.436861E-1
      outer loop
         vertex -1.666600E+3 4.254117E+1 -3.558080E+1
         vertex -1.671600E+3 4.254117E+1 -3.558080E+1
         vertex -1.666600E+3 4.217491E+1 -3.525156E+1
      endloop
   endfacet
   facet normal 0.000000E+0 6.685289E-1 7.436861E-1
      outer loop
         vertex -1.666600E+3 4.217491E+1 -3.525156E+1
         vertex -1.671600E+3 4.254117E+1 -3.558080E+1
         vertex -1.671600E+3 4.217491E+1 -3.525156E+1
      endloop
   endfacet
   facet normal 0.000000E+0 7.548499E-1 6.558975E-1
      outer loop
         vertex -1.666600E+3 4.217491E+1 -3.525156E+1
         vertex -1.671600E+3 4.217491E+1 -3.525156E+1
         vertex -1.666600E+3 4.185189E+1 -3.487981E+1
      endloop
   endfacet
   facet normal 0.000000E+0 7.548499E-1 6.558975E-1
      outer loop
         vertex -1.666600E+3 4.185189E+1 -3.487981E+1
         vertex -1.671600E+3 4.217491E+1 -3.525156E+1
         vertex -1.671600E+3 4.185189E+1 -3.487981E+1
      endloop
   endfacet
   facet normal 0.000000E+0 8.297312E-1 5.581631E-1
      outer loop
         vertex -1.666600E+3 4.185189E+1 -3.487981E+1
         vertex -1.671600E+3 4.185189E+1 -3.487981E+1
         vertex -1.666600E+3 4.157700E+1 -3.447118E+1
      endloop
   endfacet
   facet normal 0.000000E+0 8.297312E-1 5.581631E-1
      outer loop
         vertex -1.666600E+3 4.157700E+1 -3.447118E+1
         vertex -1.671600E+3 4.185189E+1 -3.487981E+1
         vertex -1.671600E+3 4.157700E+1 -3.447118E+1
      endloop
   endfacet
   facet normal 0.000000E+0 8.920351E-1 4.519663E-1
      outer loop
         vertex -1.666600E+3 4.157700E+1 -3.447118E+1
         vertex -1.671600E+3 4.157700E+1 -3.447118E+1
         vertex -1.666600E+3 4.135442E+1 -3.403186E+1
      endloop
   endfacet
   facet normal 0.000000E+0 8.920351E-1 4.519663E-1
      outer loop
         vertex -1.666600E+3 4.135442E+1 -3.403186E+1
         vertex -1.671600E+3 4.157700E+1 -3.447118E+1
         vertex -1.671600E+3 4.135442E+1 -3.403186E+1
      endloop
   endfacet
   facet normal 0.000000E+0 9.408141E-1 3.389230E-1
      outer loop
         vertex -1.666600E+3 4.135442E+1 -3.403186E+1
         vertex -1.671600E+3 4.135442E+1 -3.403186E+1
         vertex -1.666600E+3 4.118750E+1 -3.356852E+1
      endloop
   endfacet
   facet normal 0.000000E+0 9.408141E-1 3.389230E-1
      outer loop
         vertex -1.666600E+3 4.118750E+1 -3.356852E+1
         vertex -1.671600E+3 4.135442E+1 -3.403186E+1
         vertex -1.671600E+3 4.118750E+1 -3.356852E+1
      endloop
   endfacet
   facet normal 0.000000E+0 9.753329E-1 2.207392E-1
      outer loop
         vertex -1.666600E+3 4.118750E+1 -3.356852E+1
         vertex -1.671600E+3 4.118750E+1 -3.356852E+1
         vertex -1.666600E+3 4.107879E+1 -3.308818E+1
      endloop
   endfacet
   facet normal 0.000000E+0 9.753329E-1 2.207392E-1
      outer loop
         vertex -1.666600E+3 4.107879E+1 -3.308818E+1
         vertex -1.671600E+3 4.118750E+1 -3.356852E+1
         vertex -1.671600E+3 4.107879E+1 -3.308818E+1
      endloop
   endfacet
   facet normal 0.000000E+0 9.950667E-1 9.920845E-2
      outer loop
         vertex -1.666600E+3 4.107879E+1 -3.308818E+1
         vertex -1.671600E+3 4.107879E+1 -3.308818E+1
         vertex -1.666600E+3 4.102993E+1 -3.259813E+1
      endloop
   endfacet
   facet normal 0.000000E+0 9.950667E-1 9.920845E-2
      outer loop
         vertex -1.666600E+3 4.102993E+1 -3.259813E+1
         vertex -1.671600E+3 4.107879E+1 -3.308818E+1
         vertex -1.671600E+3 4.102993E+1 -3.259813E+1
      endloop
   endfacet
   facet normal 0.000000E+0 9.997161E-1 -2.382600E-2
      outer loop
         vertex -1.666600E+3 4.102993E+1 -3.259813E+1
         vertex -1.671600E+3 4.102993E+1 -3.259813E+1
         vertex -1.666600E+3 4.104166E+1 -3.210578E+1
      endloop
   endfacet
   facet normal 0.000000E+0 9.997161E-1 -2.382600E-2
      outer loop
         vertex -1.666600E+3 4.104166E+1 -3.210578E+1
         vertex -1.671600E+3 4.102993E+1 -3.259813E+1
         vertex -1.671600E+3 4.104166E+1 -3.210578E+1
      endloop
   endfacet
   facet normal 0.000000E+0 9.892113E-1 -1.464956E-1
      outer loop
         vertex -1.666600E+3 4.104166E+1 -3.210578E+1
         vertex -1.671600E+3 4.104166E+1 -3.210578E+1
         vertex -1.666600E+3 4.111381E+1 -3.161860E+1
      endloop
   endfacet
   facet normal 0.000000E+0 9.892113E-1 -1.464956E-1
      outer loop
         vertex -1.666600E+3 4.111381E+1 -3.161860E+1
         vertex -1.671600E+3 4.104166E+1 -3.210578E+1
         vertex -1.671600E+3 4.111381E+1 -3.161860E+1
      endloop
   endfacet
   facet normal 0.000000E+0 9.637102E-1 -2.669505E-1
      outer loop
         vertex -1.666600E+3 4.111381E+1 -3.161860E+1
         vertex -1.671600E+3 4.111381E+1 -3.161860E+1
         vertex -1.666600E+3 4.124528E+1 -3.114399E+1
      endloop
   endfacet
   facet normal 0.000000E+0 9.637102E-1 -2.669505E-1
      outer loop
         vertex -1.666600E+3 4.124528E+1 -3.114399E+1
         vertex -1.671600E+3 4.111381E+1 -3.161860E+1
         vertex -1.671600E+3 4.124528E+1 -3.114399E+1
      endloop
   endfacet
   facet normal 0.000000E+0 9.236011E-1 -3.833550E-1
      outer loop
         vertex -1.666600E+3 4.124528E+1 -3.114399E+1
         vertex -1.671600E+3 4.124528E+1 -3.114399E+1
         vertex -1.666600E+3 4.143408E+1 -3.068913E+1
      endloop
   endfacet
   facet normal 0.000000E+0 9.236011E-1 -3.833550E-1
      outer loop
         vertex -1.666600E+3 4.143408E+1 -3.068913E+1
         vertex -1.671600E+3 4.124528E+1 -3.114399E+1
         vertex -1.671600E+3 4.143408E+1 -3.068913E+1
      endloop
   endfacet
   facet normal 0.000000E+0 8.694911E-1 -4.939485E-1
      outer loop
         vertex -1.666600E+3 4.143408E+1 -3.068913E+1
         vertex -1.671600E+3 4.143408E+1 -3.068913E+1
         vertex -1.666600E+3 4.167734E+1 -3.026091E+1
      endloop
   endfacet
   facet normal 0.000000E+0 8.694911E-1 -4.939485E-1
      outer loop
         vertex -1.666600E+3 4.167734E+1 -3.026091E+1
         vertex -1.671600E+3 4.143408E+1 -3.068913E+1
         vertex -1.671600E+3 4.167734E+1 -3.026091E+1
      endloop
   endfacet
   facet normal 0.000000E+0 8.021976E-1 -5.970588E-1
      outer loop
         vertex -1.666600E+3 4.167734E+1 -3.026091E+1
         vertex -1.671600E+3 4.167734E+1 -3.026091E+1
         vertex -1.666600E+3 4.197139E+1 -2.986584E+1
      endloop
   endfacet
   facet normal 0.000000E+0 8.021976E-1 -5.970588E-1
      outer loop
         vertex -1.666600E+3 4.197139E+1 -2.986584E+1
         vertex -1.671600E+3 4.167734E+1 -3.026091E+1
         vertex -1.671600E+3 4.197139E+1 -2.986584E+1
      endloop
   endfacet
   facet normal 0.000000E+0 7.227505E-1 -6.911091E-1
      outer loop
         vertex -1.666600E+3 4.197139E+1 -2.986584E+1
         vertex -1.671600E+3 4.197139E+1 -2.986584E+1
         vertex -1.666600E+3 4.231175E+1 -2.950990E+1
      endloop
   endfacet
   facet normal 0.000000E+0 7.227505E-1 -6.911091E-1
      outer loop
         vertex -1.666600E+3 4.231175E+1 -2.950990E+1
         vertex -1.671600E+3 4.197139E+1 -2.986584E+1
         vertex -1.671600E+3 4.231175E+1 -2.950990E+1
      endloop
   endfacet
   facet normal 0.000000E+0 6.323375E-1 -7.746931E-1
      outer loop
         vertex -1.666600E+3 4.231175E+1 -2.950990E+1
         vertex -1.671600E+3 4.231175E+1 -2.950990E+1
         vertex -1.666600E+3 4.269328E+1 -2.919848E+1
      endloop
   endfacet
   facet normal 0.000000E+0 6.323375E-1 -7.746931E-1
      outer loop
         vertex -1.666600E+3 4.269328E+1 -2.919848E+1
         vertex -1.671600E+3 4.231175E+1 -2.950990E+1
         vertex -1.671600E+3 4.269328E+1 -2.919848E+1
      endloop
   endfacet
   facet normal 0.000000E+0 5.323502E-1 -8.465242E-1
      outer loop
         vertex -1.666600E+3 4.269328E+1 -2.919848E+1
         vertex -1.671600E+3 4.269328E+1 -2.919848E+1
         vertex -1.666600E+3 4.311018E+1 -2.893630E+1
      endloop
   endfacet
   facet normal 0.000000E+0 5.323502E-1 -8.465242E-1
      outer loop
         vertex -1.666600E+3 4.311018E+1 -2.893630E+1
         vertex -1.671600E+3 4.269328E+1 -2.919848E+1
         vertex -1.671600E+3 4.311018E+1 -2.893630E+1
      endloop
   endfacet
   facet normal 0.000000E+0 4.242834E-1 -9.055294E-1
      outer loop
         vertex -1.666600E+3 4.311018E+1 -2.893630E+1
         vertex -1.671600E+3 4.311018E+1 -2.893630E+1
         vertex -1.666600E+3 4.355614E+1 -2.872735E+1
      endloop
   endfacet
   facet normal 0.000000E+0 4.242834E-1 -9.055294E-1
      outer loop
         vertex -1.666600E+3 4.355614E+1 -2.872735E+1
         vertex -1.671600E+3 4.311018E+1 -2.893630E+1
         vertex -1.671600E+3 4.355614E+1 -2.872735E+1
      endloop
   endfacet
   facet normal 0.000000E+0 3.097908E-1 -9.508048E-1
      outer loop
         vertex -1.666600E+3 4.355614E+1 -2.872735E+1
         vertex -1.671600E+3 4.355614E+1 -2.872735E+1
         vertex -1.666600E+3 4.402440E+1 -2.857478E+1
      endloop
   endfacet
   facet normal 0.000000E+0 3.097908E-1 -9.508048E-1
      outer loop
         vertex -1.666600E+3 4.402440E+1 -2.857478E+1
         vertex -1.671600E+3 4.355614E+1 -2.872735E+1
         vertex -1.671600E+3 4.402440E+1 -2.857478E+1
      endloop
   endfacet
   facet normal 0.000000E+0 1.905964E-1 -9.816685E-1
      outer loop
         vertex -1.666600E+3 4.402440E+1 -2.857478E+1
         vertex -1.671600E+3 4.402440E+1 -2.857478E+1
         vertex -1.666600E+3 4.450786E+1 -2.848091E+1
      endloop
   endfacet
   facet normal 0.000000E+0 1.905964E-1 -9.816685E-1
      outer loop
         vertex -1.666600E+3 4.450786E+1 -2.848091E+1
         vertex -1.671600E+3 4.402440E+1 -2.857478E+1
         vertex -1.671600E+3 4.450786E+1 -2.848091E+1
      endloop
   endfacet
   facet normal 0.000000E+0 6.851925E-2 -9.976498E-1
      outer loop
         vertex -1.666600E+3 4.450786E+1 -2.848091E+1
         vertex -1.671600E+3 4.450786E+1 -2.848091E+1
         vertex -1.666600E+3 4.499919E+1 -2.844717E+1
      endloop
   endfacet
   facet normal 0.000000E+0 6.851925E-2 -9.976498E-1
      outer loop
         vertex -1.666600E+3 4.499919E+1 -2.844717E+1
         vertex -1.671600E+3 4.450786E+1 -2.848091E+1
         vertex -1.671600E+3 4.499919E+1 -2.844717E+1
      endloop
   endfacet
   facet normal -0.000000E+0 -5.460000E-2 -9.985083E-1
      outer loop
         vertex -1.666600E+3 4.499919E+1 -2.844717E+1
         vertex -1.671600E+3 4.499919E+1 -2.844717E+1
         vertex -1.666600E+3 4.549094E+1 -2.847406E+1
      endloop
   endfacet
   facet normal -0.000000E+0 -5.460000E-2 -9.985083E-1
      outer loop
         vertex -1.666600E+3 4.549094E+1 -2.847406E+1
         vertex -1.671600E+3 4.499919E+1 -2.844717E+1
         vertex -1.671600E+3 4.549094E+1 -2.847406E+1
      endloop
   endfacet
   facet normal -0.000000E+0 -1.768900E-1 -9.842307E-1
      outer loop
         vertex -1.666600E+3 4.549094E+1 -2.847406E+1
         vertex -1.671600E+3 4.549094E+1 -2.847406E+1
         vertex -1.666600E+3 4.597566E+1 -2.856117E+1
      endloop
   endfacet
   facet normal -0.000000E+0 -1.768900E-1 -9.842307E-1
      outer loop
         vertex -1.666600E+3 4.597566E+1 -2.856117E+1
         vertex -1.671600E+3 4.549094E+1 -2.847406E+1
         vertex -1.671600E+3 4.597566E+1 -2.856117E+1
      endloop
   endfacet
   facet normal -0.000000E+0 -2.965046E-1 -9.550314E-1
      outer loop
         vertex -1.666600E+3 4.597566E+1 -2.856117E+1
         vertex -1.671600E+3 4.597566E+1 -2.856117E+1
         vertex -1.666600E+3 4.644600E+1 -2.870720E+1
      endloop
   endfacet
   facet normal -0.000000E+0 -2.965046E-1 -9.550314E-1
      outer loop
         vertex -1.666600E+3 4.644600E+1 -2.870720E+1
         vertex -1.671600E+3 4.597566E+1 -2.856117E+1
         vertex -1.671600E+3 4.644600E+1 -2.870720E+1
      endloop
   endfacet
   facet normal -0.000000E+0 -4.116165E-1 -9.113572E-1
      outer loop
         vertex -1.666600E+3 4.644600E+1 -2.870720E+1
         vertex -1.671600E+3 4.644600E+1 -2.870720E+1
         vertex -1.666600E+3 4.689483E+1 -2.890991E+1
      endloop
   endfacet
   facet normal -0.000000E+0 -4.116165E-1 -9.113572E-1
      outer loop
         vertex -1.666600E+3 4.689483E+1 -2.890991E+1
         vertex -1.671600E+3 4.644600E+1 -2.870720E+1
         vertex -1.671600E+3 4.689483E+1 -2.890991E+1
      endloop
   endfacet
   facet normal -0.000000E+0 -5.204906E-1 -8.538674E-1
      outer loop
         vertex -1.666600E+3 4.689483E+1 -2.890991E+1
         vertex -1.671600E+3 4.689483E+1 -2.890991E+1
         vertex -1.666600E+3 4.731535E+1 -2.916625E+1
      endloop
   endfacet
   facet normal -0.000000E+0 -5.204906E-1 -8.538674E-1
      outer loop
         vertex -1.666600E+3 4.731535E+1 -2.916625E+1
         vertex -1.671600E+3 4.689483E+1 -2.890991E+1
         vertex -1.671600E+3 4.731535E+1 -2.916625E+1
      endloop
   endfacet
   facet normal -0.000000E+0 -6.214762E-1 -7.834331E-1
      outer loop
         vertex -1.666600E+3 4.731535E+1 -2.916625E+1
         vertex -1.671600E+3 4.731535E+1 -2.916625E+1
         vertex -1.666600E+3 4.770118E+1 -2.947232E+1
      endloop
   endfacet
   facet normal -0.000000E+0 -6.214762E-1 -7.834331E-1
      outer loop
         vertex -1.666600E+3 4.770118E+1 -2.947232E+1
         vertex -1.671600E+3 4.731535E+1 -2.916625E+1
         vertex -1.671600E+3 4.770118E+1 -2.947232E+1
      endloop
   endfacet
   facet normal -0.000000E+0 -7.130401E-1 -7.011232E-1
      outer loop
         vertex -1.666600E+3 4.770118E+1 -2.947232E+1
         vertex -1.671600E+3 4.770118E+1 -2.947232E+1
         vertex -1.666600E+3 4.804648E+1 -2.982348E+1
      endloop
   endfacet
   facet normal -0.000000E+0 -7.130401E-1 -7.011232E-1
      outer loop
         vertex -1.666600E+3 4.804648E+1 -2.982348E+1
         vertex -1.671600E+3 4.770118E+1 -2.947232E+1
         vertex -1.671600E+3 4.804648E+1 -2.982348E+1
      endloop
   endfacet
   facet normal -0.000000E+0 -7.937962E-1 -6.081839E-1
      outer loop
         vertex -1.666600E+3 4.804648E+1 -2.982348E+1
         vertex -1.671600E+3 4.804648E+1 -2.982348E+1
         vertex -1.666600E+3 4.834600E+1 -3.021442E+1
      endloop
   endfacet
   facet normal -0.000000E+0 -7.937962E-1 -6.081839E-1
      outer loop
         vertex -1.666600E+3 4.834600E+1 -3.021442E+1
         vertex -1.671600E+3 4.804648E+1 -2.982348E+1
         vertex -1.671600E+3 4.834600E+1 -3.021442E+1
      endloop
   endfacet
   facet normal -0.000000E+0 -8.625194E-1 -5.060239E-1
      outer loop
         vertex -1.666600E+3 4.834600E+1 -3.021442E+1
         vertex -1.671600E+3 4.834600E+1 -3.021442E+1
         vertex -1.666600E+3 4.859521E+1 -3.063920E+1
      endloop
   endfacet
   facet normal -0.000000E+0 -8.625194E-1 -5.060239E-1
      outer loop
         vertex -1.666600E+3 4.859521E+1 -3.063920E+1
         vertex -1.671600E+3 4.834600E+1 -3.021442E+1
         vertex -1.671600E+3 4.859521E+1 -3.063920E+1
      endloop
   endfacet
   facet normal -0.000000E+0 -9.181656E-1 -3.961968E-1
      outer loop
         vertex -1.666600E+3 4.859521E+1 -3.063920E+1
         vertex -1.671600E+3 4.859521E+1 -3.063920E+1
         vertex -1.666600E+3 4.879033E+1 -3.109138E+1
      endloop
   endfacet
   facet normal -0.000000E+0 -9.181656E-1 -3.961968E-1
      outer loop
         vertex -1.666600E+3 4.879033E+1 -3.109138E+1
         vertex -1.671600E+3 4.859521E+1 -3.063920E+1
         vertex -1.671600E+3 4.879033E+1 -3.109138E+1
      endloop
   endfacet
   facet normal -0.000000E+0 -9.598933E-1 -2.803655E-1
      outer loop
         vertex -1.666600E+3 4.879033E+1 -3.109138E+1
         vertex -1.671600E+3 4.879033E+1 -3.109138E+1
         vertex -1.666600E+3 4.892841E+1 -3.156412E+1
      endloop
   endfacet
   facet normal -0.000000E+0 -9.598933E-1 -2.803655E-1
      outer loop
         vertex -1.666600E+3 4.892841E+1 -3.156412E+1
         vertex -1.671600E+3 4.879033E+1 -3.109138E+1
         vertex -1.671600E+3 4.892841E+1 -3.156412E+1
      endloop
   endfacet
   facet normal -0.000000E+0 -9.870722E-1 -1.602764E-1
      outer loop
         vertex -1.666600E+3 4.892841E+1 -3.156412E+1
         vertex -1.671600E+3 4.892841E+1 -3.156412E+1
         vertex -1.666600E+3 4.900734E+1 -3.205024E+1
      endloop
   endfacet
   facet normal -0.000000E+0 -9.870722E-1 -1.602764E-1
      outer loop
         vertex -1.666600E+3 4.900734E+1 -3.205024E+1
         vertex -1.671600E+3 4.892841E+1 -3.156412E+1
         vertex -1.671600E+3 4.900734E+1 -3.205024E+1
      endloop
   endfacet
   facet normal -0.000000E+0 -9.992868E-1 -3.776053E-2
      outer loop
         vertex -1.666600E+3 4.900734E+1 -3.205024E+1
         vertex -1.671600E+3 4.900734E+1 -3.205024E+1
         vertex -1.666600E+3 4.902594E+1 -3.254237E+1
      endloop
   endfacet
   facet normal -0.000000E+0 -9.992868E-1 -3.776053E-2
      outer loop
         vertex -1.666600E+3 4.902594E+1 -3.254237E+1
         vertex -1.671600E+3 4.900734E+1 -3.205024E+1
         vertex -1.671600E+3 4.902594E+1 -3.254237E+1
      endloop
   endfacet
   facet normal 0.000000E+0 -9.963536E-1 8.531963E-2
      outer loop
         vertex -1.666600E+3 4.902594E+1 -3.254237E+1
         vertex -1.671600E+3 4.902594E+1 -3.254237E+1
         vertex -1.666600E+3 4.898392E+1 -3.303307E+1
      endloop
   endfacet
   facet normal 0.000000E+0 -9.963536E-1 8.531963E-2
      outer loop
         vertex -1.666600E+3 4.898392E+1 -3.303307E+1
         vertex -1.671600E+3 4.902594E+1 -3.254237E+1
         vertex -1.671600E+3 4.898392E+1 -3.303307E+1
      endloop
   endfacet
   facet normal 0.000000E+0 -9.783151E-1 2.071221E-1
      outer loop
         vertex -1.666600E+3 4.898392E+1 -3.303307E+1
         vertex -1.671600E+3 4.898392E+1 -3.303307E+1
         vertex -1.666600E+3 4.888192E+1 -3.351487E+1
      endloop
   endfacet
   facet normal 0.000000E+0 -9.783151E-1 2.071221E-1
      outer loop
         vertex -1.666600E+3 4.888192E+1 -3.351487E+1
         vertex -1.671600E+3 4.898392E+1 -3.303307E+1
         vertex -1.671600E+3 4.888192E+1 -3.351487E+1
      endloop
   endfacet
   facet normal 0.000000E+0 -9.454485E-1 3.257715E-1
      outer loop
         vertex -1.666600E+3 4.888192E+1 -3.351487E+1
         vertex -1.671600E+3 4.888192E+1 -3.351487E+1
         vertex -1.666600E+3 4.872148E+1 -3.398050E+1
      endloop
   endfacet
   facet normal 0.000000E+0 -9.454485E-1 3.257715E-1
      outer loop
         vertex -1.666600E+3 4.872148E+1 -3.398050E+1
         vertex -1.671600E+3 4.888192E+1 -3.351487E+1
         vertex -1.671600E+3 4.872148E+1 -3.398050E+1
      endloop
   endfacet
   facet normal 0.000000E+0 -8.982514E-1 4.394821E-1
      outer loop
         vertex -1.666600E+3 4.872148E+1 -3.398050E+1
         vertex -1.671600E+3 4.872148E+1 -3.398050E+1
         vertex -1.666600E+3 4.850504E+1 -3.442287E+1
      endloop
   endfacet
   facet normal 0.000000E+0 -8.982514E-1 4.394821E-1
      outer loop
         vertex -1.666600E+3 4.850504E+1 -3.442287E+1
         vertex -1.671600E+3 4.872148E+1 -3.398050E+1
         vertex -1.671600E+3 4.850504E+1 -3.442287E+1
      endloop
   endfacet
   facet normal 0.000000E+0 -8.374326E-1 5.465407E-1
      outer loop
         vertex -1.666600E+3 4.850504E+1 -3.442287E+1
         vertex -1.671600E+3 4.850504E+1 -3.442287E+1
         vertex -1.666600E+3 4.823587E+1 -3.483530E+1
      endloop
   endfacet
   facet normal 0.000000E+0 -8.374326E-1 5.465407E-1
      outer loop
         vertex -1.666600E+3 4.823587E+1 -3.483530E+1
         vertex -1.671600E+3 4.850504E+1 -3.442287E+1
         vertex -1.671600E+3 4.823587E+1 -3.483530E+1
      endloop
   endfacet
   facet normal 0.000000E+0 -7.639210E-1 6.453097E-1
      outer loop
         vertex -1.666600E+3 4.823587E+1 -3.483530E+1
         vertex -1.671600E+3 4.823587E+1 -3.483530E+1
         vertex -1.666600E+3 4.791807E+1 -3.521152E+1
      endloop
   endfacet
   facet normal 0.000000E+0 -7.639210E-1 6.453097E-1
      outer loop
         vertex -1.666600E+3 4.791807E+1 -3.521152E+1
         vertex -1.671600E+3 4.823587E+1 -3.483530E+1
         vertex -1.671600E+3 4.791807E+1 -3.521152E+1
      endloop
   endfacet
   facet normal 0.000000E+0 -6.788329E-1 7.342927E-1
      outer loop
         vertex -1.666600E+3 4.791807E+1 -3.521152E+1
         vertex -1.671600E+3 4.791807E+1 -3.521152E+1
         vertex -1.666600E+3 4.755644E+1 -3.554583E+1
      endloop
   endfacet
   facet normal 0.000000E+0 -6.788329E-1 7.342927E-1
      outer loop
         vertex -1.666600E+3 4.755644E+1 -3.554583E+1
         vertex -1.671600E+3 4.791807E+1 -3.521152E+1
         vertex -1.671600E+3 4.755644E+1 -3.554583E+1
      endloop
   endfacet
endsolid 85