solid 86
   facet normal 0.000000E+0 -9.118451E-1 4.105343E-1
      outer loop
         vertex -1.666600E+3 5.895800E+1 -7.005376E+0
         vertex -1.671600E+3 5.895800E+1 -7.005376E+0
         vertex -1.671600E+3 5.875970E+1 -7.445822E+0
      endloop
   endfacet
   facet normal 0.000000E+0 -9.118451E-1 4.105343E-1
      outer loop
         vertex -1.666600E+3 5.875970E+1 -7.445822E+0
         vertex -1.666600E+3 5.895800E+1 -7.005376E+0
         vertex -1.671600E+3 5.875970E+1 -7.445822E+0
      endloop
   endfacet
   facet normal 0.000000E+0 -8.557094E-1 5.174567E-1
      outer loop
         vertex -1.666600E+3 5.875970E+1 -7.445822E+0
         vertex -1.671600E+3 5.875970E+1 -7.445822E+0
         vertex -1.671600E+3 5.850975E+1 -7.859155E+0
      endloop
   endfacet
   facet normal 0.000000E+0 -8.557094E-1 5.174567E-1
      outer loop
         vertex -1.666600E+3 5.850975E+1 -7.859155E+0
         vertex -1.666600E+3 5.875970E+1 -7.445822E+0
         vertex -1.671600E+3 5.850975E+1 -7.859155E+0
      endloop
   endfacet
   facet normal 0.000000E+0 -7.871004E-1 6.168248E-1
      outer loop
         vertex -1.666600E+3 5.850975E+1 -7.859155E+0
         vertex -1.671600E+3 5.850975E+1 -7.859155E+0
         vertex -1.671600E+3 5.821181E+1 -8.239346E+0
      endloop
   endfacet
   facet normal 0.000000E+0 -7.871004E-1 6.168248E-1
      outer loop
         vertex -1.666600E+3 5.821181E+1 -8.239346E+0
         vertex -1.666600E+3 5.850975E+1 -7.859155E+0
         vertex -1.671600E+3 5.821181E+1 -8.239346E+0
      endloop
   endfacet
   facet normal 0.000000E+0 -7.070120E-1 7.072015E-1
      outer loop
         vertex -1.666600E+3 5.821181E+1 -8.239346E+0
         vertex -1.671600E+3 5.821181E+1 -8.239346E+0
         vertex -1.671600E+3 5.787021E+1 -8.580853E+0
      endloop
   endfacet
   facet normal 0.000000E+0 -7.070120E-1 7.072015E-1
      outer loop
         vertex -1.666600E+3 5.787021E+1 -8.580853E+0
         vertex -1.666600E+3 5.821181E+1 -8.239346E+0
         vertex -1.671600E+3 5.787021E+1 -8.580853E+0
      endloop
   endfacet
   facet normal 0.000000E+0 -6.166112E-1 7.872677E-1
      outer loop
         vertex -1.666600E+3 5.787021E+1 -8.580853E+0
         vertex -1.671600E+3 5.787021E+1 -8.580853E+0
         vertex -1.671600E+3 5.748994E+1 -8.878693E+0
      endloop
   endfacet
   facet normal 0.000000E+0 -6.166112E-1 7.872677E-1
      outer loop
         vertex -1.666600E+3 5.748994E+1 -8.878693E+0
         vertex -1.666600E+3 5.787021E+1 -8.580853E+0
         vertex -1.671600E+3 5.748994E+1 -8.878693E+0
      endloop
   endfacet
   facet normal 0.000000E+0 -5.172239E-1 8.558501E-1
      outer loop
         vertex -1.666600E+3 5.748994E+1 -8.878693E+0
         vertex -1.671600E+3 5.748994E+1 -8.878693E+0
         vertex -1.671600E+3 5.707654E+1 -9.128526E+0
      endloop
   endfacet
   facet normal 0.000000E+0 -5.172239E-1 8.558501E-1
      outer loop
         vertex -1.666600E+3 5.707654E+1 -9.128526E+0
         vertex -1.666600E+3 5.748994E+1 -8.878693E+0
         vertex -1.671600E+3 5.707654E+1 -9.128526E+0
      endloop
   endfacet
   facet normal 0.000000E+0 -4.102875E-1 9.119563E-1
      outer loop
         vertex -1.666600E+3 5.707654E+1 -9.128526E+0
         vertex -1.671600E+3 5.707654E+1 -9.128526E+0
         vertex -1.671600E+3 5.663604E+1 -9.326707E+0
      endloop
   endfacet
   facet normal 0.000000E+0 -4.102875E-1 9.119563E-1
      outer loop
         vertex -1.666600E+3 5.663604E+1 -9.326707E+0
         vertex -1.666600E+3 5.707654E+1 -9.128526E+0
         vertex -1.671600E+3 5.663604E+1 -9.326707E+0
      endloop
   endfacet
   facet normal 0.000000E+0 -2.973746E-1 9.547609E-1
      outer loop
         vertex -1.666600E+3 5.663604E+1 -9.326707E+0
         vertex -1.671600E+3 5.663604E+1 -9.326707E+0
         vertex -1.671600E+3 5.617487E+1 -9.470346E+0
      endloop
   endfacet
   facet normal 0.000000E+0 -2.973746E-1 9.547609E-1
      outer loop
         vertex -1.666600E+3 5.617487E+1 -9.470346E+0
         vertex -1.666600E+3 5.663604E+1 -9.326707E+0
         vertex -1.671600E+3 5.617487E+1 -9.470346E+0
      endloop
   endfacet
   facet normal 0.000000E+0 -1.801232E-1 9.836441E-1
      outer loop
         vertex -1.666600E+3 5.617487E+1 -9.470346E+0
         vertex -1.671600E+3 5.617487E+1 -9.470346E+0
         vertex -1.671600E+3 5.569974E+1 -9.557351E+0
      endloop
   endfacet
   facet normal 0.000000E+0 -1.801232E-1 9.836441E-1
      outer loop
         vertex -1.666600E+3 5.569974E+1 -9.557351E+0
         vertex -1.666600E+3 5.617487E+1 -9.470346E+0
         vertex -1.671600E+3 5.569974E+1 -9.557351E+0
      endloop
   endfacet
   facet normal 0.000000E+0 -6.024183E-2 9.981838E-1
      outer loop
         vertex -1.666600E+3 5.569974E+1 -9.557351E+0
         vertex -1.671600E+3 5.569974E+1 -9.557351E+0
         vertex -1.671600E+3 5.521759E+1 -9.586450E+0
      endloop
   endfacet
   facet normal 0.000000E+0 -6.024183E-2 9.981838E-1
      outer loop
         vertex -1.666600E+3 5.521759E+1 -9.586450E+0
         vertex -1.666600E+3 5.569974E+1 -9.557351E+0
         vertex -1.671600E+3 5.521759E+1 -9.586450E+0
      endloop
   endfacet
   facet normal 0.000000E+0 6.051229E-2 9.981674E-1
      outer loop
         vertex -1.666600E+3 5.521759E+1 -9.586450E+0
         vertex -1.671600E+3 5.521759E+1 -9.586450E+0
         vertex -1.671600E+3 5.473544E+1 -9.557220E+0
      endloop
   endfacet
   facet normal 0.000000E+0 6.051229E-2 9.981674E-1
      outer loop
         vertex -1.666600E+3 5.473544E+1 -9.557220E+0
         vertex -1.666600E+3 5.521759E+1 -9.586450E+0
         vertex -1.671600E+3 5.473544E+1 -9.557220E+0
      endloop
   endfacet
   facet normal 0.000000E+0 1.803895E-1 9.835953E-1
      outer loop
         vertex -1.666600E+3 5.473544E+1 -9.557220E+0
         vertex -1.671600E+3 5.473544E+1 -9.557220E+0
         vertex -1.671600E+3 5.426034E+1 -9.470087E+0
      endloop
   endfacet
   facet normal 0.000000E+0 1.803895E-1 9.835953E-1
      outer loop
         vertex -1.666600E+3 5.426034E+1 -9.470087E+0
         vertex -1.666600E+3 5.473544E+1 -9.557220E+0
         vertex -1.671600E+3 5.426034E+1 -9.470087E+0
      endloop
   endfacet
   facet normal 0.000000E+0 2.976328E-1 9.546804E-1
      outer loop
         vertex -1.666600E+3 5.426034E+1 -9.470087E+0
         vertex -1.671600E+3 5.426034E+1 -9.470087E+0
         vertex -1.671600E+3 5.379920E+1 -9.326323E+0
      endloop
   endfacet
   facet normal 0.000000E+0 2.976328E-1 9.546804E-1
      outer loop
         vertex -1.666600E+3 5.379920E+1 -9.326323E+0
         vertex -1.666600E+3 5.426034E+1 -9.470087E+0
         vertex -1.671600E+3 5.379920E+1 -9.326323E+0
      endloop
   endfacet
   facet normal 0.000000E+0 4.105341E-1 9.118452E-1
      outer loop
         vertex -1.666600E+3 5.379920E+1 -9.326323E+0
         vertex -1.671600E+3 5.379920E+1 -9.326323E+0
         vertex -1.671600E+3 5.335875E+1 -9.128022E+0
      endloop
   endfacet
   facet normal 0.000000E+0 4.105341E-1 9.118452E-1
      outer loop
         vertex -1.666600E+3 5.335875E+1 -9.128022E+0
         vertex -1.666600E+3 5.379920E+1 -9.326323E+0
         vertex -1.671600E+3 5.335875E+1 -9.128022E+0
      endloop
   endfacet
   facet normal 0.000000E+0 5.174560E-1 8.557099E-1
      outer loop
         vertex -1.666600E+3 5.294542E+1 -8.878078E+0
         vertex -1.666600E+3 5.335875E+1 -9.128022E+0
         vertex -1.671600E+3 5.294542E+1 -8.878078E+0
      endloop
   endfacet
   facet normal 0.000000E+0 5.174560E-1 8.557099E-1
      outer loop
         vertex -1.666600E+3 5.335875E+1 -9.128022E+0
         vertex -1.671600E+3 5.335875E+1 -9.128022E+0
         vertex -1.671600E+3 5.294542E+1 -8.878078E+0
      endloop
   endfacet
   facet normal 0.000000E+0 6.168251E-1 7.871002E-1
      outer loop
         vertex -1.666600E+3 5.256523E+1 -8.580133E+0
         vertex -1.666600E+3 5.294542E+1 -8.878078E+0
         vertex -1.671600E+3 5.256523E+1 -8.580133E+0
      endloop
   endfacet
   facet normal 0.000000E+0 6.168251E-1 7.871002E-1
      outer loop
         vertex -1.666600E+3 5.294542E+1 -8.878078E+0
         vertex -1.671600E+3 5.294542E+1 -8.878078E+0
         vertex -1.671600E+3 5.256523E+1 -8.580133E+0
      endloop
   endfacet
   facet normal 0.000000E+0 7.072015E-1 7.070120E-1
      outer loop
         vertex -1.666600E+3 5.222372E+1 -8.238535E+0
         vertex -1.666600E+3 5.256523E+1 -8.580133E+0
         vertex -1.671600E+3 5.222372E+1 -8.238535E+0
      endloop
   endfacet
   facet normal 0.000000E+0 7.072015E-1 7.070120E-1
      outer loop
         vertex -1.666600E+3 5.256523E+1 -8.580133E+0
         vertex -1.671600E+3 5.256523E+1 -8.580133E+0
         vertex -1.671600E+3 5.222372E+1 -8.238535E+0
      endloop
   endfacet
   facet normal 0.000000E+0 7.872677E-1 6.166112E-1
      outer loop
         vertex -1.666600E+3 5.192588E+1 -7.858263E+0
         vertex -1.666600E+3 5.222372E+1 -8.238535E+0
         vertex -1.671600E+3 5.192588E+1 -7.858263E+0
      endloop
   endfacet
   facet normal 0.000000E+0 7.872677E-1 6.166112E-1
      outer loop
         vertex -1.666600E+3 5.222372E+1 -8.238535E+0
         vertex -1.671600E+3 5.222372E+1 -8.238535E+0
         vertex -1.671600E+3 5.192588E+1 -7.858263E+0
      endloop
   endfacet
   facet normal 0.000000E+0 8.558518E-1 5.172212E-1
      outer loop
         vertex -1.666600E+3 5.167605E+1 -7.444863E+0
         vertex -1.666600E+3 5.192588E+1 -7.858263E+0
         vertex -1.671600E+3 5.167605E+1 -7.444863E+0
      endloop
   endfacet
   facet normal 0.000000E+0 8.558518E-1 5.172212E-1
      outer loop
         vertex -1.666600E+3 5.192588E+1 -7.858263E+0
         vertex -1.671600E+3 5.192588E+1 -7.858263E+0
         vertex -1.671600E+3 5.167605E+1 -7.444863E+0
      endloop
   endfacet
   facet normal 0.000000E+0 9.119554E-1 4.102893E-1
      outer loop
         vertex -1.666600E+3 5.147787E+1 -7.004363E+0
         vertex -1.666600E+3 5.167605E+1 -7.444863E+0
         vertex -1.671600E+3 5.147787E+1 -7.004363E+0
      endloop
   endfacet
   facet normal 0.000000E+0 9.119554E-1 4.102893E-1
      outer loop
         vertex -1.666600E+3 5.167605E+1 -7.444863E+0
         vertex -1.671600E+3 5.167605E+1 -7.444863E+0
         vertex -1.671600E+3 5.147787E+1 -7.004363E+0
      endloop
   endfacet
   facet normal 0.000000E+0 9.547597E-1 2.973786E-1
      outer loop
         vertex -1.666600E+3 5.133423E+1 -6.543187E+0
         vertex -1.666600E+3 5.147787E+1 -7.004363E+0
         vertex -1.671600E+3 5.133423E+1 -6.543187E+0
      endloop
   endfacet
   facet normal 0.000000E+0 9.547597E-1 2.973786E-1
      outer loop
         vertex -1.666600E+3 5.147787E+1 -7.004363E+0
         vertex -1.671600E+3 5.147787E+1 -7.004363E+0
         vertex -1.671600E+3 5.133423E+1 -6.543187E+0
      endloop
   endfacet
   facet normal 0.000000E+0 9.836451E-1 1.801177E-1
      outer loop
         vertex -1.666600E+3 5.124723E+1 -6.068059E+0
         vertex -1.666600E+3 5.133423E+1 -6.543187E+0
         vertex -1.671600E+3 5.124723E+1 -6.068059E+0
      endloop
   endfacet
   facet normal 0.000000E+0 9.836451E-1 1.801177E-1
      outer loop
         vertex -1.666600E+3 5.133423E+1 -6.543187E+0
         vertex -1.671600E+3 5.133423E+1 -6.543187E+0
         vertex -1.671600E+3 5.124723E+1 -6.068059E+0
      endloop
   endfacet
   facet normal 0.000000E+0 9.981838E-1 6.024183E-2
      outer loop
         vertex -1.666600E+3 5.121813E+1 -5.585908E+0
         vertex -1.666600E+3 5.124723E+1 -6.068059E+0
         vertex -1.671600E+3 5.121813E+1 -5.585908E+0
      endloop
   endfacet
   facet normal 0.000000E+0 9.981838E-1 6.024183E-2
      outer loop
         vertex -1.666600E+3 5.124723E+1 -6.068059E+0
         vertex -1.671600E+3 5.124723E+1 -6.068059E+0
         vertex -1.671600E+3 5.121813E+1 -5.585908E+0
      endloop
   endfacet
   facet normal 0.000000E+0 9.981676E-1 -6.051044E-2
      outer loop
         vertex -1.666600E+3 5.121813E+1 -5.585908E+0
         vertex -1.671600E+3 5.121813E+1 -5.585908E+0
         vertex -1.671600E+3 5.124736E+1 -5.103765E+0
      endloop
   endfacet
   facet normal 0.000000E+0 9.981676E-1 -6.051044E-2
      outer loop
         vertex -1.666600E+3 5.124736E+1 -5.103765E+0
         vertex -1.666600E+3 5.121813E+1 -5.585908E+0
         vertex -1.671600E+3 5.124736E+1 -5.103765E+0
      endloop
   endfacet
   facet normal 0.000000E+0 9.835958E-1 -1.803860E-1
      outer loop
         vertex -1.666600E+3 5.124736E+1 -5.103765E+0
         vertex -1.671600E+3 5.124736E+1 -5.103765E+0
         vertex -1.671600E+3 5.133449E+1 -4.628661E+0
      endloop
   endfacet
   facet normal 0.000000E+0 9.835958E-1 -1.803860E-1
      outer loop
         vertex -1.666600E+3 5.133449E+1 -4.628661E+0
         vertex -1.666600E+3 5.124736E+1 -5.103765E+0
         vertex -1.671600E+3 5.133449E+1 -4.628661E+0
      endloop
   endfacet
   facet normal 0.000000E+0 9.546784E-1 -2.976391E-1
      outer loop
         vertex -1.666600E+3 5.133449E+1 -4.628661E+0
         vertex -1.671600E+3 5.133449E+1 -4.628661E+0
         vertex -1.671600E+3 5.147826E+1 -4.167524E+0
      endloop
   endfacet
   facet normal 0.000000E+0 9.546784E-1 -2.976391E-1
      outer loop
         vertex -1.666600E+3 5.147826E+1 -4.167524E+0
         vertex -1.666600E+3 5.133449E+1 -4.628661E+0
         vertex -1.671600E+3 5.147826E+1 -4.167524E+0
      endloop
   endfacet
   facet normal 0.000000E+0 9.118451E-1 -4.105343E-1
      outer loop
         vertex -1.666600E+3 5.147826E+1 -4.167524E+0
         vertex -1.671600E+3 5.147826E+1 -4.167524E+0
         vertex -1.671600E+3 5.167656E+1 -3.727077E+0
      endloop
   endfacet
   facet normal 0.000000E+0 9.118451E-1 -4.105343E-1
      outer loop
         vertex -1.666600E+3 5.167656E+1 -3.727077E+0
         vertex -1.666600E+3 5.147826E+1 -4.167524E+0
         vertex -1.671600E+3 5.167656E+1 -3.727077E+0
      endloop
   endfacet
   facet normal 0.000000E+0 8.557129E-1 -5.174509E-1
      outer loop
         vertex -1.666600E+3 5.167656E+1 -3.727077E+0
         vertex -1.671600E+3 5.167656E+1 -3.727077E+0
         vertex -1.671600E+3 5.192650E+1 -3.313745E+0
      endloop
   endfacet
   facet normal 0.000000E+0 8.557129E-1 -5.174509E-1
      outer loop
         vertex -1.666600E+3 5.192650E+1 -3.313745E+0
         vertex -1.666600E+3 5.167656E+1 -3.727077E+0
         vertex -1.671600E+3 5.192650E+1 -3.313745E+0
      endloop
   endfacet
   facet normal 0.000000E+0 7.870970E-1 -6.168292E-1
      outer loop
         vertex -1.666600E+3 5.192650E+1 -3.313745E+0
         vertex -1.671600E+3 5.192650E+1 -3.313745E+0
         vertex -1.671600E+3 5.222445E+1 -2.933554E+0
      endloop
   endfacet
   facet normal 0.000000E+0 7.870970E-1 -6.168292E-1
      outer loop
         vertex -1.666600E+3 5.222445E+1 -2.933554E+0
         vertex -1.666600E+3 5.192650E+1 -3.313745E+0
         vertex -1.671600E+3 5.222445E+1 -2.933554E+0
      endloop
   endfacet
   facet normal 0.000000E+0 7.070110E-1 -7.072026E-1
      outer loop
         vertex -1.666600E+3 5.222445E+1 -2.933554E+0
         vertex -1.671600E+3 5.222445E+1 -2.933554E+0
         vertex -1.671600E+3 5.256604E+1 -2.592048E+0
      endloop
   endfacet
   facet normal 0.000000E+0 7.070110E-1 -7.072026E-1
      outer loop
         vertex -1.666600E+3 5.256604E+1 -2.592048E+0
         vertex -1.666600E+3 5.222445E+1 -2.933554E+0
         vertex -1.671600E+3 5.256604E+1 -2.592048E+0
      endloop
   endfacet
   facet normal 0.000000E+0 6.166124E-1 -7.872669E-1
      outer loop
         vertex -1.666600E+3 5.256604E+1 -2.592048E+0
         vertex -1.671600E+3 5.256604E+1 -2.592048E+0
         vertex -1.671600E+3 5.294632E+1 -2.294207E+0
      endloop
   endfacet
   facet normal 0.000000E+0 6.166124E-1 -7.872669E-1
      outer loop
         vertex -1.666600E+3 5.294632E+1 -2.294207E+0
         vertex -1.666600E+3 5.256604E+1 -2.592048E+0
         vertex -1.671600E+3 5.294632E+1 -2.294207E+0
      endloop
   endfacet
   facet normal 0.000000E+0 5.172231E-1 -8.558505E-1
      outer loop
         vertex -1.666600E+3 5.294632E+1 -2.294207E+0
         vertex -1.671600E+3 5.294632E+1 -2.294207E+0
         vertex -1.671600E+3 5.335971E+1 -2.044374E+0
      endloop
   endfacet
   facet normal 0.000000E+0 5.172231E-1 -8.558505E-1
      outer loop
         vertex -1.666600E+3 5.335971E+1 -2.044374E+0
         vertex -1.666600E+3 5.294632E+1 -2.294207E+0
         vertex -1.671600E+3 5.335971E+1 -2.044374E+0
      endloop
   endfacet
   facet normal 0.000000E+0 4.102905E-1 -9.119549E-1
      outer loop
         vertex -1.666600E+3 5.335971E+1 -2.044374E+0
         vertex -1.671600E+3 5.335971E+1 -2.044374E+0
         vertex -1.671600E+3 5.380021E+1 -1.846193E+0
      endloop
   endfacet
   facet normal 0.000000E+0 4.102905E-1 -9.119549E-1
      outer loop
         vertex -1.666600E+3 5.380021E+1 -1.846193E+0
         vertex -1.666600E+3 5.335971E+1 -2.044374E+0
         vertex -1.671600E+3 5.380021E+1 -1.846193E+0
      endloop
   endfacet
   facet normal 0.000000E+0 2.973728E-1 -9.547614E-1
      outer loop
         vertex -1.666600E+3 5.380021E+1 -1.846193E+0
         vertex -1.671600E+3 5.380021E+1 -1.846193E+0
         vertex -1.671600E+3 5.426139E+1 -1.702553E+0
      endloop
   endfacet
   facet normal 0.000000E+0 2.973728E-1 -9.547614E-1
      outer loop
         vertex -1.666600E+3 5.426139E+1 -1.702553E+0
         vertex -1.666600E+3 5.380021E+1 -1.846193E+0
         vertex -1.671600E+3 5.426139E+1 -1.702553E+0
      endloop
   endfacet
   facet normal 0.000000E+0 1.801218E-1 -9.836444E-1
      outer loop
         vertex -1.666600E+3 5.426139E+1 -1.702553E+0
         vertex -1.671600E+3 5.426139E+1 -1.702553E+0
         vertex -1.671600E+3 5.473652E+1 -1.615549E+0
      endloop
   endfacet
   facet normal 0.000000E+0 1.801218E-1 -9.836444E-1
      outer loop
         vertex -1.666600E+3 5.473652E+1 -1.615549E+0
         vertex -1.666600E+3 5.426139E+1 -1.702553E+0
         vertex -1.671600E+3 5.473652E+1 -1.615549E+0
      endloop
   endfacet
   facet normal 0.000000E+0 6.024306E-2 -9.981837E-1
      outer loop
         vertex -1.666600E+3 5.473652E+1 -1.615549E+0
         vertex -1.671600E+3 5.473652E+1 -1.615549E+0
         vertex -1.671600E+3 5.521867E+1 -1.586450E+0
      endloop
   endfacet
   facet normal 0.000000E+0 6.024306E-2 -9.981837E-1
      outer loop
         vertex -1.666600E+3 5.521867E+1 -1.586450E+0
         vertex -1.666600E+3 5.473652E+1 -1.615549E+0
         vertex -1.671600E+3 5.521867E+1 -1.586450E+0
      endloop
   endfacet
   facet normal -0.000000E+0 -6.051352E-2 -9.981674E-1
      outer loop
         vertex -1.666600E+3 5.521867E+1 -1.586450E+0
         vertex -1.671600E+3 5.521867E+1 -1.586450E+0
         vertex -1.671600E+3 5.570081E+1 -1.615680E+0
      endloop
   endfacet
   facet normal -0.000000E+0 -6.051352E-2 -9.981674E-1
      outer loop
         vertex -1.666600E+3 5.570081E+1 -1.615680E+0
         vertex -1.666600E+3 5.521867E+1 -1.586450E+0
         vertex -1.671600E+3 5.570081E+1 -1.615680E+0
      endloop
   endfacet
   facet normal -0.000000E+0 -1.803892E-1 -9.835953E-1
      outer loop
         vertex -1.666600E+3 5.570081E+1 -1.615680E+0
         vertex -1.671600E+3 5.570081E+1 -1.615680E+0
         vertex -1.671600E+3 5.617591E+1 -1.702812E+0
      endloop
   endfacet
   facet normal -0.000000E+0 -1.803892E-1 -9.835953E-1
      outer loop
         vertex -1.666600E+3 5.617591E+1 -1.702812E+0
         vertex -1.666600E+3 5.570081E+1 -1.615680E+0
         vertex -1.671600E+3 5.617591E+1 -1.702812E+0
      endloop
   endfacet
   facet normal -0.000000E+0 -2.976310E-1 -9.546810E-1
      outer loop
         vertex -1.666600E+3 5.617591E+1 -1.702812E+0
         vertex -1.671600E+3 5.617591E+1 -1.702812E+0
         vertex -1.671600E+3 5.663705E+1 -1.846577E+0
      endloop
   endfacet
   facet normal -0.000000E+0 -2.976310E-1 -9.546810E-1
      outer loop
         vertex -1.666600E+3 5.663705E+1 -1.846577E+0
         vertex -1.666600E+3 5.617591E+1 -1.702812E+0
         vertex -1.671600E+3 5.663705E+1 -1.846577E+0
      endloop
   endfacet
   facet normal -0.000000E+0 -4.105373E-1 -9.118438E-1
      outer loop
         vertex -1.666600E+3 5.663705E+1 -1.846577E+0
         vertex -1.671600E+3 5.663705E+1 -1.846577E+0
         vertex -1.671600E+3 5.707750E+1 -2.044878E+0
      endloop
   endfacet
   facet normal -0.000000E+0 -4.105373E-1 -9.118438E-1
      outer loop
         vertex -1.666600E+3 5.707750E+1 -2.044878E+0
         vertex -1.666600E+3 5.663705E+1 -1.846577E+0
         vertex -1.671600E+3 5.707750E+1 -2.044878E+0
      endloop
   endfacet
   facet normal -0.000000E+0 -5.174525E-1 -8.557119E-1
      outer loop
         vertex -1.666600E+3 5.707750E+1 -2.044878E+0
         vertex -1.671600E+3 5.707750E+1 -2.044878E+0
         vertex -1.671600E+3 5.749083E+1 -2.294822E+0
      endloop
   endfacet
   facet normal -0.000000E+0 -5.174525E-1 -8.557119E-1
      outer loop
         vertex -1.666600E+3 5.749083E+1 -2.294822E+0
         vertex -1.666600E+3 5.707750E+1 -2.044878E+0
         vertex -1.671600E+3 5.749083E+1 -2.294822E+0
      endloop
   endfacet
   facet normal -0.000000E+0 -6.168251E-1 -7.871002E-1
      outer loop
         vertex -1.666600E+3 5.749083E+1 -2.294822E+0
         vertex -1.671600E+3 5.749083E+1 -2.294822E+0
         vertex -1.671600E+3 5.787103E+1 -2.592766E+0
      endloop
   endfacet
   facet normal -0.000000E+0 -6.168251E-1 -7.871002E-1
      outer loop
         vertex -1.666600E+3 5.787103E+1 -2.592766E+0
         vertex -1.666600E+3 5.749083E+1 -2.294822E+0
         vertex -1.671600E+3 5.787103E+1 -2.592766E+0
      endloop
   endfacet
   facet normal -0.000000E+0 -7.072055E-1 -7.070080E-1
      outer loop
         vertex -1.666600E+3 5.787103E+1 -2.592766E+0
         vertex -1.671600E+3 5.787103E+1 -2.592766E+0
         vertex -1.671600E+3 5.821253E+1 -2.934365E+0
      endloop
   endfacet
   facet normal -0.000000E+0 -7.072055E-1 -7.070080E-1
      outer loop
         vertex -1.666600E+3 5.821253E+1 -2.934365E+0
         vertex -1.666600E+3 5.787103E+1 -2.592766E+0
         vertex -1.671600E+3 5.821253E+1 -2.934365E+0
      endloop
   endfacet
   facet normal -0.000000E+0 -7.872640E-1 -6.166161E-1
      outer loop
         vertex -1.666600E+3 5.821253E+1 -2.934365E+0
         vertex -1.671600E+3 5.821253E+1 -2.934365E+0
         vertex -1.671600E+3 5.851037E+1 -3.314637E+0
      endloop
   endfacet
   facet normal -0.000000E+0 -7.872640E-1 -6.166161E-1
      outer loop
         vertex -1.666600E+3 5.851037E+1 -3.314637E+0
         vertex -1.666600E+3 5.821253E+1 -2.934365E+0
         vertex -1.671600E+3 5.851037E+1 -3.314637E+0
      endloop
   endfacet
   facet normal -0.000000E+0 -8.558518E-1 -5.172212E-1
      outer loop
         vertex -1.666600E+3 5.851037E+1 -3.314637E+0
         vertex -1.671600E+3 5.851037E+1 -3.314637E+0
         vertex -1.671600E+3 5.876020E+1 -3.728037E+0
      endloop
   endfacet
   facet normal -0.000000E+0 -8.558518E-1 -5.172212E-1
      outer loop
         vertex -1.666600E+3 5.876020E+1 -3.728037E+0
         vertex -1.666600E+3 5.851037E+1 -3.314637E+0
         vertex -1.671600E+3 5.876020E+1 -3.728037E+0
      endloop
   endfacet
   facet normal -0.000000E+0 -9.119554E-1 -4.102893E-1
      outer loop
         vertex -1.666600E+3 5.876020E+1 -3.728037E+0
         vertex -1.671600E+3 5.876020E+1 -3.728037E+0
         vertex -1.671600E+3 5.895839E+1 -4.168537E+0
      endloop
   endfacet
   facet normal -0.000000E+0 -9.119554E-1 -4.102893E-1
      outer loop
         vertex -1.666600E+3 5.895839E+1 -4.168537E+0
         vertex -1.666600E+3 5.876020E+1 -3.728037E+0
         vertex -1.671600E+3 5.895839E+1 -4.168537E+0
      endloop
   endfacet
   facet normal -0.000000E+0 -9.547619E-1 -2.973714E-1
      outer loop
         vertex -1.666600E+3 5.895839E+1 -4.168537E+0
         vertex -1.671600E+3 5.895839E+1 -4.168537E+0
         vertex -1.671600E+3 5.910202E+1 -4.629713E+0
      endloop
   endfacet
   facet normal -0.000000E+0 -9.547619E-1 -2.973714E-1
      outer loop
         vertex -1.666600E+3 5.910202E+1 -4.629713E+0
         vertex -1.666600E+3 5.895839E+1 -4.168537E+0
         vertex -1.671600E+3 5.910202E+1 -4.629713E+0
      endloop
   endfacet
   facet normal -0.000000E+0 -9.836437E-1 -1.801253E-1
      outer loop
         vertex -1.666600E+3 5.918903E+1 -5.104841E+0
         vertex -1.666600E+3 5.910202E+1 -4.629713E+0
         vertex -1.671600E+3 5.918903E+1 -5.104841E+0
      endloop
   endfacet
   facet normal -0.000000E+0 -9.836437E-1 -1.801253E-1
      outer loop
         vertex -1.666600E+3 5.910202E+1 -4.629713E+0
         vertex -1.671600E+3 5.910202E+1 -4.629713E+0
         vertex -1.671600E+3 5.918903E+1 -5.104841E+0
      endloop
   endfacet
   facet normal -0.000000E+0 -9.981838E-1 -6.024183E-2
      outer loop
         vertex -1.666600E+3 5.921813E+1 -5.586992E+0
         vertex -1.666600E+3 5.918903E+1 -5.104841E+0
         vertex -1.671600E+3 5.921813E+1 -5.586992E+0
      endloop
   endfacet
   facet normal -0.000000E+0 -9.981838E-1 -6.024183E-2
      outer loop
         vertex -1.666600E+3 5.918903E+1 -5.104841E+0
         vertex -1.671600E+3 5.918903E+1 -5.104841E+0
         vertex -1.671600E+3 5.921813E+1 -5.586992E+0
      endloop
   endfacet
   facet normal 0.000000E+0 -9.981671E-1 6.051831E-2
      outer loop
         vertex -1.666600E+3 5.918890E+1 -6.069134E+0
         vertex -1.666600E+3 5.921813E+1 -5.586992E+0
         vertex -1.671600E+3 5.918890E+1 -6.069134E+0
      endloop
   endfacet
   facet normal 0.000000E+0 -9.981671E-1 6.051831E-2
      outer loop
         vertex -1.666600E+3 5.921813E+1 -5.586992E+0
         vertex -1.671600E+3 5.921813E+1 -5.586992E+0
         vertex -1.671600E+3 5.918890E+1 -6.069134E+0
      endloop
   endfacet
   facet normal 0.000000E+0 -9.835958E-1 1.803860E-1
      outer loop
         vertex -1.666600E+3 5.910176E+1 -6.544239E+0
         vertex -1.666600E+3 5.918890E+1 -6.069134E+0
         vertex -1.671600E+3 5.910176E+1 -6.544239E+0
      endloop
   endfacet
   facet normal 0.000000E+0 -9.835958E-1 1.803860E-1
      outer loop
         vertex -1.666600E+3 5.918890E+1 -6.069134E+0
         vertex -1.671600E+3 5.918890E+1 -6.069134E+0
         vertex -1.671600E+3 5.910176E+1 -6.544239E+0
      endloop
   endfacet
   facet normal 0.000000E+0 -9.546807E-1 2.976319E-1
      outer loop
         vertex -1.666600E+3 5.895800E+1 -7.005376E+0
         vertex -1.666600E+3 5.910176E+1 -6.544239E+0
         vertex -1.671600E+3 5.895800E+1 -7.005376E+0
      endloop
   endfacet
   facet normal 0.000000E+0 -9.546807E-1 2.976319E-1
      outer loop
         vertex -1.666600E+3 5.910176E+1 -6.544239E+0
         vertex -1.671600E+3 5.910176E+1 -6.544239E+0
         vertex -1.671600E+3 5.895800E+1 -7.005376E+0
      endloop
   endfacet
endsolid 86