solid 98
   facet normal 0.000000E+0 -9.058434E-1 4.236126E-1
      outer loop
         vertex -1.737000E+3 -1.688269E+1 -5.295493E+1
         vertex -1.749000E+3 -1.688269E+1 -5.295493E+1
         vertex -1.737000E+3 -1.707263E+1 -5.336109E+1
      endloop
   endfacet
   facet normal 0.000000E+0 -9.058434E-1 4.236126E-1
      outer loop
         vertex -1.737000E+3 -1.707263E+1 -5.336109E+1
         vertex -1.749000E+3 -1.688269E+1 -5.295493E+1
         vertex -1.749000E+3 -1.707263E+1 -5.336109E+1
      endloop
   endfacet
   facet normal 0.000000E+0 -8.325918E-1 5.538871E-1
      outer loop
         vertex -1.737000E+3 -1.707263E+1 -5.336109E+1
         vertex -1.749000E+3 -1.707263E+1 -5.336109E+1
         vertex -1.737000E+3 -1.732099E+1 -5.373441E+1
      endloop
   endfacet
   facet normal 0.000000E+0 -8.325918E-1 5.538871E-1
      outer loop
         vertex -1.737000E+3 -1.732099E+1 -5.373441E+1
         vertex -1.749000E+3 -1.707263E+1 -5.336109E+1
         vertex -1.749000E+3 -1.732099E+1 -5.373441E+1
      endloop
   endfacet
   facet normal 0.000000E+0 -7.407412E-1 6.717904E-1
      outer loop
         vertex -1.737000E+3 -1.732099E+1 -5.373441E+1
         vertex -1.749000E+3 -1.732099E+1 -5.373441E+1
         vertex -1.737000E+3 -1.762220E+1 -5.406654E+1
      endloop
   endfacet
   facet normal 0.000000E+0 -7.407412E-1 6.717904E-1
      outer loop
         vertex -1.737000E+3 -1.762220E+1 -5.406654E+1
         vertex -1.749000E+3 -1.732099E+1 -5.373441E+1
         vertex -1.749000E+3 -1.762220E+1 -5.406654E+1
      endloop
   endfacet
   facet normal 0.000000E+0 -6.323425E-1 7.746889E-1
      outer loop
         vertex -1.737000E+3 -1.762220E+1 -5.406654E+1
         vertex -1.749000E+3 -1.762220E+1 -5.406654E+1
         vertex -1.737000E+3 -1.796956E+1 -5.435007E+1
      endloop
   endfacet
   facet normal 0.000000E+0 -6.323425E-1 7.746889E-1
      outer loop
         vertex -1.737000E+3 -1.796956E+1 -5.435007E+1
         vertex -1.749000E+3 -1.762220E+1 -5.406654E+1
         vertex -1.749000E+3 -1.796956E+1 -5.435007E+1
      endloop
   endfacet
   facet normal 0.000000E+0 -5.098163E-1 8.602832E-1
      outer loop
         vertex -1.737000E+3 -1.796956E+1 -5.435007E+1
         vertex -1.749000E+3 -1.796956E+1 -5.435007E+1
         vertex -1.737000E+3 -1.835530E+1 -5.457867E+1
      endloop
   endfacet
   facet normal 0.000000E+0 -5.098163E-1 8.602832E-1
      outer loop
         vertex -1.737000E+3 -1.835530E+1 -5.457867E+1
         vertex -1.749000E+3 -1.796956E+1 -5.435007E+1
         vertex -1.749000E+3 -1.835530E+1 -5.457867E+1
      endloop
   endfacet
   facet normal 0.000000E+0 -3.758983E-1 9.266609E-1
      outer loop
         vertex -1.737000E+3 -1.835530E+1 -5.457867E+1
         vertex -1.749000E+3 -1.835530E+1 -5.457867E+1
         vertex -1.737000E+3 -1.877079E+1 -5.474721E+1
      endloop
   endfacet
   facet normal 0.000000E+0 -3.758983E-1 9.266609E-1
      outer loop
         vertex -1.737000E+3 -1.877079E+1 -5.474721E+1
         vertex -1.749000E+3 -1.835530E+1 -5.457867E+1
         vertex -1.749000E+3 -1.877079E+1 -5.474721E+1
      endloop
   endfacet
   facet normal 0.000000E+0 -2.335963E-1 9.723337E-1
      outer loop
         vertex -1.737000E+3 -1.877079E+1 -5.474721E+1
         vertex -1.749000E+3 -1.877079E+1 -5.474721E+1
         vertex -1.737000E+3 -1.920677E+1 -5.485195E+1
      endloop
   endfacet
   facet normal 0.000000E+0 -2.335963E-1 9.723337E-1
      outer loop
         vertex -1.737000E+3 -1.920677E+1 -5.485195E+1
         vertex -1.749000E+3 -1.877079E+1 -5.474721E+1
         vertex -1.749000E+3 -1.920677E+1 -5.485195E+1
      endloop
   endfacet
   facet normal 0.000000E+0 -8.606423E-2 9.962896E-1
      outer loop
         vertex -1.737000E+3 -1.920677E+1 -5.485195E+1
         vertex -1.749000E+3 -1.920677E+1 -5.485195E+1
         vertex -1.737000E+3 -1.965348E+1 -5.489054E+1
      endloop
   endfacet
   facet normal 0.000000E+0 -8.606423E-2 9.962896E-1
      outer loop
         vertex -1.737000E+3 -1.965348E+1 -5.489054E+1
         vertex -1.749000E+3 -1.920677E+1 -5.485195E+1
         vertex -1.749000E+3 -1.965348E+1 -5.489054E+1
      endloop
   endfacet
   facet normal 0.000000E+0 6.338250E-2 9.979894E-1
      outer loop
         vertex -1.737000E+3 -1.965348E+1 -5.489054E+1
         vertex -1.749000E+3 -1.965348E+1 -5.489054E+1
         vertex -1.737000E+3 -2.010096E+1 -5.486212E+1
      endloop
   endfacet
   facet normal 0.000000E+0 6.338250E-2 9.979894E-1
      outer loop
         vertex -1.737000E+3 -2.010096E+1 -5.486212E+1
         vertex -1.749000E+3 -1.965348E+1 -5.489054E+1
         vertex -1.749000E+3 -2.010096E+1 -5.486212E+1
      endloop
   endfacet
   facet normal 0.000000E+0 2.114167E-1 9.773961E-1
      outer loop
         vertex -1.737000E+3 -2.010096E+1 -5.486212E+1
         vertex -1.749000E+3 -2.010096E+1 -5.486212E+1
         vertex -1.737000E+3 -2.053921E+1 -5.476733E+1
      endloop
   endfacet
   facet normal 0.000000E+0 2.114167E-1 9.773961E-1
      outer loop
         vertex -1.737000E+3 -2.053921E+1 -5.476733E+1
         vertex -1.749000E+3 -2.010096E+1 -5.486212E+1
         vertex -1.749000E+3 -2.053921E+1 -5.476733E+1
      endloop
   endfacet
   facet normal 0.000000E+0 3.547370E-1 9.349662E-1
      outer loop
         vertex -1.737000E+3 -2.053921E+1 -5.476733E+1
         vertex -1.749000E+3 -2.053921E+1 -5.476733E+1
         vertex -1.737000E+3 -2.095843E+1 -5.460827E+1
      endloop
   endfacet
   facet normal 0.000000E+0 3.547370E-1 9.349662E-1
      outer loop
         vertex -1.737000E+3 -2.095843E+1 -5.460827E+1
         vertex -1.749000E+3 -2.053921E+1 -5.476733E+1
         vertex -1.749000E+3 -2.095843E+1 -5.460827E+1
      endloop
   endfacet
   facet normal 0.000000E+0 4.901148E-1 8.716579E-1
      outer loop
         vertex -1.737000E+3 -2.095843E+1 -5.460827E+1
         vertex -1.749000E+3 -2.095843E+1 -5.460827E+1
         vertex -1.737000E+3 -2.134926E+1 -5.438851E+1
      endloop
   endfacet
   facet normal 0.000000E+0 4.901148E-1 8.716579E-1
      outer loop
         vertex -1.737000E+3 -2.134926E+1 -5.438851E+1
         vertex -1.749000E+3 -2.095843E+1 -5.460827E+1
         vertex -1.749000E+3 -2.134926E+1 -5.438851E+1
      endloop
   endfacet
   facet normal 0.000000E+0 6.145625E-1 7.888682E-1
      outer loop
         vertex -1.737000E+3 -2.134926E+1 -5.438851E+1
         vertex -1.749000E+3 -2.134926E+1 -5.438851E+1
         vertex -1.737000E+3 -2.170298E+1 -5.411295E+1
      endloop
   endfacet
   facet normal 0.000000E+0 6.145625E-1 7.888682E-1
      outer loop
         vertex -1.737000E+3 -2.170298E+1 -5.411295E+1
         vertex -1.749000E+3 -2.134926E+1 -5.438851E+1
         vertex -1.749000E+3 -2.170298E+1 -5.411295E+1
      endloop
   endfacet
   facet normal 0.000000E+0 7.252675E-1 6.884673E-1
      outer loop
         vertex -1.737000E+3 -2.170298E+1 -5.411295E+1
         vertex -1.749000E+3 -2.170298E+1 -5.411295E+1
         vertex -1.737000E+3 -2.201167E+1 -5.378776E+1
      endloop
   endfacet
   facet normal 0.000000E+0 7.252675E-1 6.884673E-1
      outer loop
         vertex -1.737000E+3 -2.201167E+1 -5.378776E+1
         vertex -1.749000E+3 -2.170298E+1 -5.411295E+1
         vertex -1.749000E+3 -2.201167E+1 -5.378776E+1
      endloop
   endfacet
   facet normal 0.000000E+0 8.197787E-1 5.726804E-1
      outer loop
         vertex -1.737000E+3 -2.201167E+1 -5.378776E+1
         vertex -1.749000E+3 -2.201167E+1 -5.378776E+1
         vertex -1.737000E+3 -2.226845E+1 -5.342019E+1
      endloop
   endfacet
   facet normal 0.000000E+0 8.197787E-1 5.726804E-1
      outer loop
         vertex -1.737000E+3 -2.226845E+1 -5.342019E+1
         vertex -1.749000E+3 -2.201167E+1 -5.378776E+1
         vertex -1.749000E+3 -2.226845E+1 -5.342019E+1
      endloop
   endfacet
   facet normal 0.000000E+0 8.959787E-1 4.440971E-1
      outer loop
         vertex -1.737000E+3 -2.226845E+1 -5.342019E+1
         vertex -1.749000E+3 -2.226845E+1 -5.342019E+1
         vertex -1.737000E+3 -2.246758E+1 -5.301844E+1
      endloop
   endfacet
   facet normal 0.000000E+0 8.959787E-1 4.440971E-1
      outer loop
         vertex -1.737000E+3 -2.246758E+1 -5.301844E+1
         vertex -1.749000E+3 -2.226845E+1 -5.342019E+1
         vertex -1.749000E+3 -2.246758E+1 -5.301844E+1
      endloop
   endfacet
   facet normal 0.000000E+0 9.521582E-1 3.056057E-1
      outer loop
         vertex -1.737000E+3 -2.246758E+1 -5.301844E+1
         vertex -1.749000E+3 -2.246758E+1 -5.301844E+1
         vertex -1.737000E+3 -2.260460E+1 -5.259151E+1
      endloop
   endfacet
   facet normal 0.000000E+0 9.521582E-1 3.056057E-1
      outer loop
         vertex -1.737000E+3 -2.260460E+1 -5.259151E+1
         vertex -1.749000E+3 -2.246758E+1 -5.301844E+1
         vertex -1.749000E+3 -2.260460E+1 -5.259151E+1
      endloop
   endfacet
   facet normal 0.000000E+0 9.870719E-1 1.602779E-1
      outer loop
         vertex -1.737000E+3 -2.260460E+1 -5.259151E+1
         vertex -1.749000E+3 -2.260460E+1 -5.259151E+1
         vertex -1.737000E+3 -2.267647E+1 -5.214893E+1
      endloop
   endfacet
   facet normal 0.000000E+0 9.870719E-1 1.602779E-1
      outer loop
         vertex -1.737000E+3 -2.267647E+1 -5.214893E+1
         vertex -1.749000E+3 -2.260460E+1 -5.259151E+1
         vertex -1.749000E+3 -2.267647E+1 -5.214893E+1
      endloop
   endfacet
   facet normal 0.000000E+0 9.999353E-1 1.137054E-2
      outer loop
         vertex -1.737000E+3 -2.267647E+1 -5.214893E+1
         vertex -1.749000E+3 -2.267647E+1 -5.214893E+1
         vertex -1.737000E+3 -2.268157E+1 -5.170058E+1
      endloop
   endfacet
   facet normal 0.000000E+0 9.999353E-1 1.137054E-2
      outer loop
         vertex -1.737000E+3 -2.268157E+1 -5.170058E+1
         vertex -1.749000E+3 -2.267647E+1 -5.214893E+1
         vertex -1.749000E+3 -2.268157E+1 -5.170058E+1
      endloop
   endfacet
   facet normal 0.000000E+0 9.904618E-1 -1.377870E-1
      outer loop
         vertex -1.737000E+3 -2.268157E+1 -5.170058E+1
         vertex -1.749000E+3 -2.268157E+1 -5.170058E+1
         vertex -1.737000E+3 -2.261979E+1 -5.125648E+1
      endloop
   endfacet
   facet normal 0.000000E+0 9.904618E-1 -1.377870E-1
      outer loop
         vertex -1.737000E+3 -2.261979E+1 -5.125648E+1
         vertex -1.749000E+3 -2.268157E+1 -5.170058E+1
         vertex -1.749000E+3 -2.261979E+1 -5.125648E+1
      endloop
   endfacet
   facet normal 0.000000E+0 9.588631E-1 -2.838687E-1
      outer loop
         vertex -1.737000E+3 -2.261979E+1 -5.125648E+1
         vertex -1.749000E+3 -2.261979E+1 -5.125648E+1
         vertex -1.737000E+3 -2.249250E+1 -5.082654E+1
      endloop
   endfacet
   facet normal 0.000000E+0 9.588631E-1 -2.838687E-1
      outer loop
         vertex -1.737000E+3 -2.249250E+1 -5.082654E+1
         vertex -1.749000E+3 -2.261979E+1 -5.125648E+1
         vertex -1.749000E+3 -2.249250E+1 -5.082654E+1
      endloop
   endfacet
   facet normal 0.000000E+0 9.058434E-1 -4.236126E-1
      outer loop
         vertex -1.737000E+3 -2.249250E+1 -5.082654E+1
         vertex -1.749000E+3 -2.249250E+1 -5.082654E+1
         vertex -1.737000E+3 -2.230256E+1 -5.042038E+1
      endloop
   endfacet
   facet normal 0.000000E+0 9.058434E-1 -4.236126E-1
      outer loop
         vertex -1.737000E+3 -2.230256E+1 -5.042038E+1
         vertex -1.749000E+3 -2.249250E+1 -5.082654E+1
         vertex -1.749000E+3 -2.230256E+1 -5.042038E+1
      endloop
   endfacet
   facet normal 0.000000E+0 8.325918E-1 -5.538871E-1
      outer loop
         vertex -1.737000E+3 -2.230256E+1 -5.042038E+1
         vertex -1.749000E+3 -2.230256E+1 -5.042038E+1
         vertex -1.737000E+3 -2.205421E+1 -5.004706E+1
      endloop
   endfacet
   facet normal 0.000000E+0 8.325918E-1 -5.538871E-1
      outer loop
         vertex -1.737000E+3 -2.205421E+1 -5.004706E+1
         vertex -1.749000E+3 -2.230256E+1 -5.042038E+1
         vertex -1.749000E+3 -2.205421E+1 -5.004706E+1
      endloop
   endfacet
   facet normal 0.000000E+0 7.407412E-1 -6.717904E-1
      outer loop
         vertex -1.737000E+3 -2.205421E+1 -5.004706E+1
         vertex -1.749000E+3 -2.205421E+1 -5.004706E+1
         vertex -1.737000E+3 -2.175299E+1 -4.971493E+1
      endloop
   endfacet
   facet normal 0.000000E+0 7.407412E-1 -6.717904E-1
      outer loop
         vertex -1.737000E+3 -2.175299E+1 -4.971493E+1
         vertex -1.749000E+3 -2.205421E+1 -5.004706E+1
         vertex -1.749000E+3 -2.175299E+1 -4.971493E+1
      endloop
   endfacet
   facet normal 0.000000E+0 6.323425E-1 -7.746889E-1
      outer loop
         vertex -1.737000E+3 -2.175299E+1 -4.971493E+1
         vertex -1.749000E+3 -2.175299E+1 -4.971493E+1
         vertex -1.737000E+3 -2.140564E+1 -4.943140E+1
      endloop
   endfacet
   facet normal 0.000000E+0 6.323425E-1 -7.746889E-1
      outer loop
         vertex -1.737000E+3 -2.140564E+1 -4.943140E+1
         vertex -1.749000E+3 -2.175299E+1 -4.971493E+1
         vertex -1.749000E+3 -2.140564E+1 -4.943140E+1
      endloop
   endfacet
   facet normal 0.000000E+0 5.098163E-1 -8.602832E-1
      outer loop
         vertex -1.737000E+3 -2.140564E+1 -4.943140E+1
         vertex -1.749000E+3 -2.140564E+1 -4.943140E+1
         vertex -1.737000E+3 -2.101990E+1 -4.920280E+1
      endloop
   endfacet
   facet normal 0.000000E+0 5.098163E-1 -8.602832E-1
      outer loop
         vertex -1.737000E+3 -2.101990E+1 -4.920280E+1
         vertex -1.749000E+3 -2.140564E+1 -4.943140E+1
         vertex -1.749000E+3 -2.101990E+1 -4.920280E+1
      endloop
   endfacet
   facet normal 0.000000E+0 3.758983E-1 -9.266609E-1
      outer loop
         vertex -1.737000E+3 -2.101990E+1 -4.920280E+1
         vertex -1.749000E+3 -2.101990E+1 -4.920280E+1
         vertex -1.737000E+3 -2.060441E+1 -4.903426E+1
      endloop
   endfacet
   facet normal 0.000000E+0 3.758983E-1 -9.266609E-1
      outer loop
         vertex -1.737000E+3 -2.060441E+1 -4.903426E+1
         vertex -1.749000E+3 -2.101990E+1 -4.920280E+1
         vertex -1.749000E+3 -2.060441E+1 -4.903426E+1
      endloop
   endfacet
   facet normal 0.000000E+0 2.335963E-1 -9.723337E-1
      outer loop
         vertex -1.737000E+3 -2.060441E+1 -4.903426E+1
         vertex -1.749000E+3 -2.060441E+1 -4.903426E+1
         vertex -1.737000E+3 -2.016843E+1 -4.892952E+1
      endloop
   endfacet
   facet normal 0.000000E+0 2.335963E-1 -9.723337E-1
      outer loop
         vertex -1.737000E+3 -2.016843E+1 -4.892952E+1
         vertex -1.749000E+3 -2.060441E+1 -4.903426E+1
         vertex -1.749000E+3 -2.016843E+1 -4.892952E+1
      endloop
   endfacet
   facet normal 0.000000E+0 8.606423E-2 -9.962896E-1
      outer loop
         vertex -1.737000E+3 -2.016843E+1 -4.892952E+1
         vertex -1.749000E+3 -2.016843E+1 -4.892952E+1
         vertex -1.737000E+3 -1.972172E+1 -4.889093E+1
      endloop
   endfacet
   facet normal 0.000000E+0 8.606423E-2 -9.962896E-1
      outer loop
         vertex -1.737000E+3 -1.972172E+1 -4.889093E+1
         vertex -1.749000E+3 -2.016843E+1 -4.892952E+1
         vertex -1.749000E+3 -1.972172E+1 -4.889093E+1
      endloop
   endfacet
   facet normal -0.000000E+0 -6.338250E-2 -9.979894E-1
      outer loop
         vertex -1.737000E+3 -1.972172E+1 -4.889093E+1
         vertex -1.749000E+3 -1.972172E+1 -4.889093E+1
         vertex -1.737000E+3 -1.927424E+1 -4.891935E+1
      endloop
   endfacet
   facet normal -0.000000E+0 -6.338250E-2 -9.979894E-1
      outer loop
         vertex -1.737000E+3 -1.927424E+1 -4.891935E+1
         vertex -1.749000E+3 -1.972172E+1 -4.889093E+1
         vertex -1.749000E+3 -1.927424E+1 -4.891935E+1
      endloop
   endfacet
   facet normal -0.000000E+0 -2.114167E-1 -9.773961E-1
      outer loop
         vertex -1.737000E+3 -1.927424E+1 -4.891935E+1
         vertex -1.749000E+3 -1.927424E+1 -4.891935E+1
         vertex -1.737000E+3 -1.883599E+1 -4.901414E+1
      endloop
   endfacet
   facet normal -0.000000E+0 -2.114167E-1 -9.773961E-1
      outer loop
         vertex -1.737000E+3 -1.883599E+1 -4.901414E+1
         vertex -1.749000E+3 -1.927424E+1 -4.891935E+1
         vertex -1.749000E+3 -1.883599E+1 -4.901414E+1
      endloop
   endfacet
   facet normal -0.000000E+0 -3.547370E-1 -9.349662E-1
      outer loop
         vertex -1.737000E+3 -1.883599E+1 -4.901414E+1
         vertex -1.749000E+3 -1.883599E+1 -4.901414E+1
         vertex -1.737000E+3 -1.841677E+1 -4.917320E+1
      endloop
   endfacet
   facet normal -0.000000E+0 -3.547370E-1 -9.349662E-1
      outer loop
         vertex -1.737000E+3 -1.841677E+1 -4.917320E+1
         vertex -1.749000E+3 -1.883599E+1 -4.901414E+1
         vertex -1.749000E+3 -1.841677E+1 -4.917320E+1
      endloop
   endfacet
   facet normal -0.000000E+0 -4.901148E-1 -8.716579E-1
      outer loop
         vertex -1.737000E+3 -1.841677E+1 -4.917320E+1
         vertex -1.749000E+3 -1.841677E+1 -4.917320E+1
         vertex -1.737000E+3 -1.802594E+1 -4.939296E+1
      endloop
   endfacet
   facet normal -0.000000E+0 -4.901148E-1 -8.716579E-1
      outer loop
         vertex -1.737000E+3 -1.802594E+1 -4.939296E+1
         vertex -1.749000E+3 -1.841677E+1 -4.917320E+1
         vertex -1.749000E+3 -1.802594E+1 -4.939296E+1
      endloop
   endfacet
   facet normal -0.000000E+0 -6.145625E-1 -7.888682E-1
      outer loop
         vertex -1.737000E+3 -1.802594E+1 -4.939296E+1
         vertex -1.749000E+3 -1.802594E+1 -4.939296E+1
         vertex -1.737000E+3 -1.767222E+1 -4.966852E+1
      endloop
   endfacet
   facet normal -0.000000E+0 -6.145625E-1 -7.888682E-1
      outer loop
         vertex -1.737000E+3 -1.767222E+1 -4.966852E+1
         vertex -1.749000E+3 -1.802594E+1 -4.939296E+1
         vertex -1.749000E+3 -1.767222E+1 -4.966852E+1
      endloop
   endfacet
   facet normal -0.000000E+0 -7.252675E-1 -6.884673E-1
      outer loop
         vertex -1.737000E+3 -1.767222E+1 -4.966852E+1
         vertex -1.749000E+3 -1.767222E+1 -4.966852E+1
         vertex -1.737000E+3 -1.736353E+1 -4.999371E+1
      endloop
   endfacet
   facet normal -0.000000E+0 -7.252675E-1 -6.884673E-1
      outer loop
         vertex -1.737000E+3 -1.736353E+1 -4.999371E+1
         vertex -1.749000E+3 -1.767222E+1 -4.966852E+1
         vertex -1.749000E+3 -1.736353E+1 -4.999371E+1
      endloop
   endfacet
   facet normal -0.000000E+0 -8.197787E-1 -5.726804E-1
      outer loop
         vertex -1.737000E+3 -1.736353E+1 -4.999371E+1
         vertex -1.749000E+3 -1.736353E+1 -4.999371E+1
         vertex -1.737000E+3 -1.710675E+1 -5.036129E+1
      endloop
   endfacet
   facet normal -0.000000E+0 -8.197787E-1 -5.726804E-1
      outer loop
         vertex -1.737000E+3 -1.710675E+1 -5.036129E+1
         vertex -1.749000E+3 -1.736353E+1 -4.999371E+1
         vertex -1.749000E+3 -1.710675E+1 -5.036129E+1
      endloop
   endfacet
   facet normal -0.000000E+0 -8.959787E-1 -4.440971E-1
      outer loop
         vertex -1.737000E+3 -1.710675E+1 -5.036129E+1
         vertex -1.749000E+3 -1.710675E+1 -5.036129E+1
         vertex -1.737000E+3 -1.690762E+1 -5.076303E+1
      endloop
   endfacet
   facet normal -0.000000E+0 -8.959787E-1 -4.440971E-1
      outer loop
         vertex -1.737000E+3 -1.690762E+1 -5.076303E+1
         vertex -1.749000E+3 -1.710675E+1 -5.036129E+1
         vertex -1.749000E+3 -1.690762E+1 -5.076303E+1
      endloop
   endfacet
   facet normal -0.000000E+0 -9.521582E-1 -3.056057E-1
      outer loop
         vertex -1.737000E+3 -1.690762E+1 -5.076303E+1
         vertex -1.749000E+3 -1.690762E+1 -5.076303E+1
         vertex -1.737000E+3 -1.677060E+1 -5.118996E+1
      endloop
   endfacet
   facet normal -0.000000E+0 -9.521582E-1 -3.056057E-1
      outer loop
         vertex -1.737000E+3 -1.677060E+1 -5.118996E+1
         vertex -1.749000E+3 -1.690762E+1 -5.076303E+1
         vertex -1.749000E+3 -1.677060E+1 -5.118996E+1
      endloop
   endfacet
   facet normal -0.000000E+0 -9.870719E-1 -1.602779E-1
      outer loop
         vertex -1.737000E+3 -1.677060E+1 -5.118996E+1
         vertex -1.749000E+3 -1.677060E+1 -5.118996E+1
         vertex -1.737000E+3 -1.669873E+1 -5.163254E+1
      endloop
   endfacet
   facet normal -0.000000E+0 -9.870719E-1 -1.602779E-1
      outer loop
         vertex -1.737000E+3 -1.669873E+1 -5.163254E+1
         vertex -1.749000E+3 -1.677060E+1 -5.118996E+1
         vertex -1.749000E+3 -1.669873E+1 -5.163254E+1
      endloop
   endfacet
   facet normal -0.000000E+0 -9.999353E-1 -1.137054E-2
      outer loop
         vertex -1.737000E+3 -1.669873E+1 -5.163254E+1
         vertex -1.749000E+3 -1.669873E+1 -5.163254E+1
         vertex -1.737000E+3 -1.669363E+1 -5.208089E+1
      endloop
   endfacet
   facet normal -0.000000E+0 -9.999353E-1 -1.137054E-2
      outer loop
         vertex -1.737000E+3 -1.669363E+1 -5.208089E+1
         vertex -1.749000E+3 -1.669873E+1 -5.163254E+1
         vertex -1.749000E+3 -1.669363E+1 -5.208089E+1
      endloop
   endfacet
   facet normal 0.000000E+0 -9.904618E-1 1.377870E-1
      outer loop
         vertex -1.737000E+3 -1.669363E+1 -5.208089E+1
         vertex -1.749000E+3 -1.669363E+1 -5.208089E+1
         vertex -1.737000E+3 -1.675541E+1 -5.252499E+1
      endloop
   endfacet
   facet normal 0.000000E+0 -9.904618E-1 1.377870E-1
      outer loop
         vertex -1.737000E+3 -1.675541E+1 -5.252499E+1
         vertex -1.749000E+3 -1.669363E+1 -5.208089E+1
         vertex -1.749000E+3 -1.675541E+1 -5.252499E+1
      endloop
   endfacet
   facet normal 0.000000E+0 -9.588631E-1 2.838687E-1
      outer loop
         vertex -1.737000E+3 -1.675541E+1 -5.252499E+1
         vertex -1.749000E+3 -1.675541E+1 -5.252499E+1
         vertex -1.737000E+3 -1.688269E+1 -5.295493E+1
      endloop
   endfacet
   facet normal 0.000000E+0 -9.588631E-1 2.838687E-1
      outer loop
         vertex -1.737000E+3 -1.688269E+1 -5.295493E+1
         vertex -1.749000E+3 -1.675541E+1 -5.252499E+1
         vertex -1.749000E+3 -1.688269E+1 -5.295493E+1
      endloop
   endfacet
   facet normal -1.000000E+0 0.000000E+0 0.000000E+0
      outer loop
         vertex -1.737000E+3 -2.066720E+1 -4.959065E+1
         vertex -1.737000E+3 -2.101990E+1 -4.920280E+1
         vertex -1.737000E+3 -2.060441E+1 -4.903426E+1
      endloop
   endfacet
   facet normal -1.000000E+0 0.000000E+0 0.000000E+0
      outer loop
         vertex -1.737000E+3 -2.102348E+1 -4.977758E+1
         vertex -1.737000E+3 -2.140564E+1 -4.943140E+1
         vertex -1.737000E+3 -2.101990E+1 -4.920280E+1
      endloop
   endfacet
   facet normal -1.000000E+0 0.000000E+0 0.000000E+0
      outer loop
         vertex -1.737000E+3 -2.102348E+1 -4.977758E+1
         vertex -1.737000E+3 -2.101990E+1 -4.920280E+1
         vertex -1.737000E+3 -2.066720E+1 -4.959065E+1
      endloop
   endfacet
   facet normal -1.000000E+0 -0.000000E+0 0.000000E+0
      outer loop
         vertex -1.737000E+3 -2.028556E+1 -4.946330E+1
         vertex -1.737000E+3 -2.066720E+1 -4.959065E+1
         vertex -1.737000E+3 -2.060441E+1 -4.903426E+1
      endloop
   endfacet
   facet normal -1.000000E+0 0.000000E+0 0.000000E+0
      outer loop
         vertex -1.737000E+3 -2.028556E+1 -4.946330E+1
         vertex -1.737000E+3 -2.060441E+1 -4.903426E+1
         vertex -1.737000E+3 -2.016843E+1 -4.892952E+1
      endloop
   endfacet
   facet normal -1.000000E+0 0.000000E+0 0.000000E+0
      outer loop
         vertex -1.737000E+3 -2.134515E+1 -5.001923E+1
         vertex -1.737000E+3 -2.175299E+1 -4.971493E+1
         vertex -1.737000E+3 -2.140564E+1 -4.943140E+1
      endloop
   endfacet
   facet normal -1.000000E+0 0.000000E+0 0.000000E+0
      outer loop
         vertex -1.737000E+3 -2.134515E+1 -5.001923E+1
         vertex -1.737000E+3 -2.140564E+1 -4.943140E+1
         vertex -1.737000E+3 -2.102348E+1 -4.977758E+1
      endloop
   endfacet
   facet normal -1.000000E+0 -0.000000E+0 0.000000E+0
      outer loop
         vertex -1.737000E+3 -1.988843E+1 -4.939882E+1
         vertex -1.737000E+3 -2.028556E+1 -4.946330E+1
         vertex -1.737000E+3 -2.016843E+1 -4.892952E+1
      endloop
   endfacet
   facet normal -1.000000E+0 0.000000E+0 0.000000E+0
      outer loop
         vertex -1.737000E+3 -1.988843E+1 -4.939882E+1
         vertex -1.737000E+3 -2.016843E+1 -4.892952E+1
         vertex -1.737000E+3 -1.972172E+1 -4.889093E+1
      endloop
   endfacet
   facet normal -1.000000E+0 0.000000E+0 0.000000E+0
      outer loop
         vertex -1.737000E+3 -2.162390E+1 -5.030936E+1
         vertex -1.737000E+3 -2.205421E+1 -5.004706E+1
         vertex -1.737000E+3 -2.175299E+1 -4.971493E+1
      endloop
   endfacet
   facet normal -1.000000E+0 0.000000E+0 0.000000E+0
      outer loop
         vertex -1.737000E+3 -2.162390E+1 -5.030936E+1
         vertex -1.737000E+3 -2.175299E+1 -4.971493E+1
         vertex -1.737000E+3 -2.134515E+1 -5.001923E+1
      endloop
   endfacet
   facet normal -1.000000E+0 0.000000E+0 0.000000E+0
      outer loop
         vertex -1.737000E+3 -1.948610E+1 -4.939887E+1
         vertex -1.737000E+3 -1.988843E+1 -4.939882E+1
         vertex -1.737000E+3 -1.972172E+1 -4.889093E+1
      endloop
   endfacet
   facet normal -1.000000E+0 0.000000E+0 0.000000E+0
      outer loop
         vertex -1.737000E+3 -1.948610E+1 -4.939887E+1
         vertex -1.737000E+3 -1.972172E+1 -4.889093E+1
         vertex -1.737000E+3 -1.927424E+1 -4.891935E+1
      endloop
   endfacet
   facet normal -1.000000E+0 0.000000E+0 0.000000E+0
      outer loop
         vertex -1.737000E+3 -2.185249E+1 -5.064044E+1
         vertex -1.737000E+3 -2.205421E+1 -5.004706E+1
         vertex -1.737000E+3 -2.162390E+1 -5.030936E+1
      endloop
   endfacet
   facet normal -1.000000E+0 0.000000E+0 0.000000E+0
      outer loop
         vertex -1.737000E+3 -2.185249E+1 -5.064044E+1
         vertex -1.737000E+3 -2.230256E+1 -5.042038E+1
         vertex -1.737000E+3 -2.205421E+1 -5.004706E+1
      endloop
   endfacet
   facet normal -1.000000E+0 0.000000E+0 0.000000E+0
      outer loop
         vertex -1.737000E+3 -1.908898E+1 -4.946346E+1
         vertex -1.737000E+3 -1.948610E+1 -4.939887E+1
         vertex -1.737000E+3 -1.927424E+1 -4.891935E+1
      endloop
   endfacet
   facet normal -1.000000E+0 0.000000E+0 0.000000E+0
      outer loop
         vertex -1.737000E+3 -1.908898E+1 -4.946346E+1
         vertex -1.737000E+3 -1.927424E+1 -4.891935E+1
         vertex -1.737000E+3 -1.883599E+1 -4.901414E+1
      endloop
   endfacet
   facet normal -1.000000E+0 -0.000000E+0 0.000000E+0
      outer loop
         vertex -1.737000E+3 -2.202502E+1 -5.100391E+1
         vertex -1.737000E+3 -2.261979E+1 -5.125648E+1
         vertex -1.737000E+3 -2.249250E+1 -5.082654E+1
      endloop
   endfacet
   facet normal -1.000000E+0 0.000000E+0 0.000000E+0
      outer loop
         vertex -1.737000E+3 -2.202502E+1 -5.100391E+1
         vertex -1.737000E+3 -2.230256E+1 -5.042038E+1
         vertex -1.737000E+3 -2.185249E+1 -5.064044E+1
      endloop
   endfacet
   facet normal -1.000000E+0 0.000000E+0 0.000000E+0
      outer loop
         vertex -1.737000E+3 -2.202502E+1 -5.100391E+1
         vertex -1.737000E+3 -2.249250E+1 -5.082654E+1
         vertex -1.737000E+3 -2.230256E+1 -5.042038E+1
      endloop
   endfacet
   facet normal -1.000000E+0 0.000000E+0 0.000000E+0
      outer loop
         vertex -1.737000E+3 -1.870737E+1 -4.959092E+1
         vertex -1.737000E+3 -1.883599E+1 -4.901414E+1
         vertex -1.737000E+3 -1.841677E+1 -4.917320E+1
      endloop
   endfacet
   facet normal -1.000000E+0 0.000000E+0 0.000000E+0
      outer loop
         vertex -1.737000E+3 -1.870737E+1 -4.959092E+1
         vertex -1.737000E+3 -1.908898E+1 -4.946346E+1
         vertex -1.737000E+3 -1.883599E+1 -4.901414E+1
      endloop
   endfacet
   facet normal -1.000000E+0 0.000000E+0 0.000000E+0
      outer loop
         vertex -1.737000E+3 -2.213701E+1 -5.139034E+1
         vertex -1.737000E+3 -2.261979E+1 -5.125648E+1
         vertex -1.737000E+3 -2.202502E+1 -5.100391E+1
      endloop
   endfacet
   facet normal -1.000000E+0 0.000000E+0 0.000000E+0
      outer loop
         vertex -1.737000E+3 -2.268157E+1 -5.170058E+1
         vertex -1.737000E+3 -2.261979E+1 -5.125648E+1
         vertex -1.737000E+3 -2.213701E+1 -5.139034E+1
      endloop
   endfacet
   facet normal -1.000000E+0 0.000000E+0 0.000000E+0
      outer loop
         vertex -1.737000E+3 -1.835115E+1 -4.977794E+1
         vertex -1.737000E+3 -1.870737E+1 -4.959092E+1
         vertex -1.737000E+3 -1.841677E+1 -4.917320E+1
      endloop
   endfacet
   facet normal -1.000000E+0 0.000000E+0 0.000000E+0
      outer loop
         vertex -1.737000E+3 -1.835115E+1 -4.977794E+1
         vertex -1.737000E+3 -1.841677E+1 -4.917320E+1
         vertex -1.737000E+3 -1.802594E+1 -4.939296E+1
      endloop
   endfacet
   facet normal -1.000000E+0 0.000000E+0 0.000000E+0
      outer loop
         vertex -1.737000E+3 -2.218556E+1 -5.178973E+1
         vertex -1.737000E+3 -2.268157E+1 -5.170058E+1
         vertex -1.737000E+3 -2.213701E+1 -5.139034E+1
      endloop
   endfacet
   facet normal -1.000000E+0 0.000000E+0 0.000000E+0
      outer loop
         vertex -1.737000E+3 -1.802954E+1 -5.001968E+1
         vertex -1.737000E+3 -1.802594E+1 -4.939296E+1
         vertex -1.737000E+3 -1.767222E+1 -4.966852E+1
      endloop
   endfacet
   facet normal -1.000000E+0 0.000000E+0 0.000000E+0
      outer loop
         vertex -1.737000E+3 -1.802954E+1 -5.001968E+1
         vertex -1.737000E+3 -1.835115E+1 -4.977794E+1
         vertex -1.737000E+3 -1.802594E+1 -4.939296E+1
      endloop
   endfacet
   facet normal -1.000000E+0 0.000000E+0 0.000000E+0
      outer loop
         vertex -1.737000E+3 -2.267647E+1 -5.214893E+1
         vertex -1.737000E+3 -2.268157E+1 -5.170058E+1
         vertex -1.737000E+3 -2.218556E+1 -5.178973E+1
      endloop
   endfacet
   facet normal -1.000000E+0 0.000000E+0 0.000000E+0
      outer loop
         vertex -1.737000E+3 -2.216941E+1 -5.219174E+1
         vertex -1.737000E+3 -2.267647E+1 -5.214893E+1
         vertex -1.737000E+3 -2.218556E+1 -5.178973E+1
      endloop
   endfacet
   facet normal -1.000000E+0 0.000000E+0 0.000000E+0
      outer loop
         vertex -1.737000E+3 -1.775087E+1 -5.030988E+1
         vertex -1.737000E+3 -1.767222E+1 -4.966852E+1
         vertex -1.737000E+3 -1.736353E+1 -4.999371E+1
      endloop
   endfacet
   facet normal -1.000000E+0 0.000000E+0 0.000000E+0
      outer loop
         vertex -1.737000E+3 -1.775087E+1 -5.030988E+1
         vertex -1.737000E+3 -1.802954E+1 -5.001968E+1
         vertex -1.737000E+3 -1.767222E+1 -4.966852E+1
      endloop
   endfacet
   facet normal -1.000000E+0 0.000000E+0 0.000000E+0
      outer loop
         vertex -1.737000E+3 -2.260460E+1 -5.259151E+1
         vertex -1.737000E+3 -2.267647E+1 -5.214893E+1
         vertex -1.737000E+3 -2.216941E+1 -5.219174E+1
      endloop
   endfacet
   facet normal -1.000000E+0 -0.000000E+0 0.000000E+0
      outer loop
         vertex -1.737000E+3 -2.208899E+1 -5.258595E+1
         vertex -1.737000E+3 -2.260460E+1 -5.259151E+1
         vertex -1.737000E+3 -2.216941E+1 -5.219174E+1
      endloop
   endfacet
   facet normal -1.000000E+0 0.000000E+0 0.000000E+0
      outer loop
         vertex -1.737000E+3 -1.710675E+1 -5.036129E+1
         vertex -1.737000E+3 -1.775087E+1 -5.030988E+1
         vertex -1.737000E+3 -1.736353E+1 -4.999371E+1
      endloop
   endfacet
   facet normal -1.000000E+0 0.000000E+0 0.000000E+0
      outer loop
         vertex -1.737000E+3 -1.752237E+1 -5.064103E+1
         vertex -1.737000E+3 -1.775087E+1 -5.030988E+1
         vertex -1.737000E+3 -1.710675E+1 -5.036129E+1
      endloop
   endfacet
   facet normal -1.000000E+0 0.000000E+0 0.000000E+0
      outer loop
         vertex -1.737000E+3 -2.246758E+1 -5.301844E+1
         vertex -1.737000E+3 -2.260460E+1 -5.259151E+1
         vertex -1.737000E+3 -2.208899E+1 -5.258595E+1
      endloop
   endfacet
   facet normal -1.000000E+0 -0.000000E+0 0.000000E+0
      outer loop
         vertex -1.737000E+3 -2.194637E+1 -5.296216E+1
         vertex -1.737000E+3 -2.246758E+1 -5.301844E+1
         vertex -1.737000E+3 -2.208899E+1 -5.258595E+1
      endloop
   endfacet
   facet normal -1.000000E+0 0.000000E+0 0.000000E+0
      outer loop
         vertex -1.737000E+3 -1.690762E+1 -5.076303E+1
         vertex -1.737000E+3 -1.752237E+1 -5.064103E+1
         vertex -1.737000E+3 -1.710675E+1 -5.036129E+1
      endloop
   endfacet
   facet normal -1.000000E+0 0.000000E+0 0.000000E+0
      outer loop
         vertex -1.737000E+3 -1.734994E+1 -5.100454E+1
         vertex -1.737000E+3 -1.752237E+1 -5.064103E+1
         vertex -1.737000E+3 -1.690762E+1 -5.076303E+1
      endloop
   endfacet
   facet normal -1.000000E+0 0.000000E+0 0.000000E+0
      outer loop
         vertex -1.737000E+3 -2.226845E+1 -5.342019E+1
         vertex -1.737000E+3 -2.246758E+1 -5.301844E+1
         vertex -1.737000E+3 -2.194637E+1 -5.296216E+1
      endloop
   endfacet
   facet normal -1.000000E+0 -0.000000E+0 0.000000E+0
      outer loop
         vertex -1.737000E+3 -2.174525E+1 -5.331062E+1
         vertex -1.737000E+3 -2.226845E+1 -5.342019E+1
         vertex -1.737000E+3 -2.194637E+1 -5.296216E+1
      endloop
   endfacet
   facet normal -1.000000E+0 -0.000000E+0 0.000000E+0
      outer loop
         vertex -1.737000E+3 -1.677060E+1 -5.118996E+1
         vertex -1.737000E+3 -1.723805E+1 -5.139100E+1
         vertex -1.737000E+3 -1.734994E+1 -5.100454E+1
      endloop
   endfacet
   facet normal -1.000000E+0 0.000000E+0 0.000000E+0
      outer loop
         vertex -1.737000E+3 -1.677060E+1 -5.118996E+1
         vertex -1.737000E+3 -1.734994E+1 -5.100454E+1
         vertex -1.737000E+3 -1.690762E+1 -5.076303E+1
      endloop
   endfacet
   facet normal -1.000000E+0 0.000000E+0 0.000000E+0
      outer loop
         vertex -1.737000E+3 -2.201167E+1 -5.378776E+1
         vertex -1.737000E+3 -2.226845E+1 -5.342019E+1
         vertex -1.737000E+3 -2.174525E+1 -5.331062E+1
      endloop
   endfacet
   facet normal -1.000000E+0 -0.000000E+0 0.000000E+0
      outer loop
         vertex -1.737000E+3 -2.149084E+1 -5.362230E+1
         vertex -1.737000E+3 -2.201167E+1 -5.378776E+1
         vertex -1.737000E+3 -2.174525E+1 -5.331062E+1
      endloop
   endfacet
   facet normal -1.000000E+0 -0.000000E+0 0.000000E+0
      outer loop
         vertex -1.737000E+3 -1.669873E+1 -5.163254E+1
         vertex -1.737000E+3 -1.718961E+1 -5.179041E+1
         vertex -1.737000E+3 -1.723805E+1 -5.139100E+1
      endloop
   endfacet
   facet normal -1.000000E+0 0.000000E+0 0.000000E+0
      outer loop
         vertex -1.737000E+3 -1.669873E+1 -5.163254E+1
         vertex -1.737000E+3 -1.723805E+1 -5.139100E+1
         vertex -1.737000E+3 -1.677060E+1 -5.118996E+1
      endloop
   endfacet
   facet normal -1.000000E+0 0.000000E+0 0.000000E+0
      outer loop
         vertex -1.737000E+3 -2.170298E+1 -5.411295E+1
         vertex -1.737000E+3 -2.201167E+1 -5.378776E+1
         vertex -1.737000E+3 -2.149084E+1 -5.362230E+1
      endloop
   endfacet
   facet normal -1.000000E+0 -0.000000E+0 0.000000E+0
      outer loop
         vertex -1.737000E+3 -2.118973E+1 -5.388914E+1
         vertex -1.737000E+3 -2.170298E+1 -5.411295E+1
         vertex -1.737000E+3 -2.149084E+1 -5.362230E+1
      endloop
   endfacet
   facet normal -1.000000E+0 -0.000000E+0 0.000000E+0
      outer loop
         vertex -1.737000E+3 -1.669363E+1 -5.208089E+1
         vertex -1.737000E+3 -1.720587E+1 -5.219241E+1
         vertex -1.737000E+3 -1.718961E+1 -5.179041E+1
      endloop
   endfacet
   facet normal -1.000000E+0 0.000000E+0 0.000000E+0
      outer loop
         vertex -1.737000E+3 -1.669363E+1 -5.208089E+1
         vertex -1.737000E+3 -1.718961E+1 -5.179041E+1
         vertex -1.737000E+3 -1.669873E+1 -5.163254E+1
      endloop
   endfacet
   facet normal -1.000000E+0 0.000000E+0 0.000000E+0
      outer loop
         vertex -1.737000E+3 -2.134926E+1 -5.438851E+1
         vertex -1.737000E+3 -2.118973E+1 -5.388914E+1
         vertex -1.737000E+3 -2.084971E+1 -5.410422E+1
      endloop
   endfacet
   facet normal -1.000000E+0 0.000000E+0 0.000000E+0
      outer loop
         vertex -1.737000E+3 -2.134926E+1 -5.438851E+1
         vertex -1.737000E+3 -2.170298E+1 -5.411295E+1
         vertex -1.737000E+3 -2.118973E+1 -5.388914E+1
      endloop
   endfacet
   facet normal -1.000000E+0 -0.000000E+0 0.000000E+0
      outer loop
         vertex -1.737000E+3 -1.675541E+1 -5.252499E+1
         vertex -1.737000E+3 -1.728640E+1 -5.258661E+1
         vertex -1.737000E+3 -1.720587E+1 -5.219241E+1
      endloop
   endfacet
   facet normal -1.000000E+0 0.000000E+0 0.000000E+0
      outer loop
         vertex -1.737000E+3 -1.675541E+1 -5.252499E+1
         vertex -1.737000E+3 -1.720587E+1 -5.219241E+1
         vertex -1.737000E+3 -1.669363E+1 -5.208089E+1
      endloop
   endfacet
   facet normal -1.000000E+0 0.000000E+0 0.000000E+0
      outer loop
         vertex -1.737000E+3 -2.095843E+1 -5.460827E+1
         vertex -1.737000E+3 -2.084971E+1 -5.410422E+1
         vertex -1.737000E+3 -2.047959E+1 -5.426197E+1
      endloop
   endfacet
   facet normal -1.000000E+0 0.000000E+0 0.000000E+0
      outer loop
         vertex -1.737000E+3 -2.095843E+1 -5.460827E+1
         vertex -1.737000E+3 -2.134926E+1 -5.438851E+1
         vertex -1.737000E+3 -2.084971E+1 -5.410422E+1
      endloop
   endfacet
   facet normal -1.000000E+0 -0.000000E+0 0.000000E+0
      outer loop
         vertex -1.737000E+3 -1.688269E+1 -5.295493E+1
         vertex -1.737000E+3 -1.742912E+1 -5.296277E+1
         vertex -1.737000E+3 -1.728640E+1 -5.258661E+1
      endloop
   endfacet
   facet normal -1.000000E+0 0.000000E+0 0.000000E+0
      outer loop
         vertex -1.737000E+3 -1.688269E+1 -5.295493E+1
         vertex -1.737000E+3 -1.728640E+1 -5.258661E+1
         vertex -1.737000E+3 -1.675541E+1 -5.252499E+1
      endloop
   endfacet
   facet normal -1.000000E+0 0.000000E+0 0.000000E+0
      outer loop
         vertex -1.737000E+3 -2.053921E+1 -5.476733E+1
         vertex -1.737000E+3 -2.095843E+1 -5.460827E+1
         vertex -1.737000E+3 -2.047959E+1 -5.426197E+1
      endloop
   endfacet
   facet normal -1.000000E+0 0.000000E+0 0.000000E+0
      outer loop
         vertex -1.737000E+3 -2.053921E+1 -5.476733E+1
         vertex -1.737000E+3 -2.047959E+1 -5.426197E+1
         vertex -1.737000E+3 -2.008896E+1 -5.435831E+1
      endloop
   endfacet
   facet normal -1.000000E+0 0.000000E+0 0.000000E+0
      outer loop
         vertex -1.737000E+3 -1.707263E+1 -5.336109E+1
         vertex -1.737000E+3 -1.742912E+1 -5.296277E+1
         vertex -1.737000E+3 -1.688269E+1 -5.295493E+1
      endloop
   endfacet
   facet normal -1.000000E+0 0.000000E+0 0.000000E+0
      outer loop
         vertex -1.737000E+3 -1.707263E+1 -5.336109E+1
         vertex -1.737000E+3 -1.763033E+1 -5.331118E+1
         vertex -1.737000E+3 -1.742912E+1 -5.296277E+1
      endloop
   endfacet
   facet normal -1.000000E+0 0.000000E+0 0.000000E+0
      outer loop
         vertex -1.737000E+3 -2.010096E+1 -5.486212E+1
         vertex -1.737000E+3 -2.053921E+1 -5.476733E+1
         vertex -1.737000E+3 -2.008896E+1 -5.435831E+1
      endloop
   endfacet
   facet normal -1.000000E+0 0.000000E+0 0.000000E+0
      outer loop
         vertex -1.737000E+3 -2.010096E+1 -5.486212E+1
         vertex -1.737000E+3 -2.008896E+1 -5.435831E+1
         vertex -1.737000E+3 -1.968794E+1 -5.439074E+1
      endloop
   endfacet
   facet normal -1.000000E+0 0.000000E+0 0.000000E+0
      outer loop
         vertex -1.737000E+3 -1.732099E+1 -5.373441E+1
         vertex -1.737000E+3 -1.763033E+1 -5.331118E+1
         vertex -1.737000E+3 -1.707263E+1 -5.336109E+1
      endloop
   endfacet
   facet normal -1.000000E+0 0.000000E+0 0.000000E+0
      outer loop
         vertex -1.737000E+3 -1.732099E+1 -5.373441E+1
         vertex -1.737000E+3 -1.788483E+1 -5.362279E+1
         vertex -1.737000E+3 -1.763033E+1 -5.331118E+1
      endloop
   endfacet
   facet normal -1.000000E+0 0.000000E+0 0.000000E+0
      outer loop
         vertex -1.737000E+3 -1.965348E+1 -5.489054E+1
         vertex -1.737000E+3 -2.010096E+1 -5.486212E+1
         vertex -1.737000E+3 -1.968794E+1 -5.439074E+1
      endloop
   endfacet
   facet normal -1.000000E+0 0.000000E+0 0.000000E+0
      outer loop
         vertex -1.737000E+3 -1.965348E+1 -5.489054E+1
         vertex -1.737000E+3 -1.968794E+1 -5.439074E+1
         vertex -1.737000E+3 -1.928691E+1 -5.435841E+1
      endloop
   endfacet
   facet normal -1.000000E+0 0.000000E+0 0.000000E+0
      outer loop
         vertex -1.737000E+3 -1.762220E+1 -5.406654E+1
         vertex -1.737000E+3 -1.788483E+1 -5.362279E+1
         vertex -1.737000E+3 -1.732099E+1 -5.373441E+1
      endloop
   endfacet
   facet normal -1.000000E+0 0.000000E+0 0.000000E+0
      outer loop
         vertex -1.737000E+3 -1.762220E+1 -5.406654E+1
         vertex -1.737000E+3 -1.818601E+1 -5.388955E+1
         vertex -1.737000E+3 -1.788483E+1 -5.362279E+1
      endloop
   endfacet
   facet normal -1.000000E+0 -0.000000E+0 0.000000E+0
      outer loop
         vertex -1.737000E+3 -1.920677E+1 -5.485195E+1
         vertex -1.737000E+3 -1.965348E+1 -5.489054E+1
         vertex -1.737000E+3 -1.928691E+1 -5.435841E+1
      endloop
   endfacet
   facet normal -1.000000E+0 0.000000E+0 0.000000E+0
      outer loop
         vertex -1.737000E+3 -1.796956E+1 -5.435007E+1
         vertex -1.737000E+3 -1.818601E+1 -5.388955E+1
         vertex -1.737000E+3 -1.762220E+1 -5.406654E+1
      endloop
   endfacet
   facet normal -1.000000E+0 0.000000E+0 0.000000E+0
      outer loop
         vertex -1.737000E+3 -1.796956E+1 -5.435007E+1
         vertex -1.737000E+3 -1.852609E+1 -5.410453E+1
         vertex -1.737000E+3 -1.818601E+1 -5.388955E+1
      endloop
   endfacet
   facet normal -1.000000E+0 -0.000000E+0 0.000000E+0
      outer loop
         vertex -1.737000E+3 -1.877079E+1 -5.474721E+1
         vertex -1.737000E+3 -1.920677E+1 -5.485195E+1
         vertex -1.737000E+3 -1.928691E+1 -5.435841E+1
      endloop
   endfacet
   facet normal -1.000000E+0 0.000000E+0 0.000000E+0
      outer loop
         vertex -1.737000E+3 -1.877079E+1 -5.474721E+1
         vertex -1.737000E+3 -1.928691E+1 -5.435841E+1
         vertex -1.737000E+3 -1.889625E+1 -5.426218E+1
      endloop
   endfacet
   facet normal -1.000000E+0 0.000000E+0 0.000000E+0
      outer loop
         vertex -1.737000E+3 -1.835530E+1 -5.457867E+1
         vertex -1.737000E+3 -1.852609E+1 -5.410453E+1
         vertex -1.737000E+3 -1.796956E+1 -5.435007E+1
      endloop
   endfacet
   facet normal -1.000000E+0 -0.000000E+0 0.000000E+0
      outer loop
         vertex -1.737000E+3 -1.835530E+1 -5.457867E+1
         vertex -1.737000E+3 -1.877079E+1 -5.474721E+1
         vertex -1.737000E+3 -1.889625E+1 -5.426218E+1
      endloop
   endfacet
   facet normal -1.000000E+0 0.000000E+0 0.000000E+0
      outer loop
         vertex -1.737000E+3 -1.835530E+1 -5.457867E+1
         vertex -1.737000E+3 -1.889625E+1 -5.426218E+1
         vertex -1.737000E+3 -1.852609E+1 -5.410453E+1
      endloop
   endfacet
endsolid 98